{
.appVersion = "3151";
.formatVersion = 3;
DisplayStrings = (
"Lorem Ipsum
UNIVERSAL ATM
RSAL TSKRTATAVAAWA
LWAKSALUAQ
LOVEIT
KIRAKILLER
ZUTTOMAYONAKADEIINONI
LTLYLILV
LUXIEM
NEWEST, FINE T.V,V.Y,Y.U.S.A.
N.Y.W.W,
LINOTYPE",
"What should we do!?
REFLECTION
FUNCTION
SHIN-YOKOHAMA
HAMACHO
AKIHABARA UENO
OKACHIMACHI
HIKARIGAOKA
NERIMA TUNASHIMA
AOYAMA SHIBUYA
TOSHIMAEN WASEDA TAKANAWA
URAYASU OMIYA
FUNABASHI NAKANO
KOENJI HARAJYUKU SHINJYUKU EBISU MITAKA KITASENJYU ASAKUSA TAKASHIMADAIRA 
SOUTHKOREA
SEOULBUSANULSAN
GYUENGJU",
"SHANGHAI BEIJING
GUANGZHOU
SHENZHEN CHENGDU TIANJIN CHONGQING NANGJING WUHAN XI'AN HANGZHOU SHENYANG DONGGUAN FOSHAN HARBIN DAILAN QINGDAO ZHENGZHOU JINAN CHANGSHA KUNMING CHANGCHUN URUMQI

BUSAN DAEGU DAEJEON GWANGJU INCHEON ULSAN 
HONGKONG MACAU"
);
axes = (
{
hidden = 1;
name = Weight;
tag = wght;
}
);
classes = (
{
automatic = 1;

glyphs = (
{
color = 4;
glyphname = A;
kernLeft = A;
kernRight = A;
lastChange = "2023-04-09 08:00:27 +0000";
layers = (
{
anchors = (
{
name = bottom;
pos = (300,0);
},
{
name = ogonek;
pos = (514,0);
},
{
name = top;
pos = (300,700);
},
{
name = topleft;
pos = (177,700);
}
);
layerId = m01;
shapes = (
{
closed = 1;
nodes = (
(247,700,l),
(23,0,l),
(149,0,l),
(212,192,l),
(153,119,l),
(447,119,l),
(388,192,l),
(451,0,l),
(577,0,l),
(353,700,l)
);
},
{
closed = 1;
nodes = (
(319,529,l),
(281,529,l),
(378,230,l),
(222,230,l)
);
}
);
width = 600;
},
{
anchors = (
{
name = bottom;
pos = (300,0);
},
{
name = ogonek;
pos = (509,0);
},
{
name = top;
pos = (300,700);
},
{
name = topleft;
pos = (212,700);
}
);
layerId = m002;
shapes = (
{
closed = 1;
nodes = (
(292,700,l),
(73,0,l),
(109,0,l),
(175,212,l),
(143,194,l),
(457,194,l),
(425,212,l),
(491,0,l),
(527,0,l),
(308,700,l)
);
},
{
closed = 1;
nodes = (
(304,623,l),
(296,623,l),
(420,230,l),
(180,230,l)
);
}
);
width = 600;
},
{
anchors = (
{
name = bottom;
pos = (300,0);
},
{
name = ogonek;
pos = (514,0);
},
{
name = top;
pos = (300,700);
},
{
name = topleft;
pos = (186,700);
}
);
layerId = m003;
shapes = (
{
closed = 1;
nodes = (
(266,700,l),
(42,0,l),
(130,0,l),
(193,192,l),
(134,149,l),
(466,149,l),
(407,192,l),
(470,0,l),
(558,0,l),
(334,700,l)
);
},
{
closed = 1;
nodes = (
(314,572,l),
(286,572,l),
(397,230,l),
(203,230,l)
);
}
);
width = 600;
}
);
unicode = 65;
},
{
color = 4;
glyphname = AE;
kernLeft = A;
lastChange = "2023-04-06 11:04:35 +0000";
layers = (
{
layerId = m01;
shapes = (
{
closed = 1;
nodes = (
(281,232,l),
(217,141,l),
(373,140,l),
(373,0,l),
(731,0,l),
(731,122,l),
(496,122,l),
(496,301,l),
(699,301,l),
(699,421,l),
(496,421,l),
(496,579,l),
(721,579,l),
(721,700,l),
(380,700,l),
(46,0,l),
(174,0,l)
);
},
{
closed = 1;
nodes = (
(429,551,l),
(373,563,l),
(373,260,l),
(254,262,l),
(280,230,l)
);
}
);
width = 780;
},
{
layerId = m002;
shapes = (
{
closed = 1;
nodes = (
(224,202,l),
(200,194,l),
(419,194,l),
(419,0,l),
(691,0,l),
(691,38,l),
(456,38,l),
(456,343,l),
(659,343,l),
(659,379,l),
(456,379,l),
(456,662,l),
(681,662,l),
(681,700,l),
(425,700,l),
(91,0,l),
(132,0,l)
);
},
{
closed = 1;
nodes = (
(439,650,l),
(419,653,l),
(419,230,l),
(233,230,l),
(235,222,l)
);
}
);
width = 780;
},
{
layerId = m003;
shapes = (
{
closed = 1;
nodes = (
(263,232,l),
(199,191,l),
(393,190,l),
(393,0,l),
(711,0,l),
(711,82,l),
(476,82,l),
(476,311,l),
(679,311,l),
(679,391,l),
(476,391,l),
(476,619,l),
(701,619,l),
(701,700,l),
(398,700,l),
(64,0,l),
(156,0,l)
);
},
{
closed = 1;
nodes = (
(412,554,l),
(393,558,l),
(393,270,l),
(236,271,l),
(262,230,l)
);
}
);
width = 780;
}
);
unicode = 198;
},
{
color = 4;
glyphname = B;
kernLeft = N;
kernRight = O;
lastChange = "2023-04-06 11:04:35 +0000";
layers = (
{
layerId = m01;
shapes = (
{
closed = 1;
nodes = (
(392,214,o),
(392,194,o),
(391,166,cs),
(390,130,o),
(353,112,o),
(327,112,cs),
(168,112,l),
(168,306,l),
(327,306,ls),
(354,306,o),
(390,280,o),
(391,242,cs)
);
},
{
closed = 1;
nodes = (
(168,590,l),
(311,590,ls),
(337,590,o),
(373,580,o),
(375,534,cs),
(376,521,o),
(376,497,o),
(375,484,cs),
(373,437,o),
(337,418,o),
(311,418,cs),
(168,418,l)
);
},
{
closed = 1;
nodes = (
(485,408,o),
(495,439,o),
(497,478,cs),
(498,490,o),
(498,532,o),
(497,544,cs),
(493,626,o),
(422,700,o),
(321,700,cs),
(46,700,l),
(46,0,l),
(337,0,ls),
(439,0,o),
(511,74,o),
(514,156,cs),
(515,172,o),
(515,231,o),
(514,247,cs),
(512,293,o),
(495,331,o),
(448,369,c)
);
}
);
width = 560;
},
{
layerId = m002;
shapes = (
{
closed = 1;
nodes = (
(437,217,o),
(437,186,o),
(435,156,cs),
(430,75,o),
(380,38,o),
(287,38,cs),
(122,38,l),
(122,343,l),
(307,343,ls),
(367,343,o),
(431,309,o),
(435,247,cs)
);
},
{
closed = 1;
nodes = (
(122,662,l),
(271,662,ls),
(379,662,o),
(414,611,o),
(419,554,cs),
(421,529,o),
(421,513,o),
(419,488,cs),
(414,423,o),
(356,381,o),
(291,381,cs),
(122,381,l)
);
},
{
closed = 1;
nodes = (
(417,381,o),
(451,416,o),
(457,488,cs),
(459,511,o),
(459,531,o),
(457,554,cs),
(449,659,o),
(383,700,o),
(271,700,cs),
(86,700,l),
(86,0,l),
(287,0,ls),
(423,0,o),
(467,63,o),
(474,156,cs),
(476,184,o),
(476,219,o),
(474,247,cs),
(469,318,o),
(427,348,o),
(381,364,c)
);
}
);
width = 560;
},
{
layerId = m003;
shapes = (
{
closed = 1;
nodes = (
(412,228,o),
(412,175,o),
(411,156,cs),
(410,116,o),
(378,82,o),
(337,82,c),
(148,82,l),
(148,321,l),
(337,321,l),
(378,321,o),
(410,288,o),
(411,247,cs)
);
},
{
closed = 1;
nodes = (
(148,620,l),
(321,620,l),
(362,620,o),
(393,584,o),
(395,544,cs),
(396,533,o),
(396,489,o),
(395,478,cs),
(393,437,o),
(362,403,o),
(321,403,c),
(148,403,l)
);
},
{
closed = 1;
nodes = (
(461,398,o),
(475,436,o),
(477,478,cs),
(478,489,o),
(478,533,o),
(477,544,cs),
(473,630,o),
(407,700,o),
(321,700,c),
(66,700,l),
(66,0,l),
(337,0,l),
(424,0,o),
(491,70,o),
(494,156,cs),
(495,175,o),
(495,228,o),
(494,247,cs),
(492,297,o),
(470,341,o),
(434,370,c)
);
}
);
width = 560;
}
);
unicode = 66;
},
{
color = 4;
glyphname = C;
kernLeft = O;
kernRight = O;
lastChange = "2023-04-06 11:04:35 +0000";
layers = (
{
anchors = (
{
name = bottom;
pos = (280,0);
},
{
name = top;
pos = (280,700);
}
);
layerId = m01;
shapes = (
{
closed = 1;
nodes = (
(439,0,o),
(515,71,o),
(515,153,cs),
(515,192,l),
(391,192,l),
(391,173,ls),
(391,143,o),
(366,122,o),
(336,119,cs),
(317,117,o),
(242,117,o),
(222,119,cs),
(192,122,o),
(168,147,o),
(167,183,cs),
(165,243,o),
(165,469,o),
(167,529,cs),
(168,561,o),
(196,581,o),
(222,583,cs),
(243,585,o),
(316,585,o),
(336,583,cs),
(363,580,o),
(391,555,o),
(391,529,cs),
(391,510,l),
(515,510,l),
(515,549,ls),
(515,631,o),
(439,700,o),
(338,705,cs),
(320,706,o),
(239,706,o),
(220,705,cs),
(117,700,o),
(46,626,o),
(45,539,cs),
(45,482,o),
(45,221,o),
(45,163,cs),
(46,71,o),
(116,1,o),
(220,-5,cs),
(240,-6,o),
(319,-6,o),
(338,-5,cs)
);
}
);
width = 560;
},
{
anchors = (
{
name = bottom;
pos = (280,0);
},
{
name = top;
pos = (280,700);
}
);
layerId = m002;
shapes = (
{
closed = 1;
nodes = (
(409,-1,o),
(475,39,o),
(475,153,cs),
(475,192,l),
(437,192,l),
(437,163,ls),
(437,77,o),
(400,37,o),
(338,34,cs),
(299,32,o),
(260,32,o),
(220,34,cs),
(156,37,o),
(125,85,o),
(123,173,cs),
(120,313,o),
(120,399,o),
(123,539,cs),
(125,621,o),
(162,664,o),
(220,667,cs),
(260,669,o),
(299,669,o),
(338,667,cs),
(393,664,o),
(437,625,o),
(437,549,cs),
(437,510,l),
(475,510,l),
(475,549,ls),
(475,656,o),
(409,701,o),
(336,705,cs),
(297,707,o),
(262,707,o),
(222,705,cs),
(149,701,o),
(87,651,o),
(85,539,cs),
(82,398,o),
(83,305,o),
(85,163,cs),
(87,44,o),
(148,-1,o),
(222,-5,cs),
(262,-7,o),
(297,-7,o),
(336,-5,cs)
);
}
);
width = 560;
},
{
anchors = (
{
name = bottom;
pos = (280,0);
},
{
name = top;
pos = (280,700);
}
);
layerId = m003;
shapes = (
{
closed = 1;
nodes = (
(423,-1,o),
(495,67,o),
(495,153,c),
(495,192,l),
(411,192,l),
(411,163,l),
(411,118,o),
(382,81,o),
(337,79,cs),
(318,78,o),
(241,78,o),
(221,79,cs),
(175,81,o),
(148,122,o),
(147,173,cs),
(146,233,o),
(146,479,o),
(147,539,cs),
(148,585,o),
(180,621,o),
(221,623,cs),
(241,624,o),
(318,624,o),
(337,623,cs),
(377,621,o),
(411,589,o),
(411,549,c),
(411,510,l),
(495,510,l),
(495,549,l),
(495,635,o),
(423,701,o),
(337,705,cs),
(318,706,o),
(241,706,o),
(221,705,cs),
(134,701,o),
(66,630,o),
(65,539,cs),
(65,478,o),
(65,225,o),
(65,163,cs),
(66,67,o),
(133,0,o),
(221,-5,cs),
(241,-6,o),
(318,-6,o),
(337,-5,cs)
);
}
);
width = 560;
}
);
unicode = 67;
},
{
color = 4;
glyphname = Ccedilla;
kernLeft = O;
kernRight = O;
lastChange = "2023-04-06 11:04:35 +0000";
layers = (
{
anchors = (
{
name = bottom;
pos = (280,0);
},
{
name = top;
pos = (280,700);
}
);
layerId = m01;
shapes = (
{
closed = 1;
nodes = (
(357,-3,l),
(359,-3,o),
(360,-3,o),
(362,-3,c),
(452,-3,o),
(515,77,o),
(515,153,cs),
(515,192,l),
(391,192,l),
(391,173,ls),
(391,143,o),
(366,122,o),
(336,119,cs),
(317,117,o),
(242,117,o),
(222,119,cs),
(192,122,o),
(168,147,o),
(167,183,cs),
(164,293,o),
(164,419,o),
(167,529,cs),
(168,561,o),
(196,581,o),
(222,583,cs),
(243,585,o),
(316,585,o),
(336,583,cs),
(363,580,o),
(391,555,o),
(391,529,cs),
(391,510,l),
(515,510,l),
(515,549,ls),
(515,631,o),
(439,700,o),
(338,705,cs),
(320,706,o),
(239,706,o),
(220,705,cs),
(117,700,o),
(46,626,o),
(45,539,cs),
(44,414,o),
(44,288,o),
(45,163,cs),
(46,71,o),
(116,-5,o),
(220,-5,cs),
(223,-5,o),
(227,-5,o),
(230,-5,c),
(200,-120,l),
(326,-120,l)
);
}
);
width = 560;
},
{
anchors = (
{
name = bottom;
pos = (280,0);
},
{
name = top;
pos = (280,700);
}
);
layerId = m002;
shapes = (
{
closed = 1;
nodes = (
(301,-6,l),
(312,-6,o),
(324,-6,o),
(336,-5,cs),
(409,-1,o),
(475,39,o),
(475,153,cs),
(475,192,l),
(437,192,l),
(437,163,ls),
(437,77,o),
(400,37,o),
(338,34,cs),
(299,32,o),
(260,32,o),
(220,34,cs),
(156,37,o),
(125,85,o),
(123,173,cs),
(120,313,o),
(120,399,o),
(123,539,cs),
(125,621,o),
(162,664,o),
(220,667,cs),
(260,669,o),
(299,669,o),
(338,667,cs),
(393,664,o),
(437,625,o),
(437,549,cs),
(437,510,l),
(475,510,l),
(475,549,ls),
(475,656,o),
(409,701,o),
(336,705,cs),
(297,707,o),
(262,707,o),
(222,705,cs),
(149,701,o),
(88,651,o),
(85,539,cs),
(81,398,o),
(82,305,o),
(85,163,cs),
(88,44,o),
(148,-1,o),
(222,-5,cs),
(236,-6,o),
(250,-6,o),
(264,-6,c),
(234,-120,l),
(280,-120,l)
);
}
);
width = 560;
},
{
anchors = (
{
name = bottom;
pos = (280,0);
},
{
name = top;
pos = (280,700);
}
);
layerId = m003;
shapes = (
{
closed = 1;
nodes = (
(330,-5,l),
(332,-5,o),
(335,-5,o),
(337,-5,cs),
(423,-5,o),
(495,67,o),
(495,153,cs),
(495,192,l),
(411,192,l),
(411,163,ls),
(411,118,o),
(382,81,o),
(337,79,cs),
(318,78,o),
(241,78,o),
(221,79,cs),
(175,81,o),
(147,122,o),
(147,173,cs),
(146,293,o),
(146,419,o),
(147,539,cs),
(147,585,o),
(180,621,o),
(221,623,cs),
(241,624,o),
(318,624,o),
(337,623,cs),
(377,621,o),
(411,589,o),
(411,549,cs),
(411,510,l),
(495,510,l),
(495,549,ls),
(495,635,o),
(423,701,o),
(337,705,cs),
(318,706,o),
(241,706,o),
(221,705,cs),
(134,701,o),
(66,630,o),
(65,539,cs),
(65,414,o),
(65,288,o),
(65,163,cs),
(66,67,o),
(133,0,o),
(221,-5,cs),
(226,-5,o),
(234,-5,o),
(244,-6,c),
(214,-120,l),
(300,-120,l)
);
}
);
width = 560;
}
);
unicode = 199;
},
{
color = 4;
glyphname = D;
kernLeft = N;
kernRight = O;
lastChange = "2023-04-06 11:04:35 +0000";
layers = (
{
anchors = (
{
name = bottom;
pos = (265,0);
},
{
name = center;
pos = (265,350);
},
{
name = top;
pos = (265,700);
}
);
layerId = m01;
shapes = (
{
closed = 1;
nodes = (
(189,579,o),
(301,579,o),
(337,578,cs),
(363,577,o),
(391,565,o),
(392,519,cs),
(393,455,o),
(393,246,o),
(392,181,cs),
(391,135,o),
(363,123,o),
(338,122,cs),
(319,122,o),
(174,122,o),
(165,122,c),
(165,578,l)
);
},
{
closed = 1;
nodes = (
(439,0,o),
(513,75,o),
(514,161,cs),
(515,223,o),
(515,478,o),
(514,539,cs),
(513,633,o),
(437,700,o),
(338,700,cs),
(46,700,l),
(46,0,l),
(338,0,ls)
);
}
);
width = 560;
},
{
anchors = (
{
name = bottom;
pos = (265,0);
},
{
name = center;
pos = (265,350);
},
{
name = top;
pos = (265,700);
}
);
layerId = m002;
shapes = (
{
closed = 1;
nodes = (
(173,663,o),
(253,662,o),
(289,662,cs),
(387,661,o),
(434,625,o),
(436,539,cs),
(439,375,o),
(439,316,o),
(436,161,cs),
(435,85,o),
(387,38,o),
(288,38,cs),
(254,38,o),
(199,38,o),
(122,38,c),
(122,662,l)
);
},
{
closed = 1;
nodes = (
(410,0,o),
(473,56,o),
(474,161,cs),
(475,313,o),
(475,378,o),
(474,539,cs),
(473,649,o),
(412,700,o),
(298,700,cs),
(86,700,l),
(86,0,l),
(298,0,ls)
);
}
);
width = 560;
},
{
anchors = (
{
name = bottom;
pos = (265,0);
},
{
name = center;
pos = (265,350);
},
{
name = top;
pos = (265,700);
}
);
layerId = m003;
shapes = (
{
closed = 1;
nodes = (
(180,619,o),
(302,619,o),
(338,618,cs),
(379,617,o),
(411,579,o),
(412,539,cs),
(413,475,o),
(413,226,o),
(412,161,cs),
(411,121,o),
(379,83,o),
(338,82,cs),
(302,82,o),
(180,82,o),
(148,82,c),
(148,618,l)
);
},
{
closed = 1;
nodes = (
(425,0,o),
(493,72,o),
(494,161,cs),
(495,223,o),
(495,478,o),
(494,539,cs),
(493,633,o),
(426,700,o),
(338,700,c),
(66,700,l),
(66,0,l),
(338,0,l)
);
}
);
width = 560;
}
);
unicode = 68;
},
{
color = 4;
glyphname = Eth;
kernLeft = N;
kernRight = O;
lastChange = "2023-04-06 13:04:38 +0000";
layers = (
{
anchors = (
{
name = bottom;
pos = (265,0);
},
{
name = center;
pos = (265,350);
},
{
name = top;
pos = (265,700);
}
);
layerId = m01;
shapes = (
{
closed = 1;
nodes = (
(189,579,o),
(301,579,o),
(337,578,cs),
(363,577,o),
(391,565,o),
(392,519,cs),
(393,455,o),
(393,246,o),
(392,181,cs),
(391,135,o),
(363,123,o),
(338,122,cs),
(165,122,l),
(165,294,l),
(246,294,l),
(246,416,l),
(165,416,l),
(165,578,l)
);
},
{
closed = 1;
nodes = (
(46,294,l),
(46,0,l),
(338,0,ls),
(439,0,o),
(513,75,o),
(514,161,cs),
(515,223,o),
(515,478,o),
(514,539,cs),
(513,633,o),
(437,700,o),
(338,700,cs),
(46,700,l),
(46,416,l),
(16,416,l),
(16,294,l)
);
}
);
width = 560;
},
{
anchors = (
{
name = bottom;
pos = (265,0);
},
{
name = center;
pos = (265,350);
},
{
name = top;
pos = (265,700);
}
);
layerId = m002;
shapes = (
{
closed = 1;
nodes = (
(173,663,o),
(253,662,o),
(289,662,cs),
(387,661,o),
(434,625,o),
(436,539,cs),
(439,375,o),
(439,316,o),
(436,161,cs),
(435,85,o),
(387,38,o),
(288,38,cs),
(122,38,l),
(122,334,l),
(246,334,l),
(246,374,l),
(122,374,l),
(122,662,l)
);
},
{
closed = 1;
nodes = (
(86,334,l),
(86,0,l),
(298,0,ls),
(410,0,o),
(473,56,o),
(474,161,cs),
(475,313,o),
(475,378,o),
(474,539,cs),
(473,649,o),
(412,700,o),
(298,700,cs),
(86,700,l),
(86,374,l),
(16,374,l),
(16,334,l)
);
}
);
width = 560;
},
{
anchors = (
{
name = bottom;
pos = (265,0);
},
{
name = center;
pos = (265,350);
},
{
name = top;
pos = (265,700);
}
);
layerId = m003;
shapes = (
{
closed = 1;
nodes = (
(180,619,o),
(302,619,o),
(338,618,cs),
(379,617,o),
(411,579,o),
(412,539,cs),
(413,475,o),
(413,226,o),
(412,161,cs),
(411,121,o),
(379,83,o),
(338,82,cs),
(148,82,l),
(148,314,l),
(246,314,l),
(246,396,l),
(148,396,l),
(148,618,l)
);
},
{
closed = 1;
nodes = (
(66,314,l),
(66,0,l),
(338,0,ls),
(425,0,o),
(493,72,o),
(494,161,cs),
(495,223,o),
(495,478,o),
(494,539,cs),
(493,633,o),
(426,700,o),
(338,700,cs),
(66,700,l),
(66,396,l),
(16,396,l),
(16,314,l)
);
}
);
width = 560;
}
);
unicode = 208;
},
{
color = 4;
glyphname = E;
kernLeft = N;
kernRight = E;
lastChange = "2023-04-06 13:04:38 +0000";
layers = (
{
anchors = (
{
name = bottom;
pos = (260,0);
},
{
name = ogonek;
pos = (411,0);
},
{
name = top;
pos = (260,700);
},
{
name = topleft;
pos = (20,700);
}
);
layerId = m01;
shapes = (
{
closed = 1;
nodes = (
(46,700,l),
(46,0,l),
(474,0,l),
(474,122,l),
(169,122,l),
(169,301,l),
(392,301,l),
(392,421,l),
(169,421,l),
(169,578,l),
(464,578,l),
(464,700,l)
);
}
);
width = 510;
},
{
anchors = (
{
name = bottom;
pos = (260,0);
},
{
name = ogonek;
pos = (417,0);
},
{
name = top;
pos = (260,700);
},
{
name = topleft;
pos = (40,700);
}
);
layerId = m002;
shapes = (
{
closed = 1;
nodes = (
(86,700,l),
(86,0,l),
(434,0,l),
(434,38,l),
(123,38,l),
(123,343,l),
(352,343,l),
(352,379,l),
(123,379,l),
(123,662,l),
(424,662,l),
(424,700,l)
);
}
);
width = 510;
},
{
anchors = (
{
name = bottom;
pos = (260,0);
},
{
name = ogonek;
pos = (410,0);
},
{
name = top;
pos = (260,700);
},
{
name = topleft;
pos = (30,700);
}
);
layerId = m003;
shapes = (
{
closed = 1;
nodes = (
(66,700,l),
(66,0,l),
(454,0,l),
(454,82,l),
(149,82,l),
(149,321,l),
(372,321,l),
(372,401,l),
(149,401,l),
(149,618,l),
(444,618,l),
(444,700,l)
);
}
);
width = 510;
}
);
unicode = 69;
},
{
color = 4;
glyphname = Schwa;
kernLeft = O;
kernRight = O;
lastChange = "2023-04-06 11:04:35 +0000";
layers = (
{
anchors = (
{
name = bottom;
pos = (280,0);
},
{
name = top;
pos = (280,700);
}
);
layerId = m002;
shapes = (
{
closed = 1;
nodes = (
(262,-7,o),
(297,-7,o),
(337,-5,cs),
(409,-1,o),
(474,49,o),
(475,153,cs),
(476,308,o),
(478,387,o),
(475,542,cs),
(473,654,o),
(409,696,o),
(337,700,cs),
(297,702,o),
(262,702,o),
(223,700,cs),
(150,696,o),
(85,654,o),
(85,542,cs),
(85,510,l),
(123,510,l),
(123,542,ls),
(123,618,o),
(164,659,o),
(221,662,cs),
(260,664,o),
(299,664,o),
(339,662,cs),
(396,659,o),
(436,618,o),
(437,542,cs),
(439,461,o),
(439,401,o),
(439,340,c),
(85,340,l),
(84,284,o),
(84,209,o),
(85,153,cs),
(87,49,o),
(150,-1,o),
(223,-5,cs)
);
},
{
closed = 1;
nodes = (
(122,196,o),
(122,259,o),
(123,302,c),
(439,302,l),
(439,258,o),
(438,211,o),
(437,153,cs),
(436,77,o),
(396,38,o),
(339,34,cs),
(299,31,o),
(260,31,o),
(221,34,cs),
(164,38,o),
(125,77,o),
(123,153,cs)
);
}
);
width = 560;
},
{
anchors = (
{
name = bottom;
pos = (280,0);
},
{
name = top;
pos = (280,700);
}
);
layerId = m003;
shapes = (
{
closed = 1;
nodes = (
(241,-6,o),
(318,-6,o),
(338,-5,cs),
(424,-1,o),
(494,67,o),
(495,153,cs),
(496,283,o),
(496,412,o),
(495,542,cs),
(494,628,o),
(424,696,o),
(338,700,cs),
(318,701,o),
(241,701,o),
(222,700,cs),
(136,696,o),
(65,628,o),
(65,542,cs),
(65,510,l),
(148,510,l),
(148,542,ls),
(148,582,o),
(181,616,o),
(222,618,cs),
(241,619,o),
(318,619,o),
(338,618,cs),
(379,616,o),
(411,582,o),
(412,542,cs),
(412,511,o),
(413,437,o),
(413,360,c),
(65,360,l),
(64,294,o),
(64,219,o),
(65,153,cs),
(66,67,o),
(136,-1,o),
(222,-5,cs)
);
},
{
closed = 1;
nodes = (
(147,192,o),
(147,241,o),
(148,280,c),
(413,280,l),
(413,225,o),
(412,176,o),
(412,153,cs),
(411,113,o),
(379,81,o),
(338,79,cs),
(318,78,o),
(241,78,o),
(222,79,cs),
(181,81,o),
(148,113,o),
(148,153,cs)
);
}
);
width = 560;
},
{
anchors = (
{
name = bottom;
pos = (280,0);
},
{
name = top;
pos = (280,700);
}
);
layerId = m01;
shapes = (
{
closed = 1;
nodes = (
(240,-6,o),
(319,-6,o),
(339,-5,cs),
(440,0,o),
(514,71,o),
(515,153,cs),
(516,283,o),
(516,412,o),
(515,542,cs),
(514,624,o),
(440,695,o),
(339,700,cs),
(319,701,o),
(240,701,o),
(221,700,cs),
(120,695,o),
(45,624,o),
(45,542,cs),
(45,510,l),
(168,510,l),
(168,532,ls),
(168,558,o),
(196,575,o),
(223,578,cs),
(242,580,o),
(317,580,o),
(337,578,cs),
(364,575,o),
(391,558,o),
(392,532,cs),
(393,507,o),
(393,456,o),
(393,400,c),
(45,400,l),
(44,321,o),
(44,232,o),
(45,153,cs),
(46,71,o),
(120,0,o),
(221,-5,cs)
);
},
{
closed = 1;
nodes = (
(167,205,o),
(167,248,o),
(168,280,c),
(393,280,l),
(393,234,o),
(393,195,o),
(392,173,cs),
(391,137,o),
(364,122,o),
(337,119,cs),
(317,117,o),
(242,117,o),
(223,119,cs),
(196,122,o),
(169,137,o),
(168,173,cs)
);
}
);
width = 560;
}
);
unicode = 399;
},
{
color = 4;
glyphname = F;
kernLeft = N;
kernRight = F;
lastChange = "2023-04-06 11:04:35 +0000";
layers = (
{
layerId = m01;
shapes = (
{
closed = 1;
nodes = (
(46,700,l),
(46,0,l),
(168,0,l),
(168,300,l),
(392,300,l),
(392,421,l),
(168,421,l),
(168,578,l),
(474,578,l),
(474,700,l)
);
}
);
width = 500;
},
{
layerId = m002;
shapes = (
{
closed = 1;
nodes = (
(84,700,l),
(84,0,l),
(124,0,l),
(124,342,l),
(352,342,l),
(352,380,l),
(124,380,l),
(124,662,l),
(434,662,l),
(434,700,l)
);
}
);
width = 500;
},
{
layerId = m003;
shapes = (
{
closed = 1;
nodes = (
(66,700,l),
(66,0,l),
(148,0,l),
(148,320,l),
(372,320,l),
(372,401,l),
(148,401,l),
(148,618,l),
(454,618,l),
(454,700,l)
);
}
);
width = 500;
}
);
unicode = 70;
},
{
color = 4;
glyphname = G;
kernLeft = O;
kernRight = O;
lastChange = "2023-04-06 11:04:35 +0000";
layers = (
{
anchors = (
{
name = bottom;
pos = (280,0);
},
{
name = top;
pos = (280,700);
}
);
layerId = m01;
shapes = (
{
closed = 1;
nodes = (
(440,0,o),
(515,71,o),
(515,153,cs),
(515,390,l),
(244,390,l),
(244,270,l),
(392,270,l),
(392,173,ls),
(392,137,o),
(364,122,o),
(337,119,cs),
(318,117,o),
(243,117,o),
(223,119,cs),
(196,122,o),
(169,137,o),
(168,173,cs),
(166,238,o),
(166,467,o),
(168,532,cs),
(169,558,o),
(196,575,o),
(223,578,cs),
(243,580,o),
(318,580,o),
(337,578,cs),
(364,575,o),
(392,558,o),
(392,532,cs),
(392,510,l),
(515,510,l),
(515,542,ls),
(515,624,o),
(440,695,o),
(339,700,cs),
(320,701,o),
(241,701,o),
(221,700,cs),
(120,695,o),
(46,624,o),
(45,542,cs),
(45,477,o),
(45,218,o),
(45,153,cs),
(46,71,o),
(120,0,o),
(221,-5,cs),
(241,-6,o),
(320,-6,o),
(339,-5,cs)
);
}
);
width = 560;
},
{
anchors = (
{
name = bottom;
pos = (280,0);
},
{
name = top;
pos = (280,700);
}
);
layerId = m002;
shapes = (
{
closed = 1;
nodes = (
(410,-1,o),
(475,49,o),
(475,153,cs),
(475,310,l),
(284,310,l),
(284,272,l),
(437,272,l),
(437,153,ls),
(437,77,o),
(396,38,o),
(339,34,cs),
(300,31,o),
(261,31,o),
(221,34,cs),
(164,38,o),
(124,77,o),
(123,153,cs),
(120,308,o),
(120,387,o),
(123,542,cs),
(124,618,o),
(164,659,o),
(221,662,cs),
(261,664,o),
(300,664,o),
(339,662,cs),
(396,659,o),
(437,618,o),
(437,542,cs),
(437,510,l),
(475,510,l),
(475,542,ls),
(475,654,o),
(410,696,o),
(337,700,cs),
(298,702,o),
(263,702,o),
(223,700,cs),
(151,696,o),
(87,654,o),
(85,542,cs),
(82,387,o),
(84,308,o),
(85,153,cs),
(86,49,o),
(151,-1,o),
(223,-5,cs),
(263,-7,o),
(298,-7,o),
(337,-5,cs)
);
}
);
width = 560;
},
{
anchors = (
{
name = bottom;
pos = (280,0);
},
{
name = top;
pos = (280,700);
}
);
layerId = m003;
shapes = (
{
closed = 1;
nodes = (
(424,-1,o),
(495,67,o),
(495,153,c),
(495,350,l),
(264,350,l),
(264,270,l),
(412,270,l),
(412,153,l),
(412,113,o),
(379,81,o),
(338,79,cs),
(319,78,o),
(242,78,o),
(222,79,cs),
(181,81,o),
(149,113,o),
(148,153,cs),
(147,218,o),
(147,477,o),
(148,542,cs),
(149,582,o),
(181,616,o),
(222,618,cs),
(242,619,o),
(319,619,o),
(338,618,cs),
(379,616,o),
(412,582,o),
(412,542,c),
(412,510,l),
(495,510,l),
(495,542,l),
(495,628,o),
(424,696,o),
(338,700,cs),
(319,701,o),
(242,701,o),
(222,700,cs),
(136,696,o),
(66,628,o),
(65,542,cs),
(65,477,o),
(65,218,o),
(65,153,cs),
(66,67,o),
(136,-1,o),
(222,-5,cs),
(242,-6,o),
(319,-6,o),
(338,-5,cs)
);
}
);
width = 560;
}
);
unicode = 71;
},
{
color = 4;
glyphname = H;
kernLeft = N;
kernRight = N;
lastChange = "2023-04-09 08:34:59 +0000";
layers = (
{
anchors = (
{
name = bottom;
pos = (290,0);
},
{
name = center;
pos = (290,350);
},
{
name = top;
pos = (290,700);
},
{
name = topleft;
pos = (20,700);
}
);
layerId = m01;
shapes = (
{
closed = 1;
nodes = (
(407,700,l),
(407,411,l),
(173,411,l),
(173,700,l),
(51,700,l),
(51,0,l),
(173,0,l),
(173,291,l),
(407,291,l),
(407,0,l),
(529,0,l),
(529,700,l)
);
}
);
width = 580;
},
{
anchors = (
{
name = bottom;
pos = (290,0);
},
{
name = center;
pos = (290,350);
},
{
name = top;
pos = (290,700);
},
{
name = topleft;
pos = (20,700);
}
);
layerId = m002;
shapes = (
{
closed = 1;
nodes = (
(452,700,l),
(452,370,l),
(128,370,l),
(128,700,l),
(91,700,l),
(91,0,l),
(128,0,l),
(128,332,l),
(452,332,l),
(452,0,l),
(489,0,l),
(489,700,l)
);
}
);
width = 580;
},
{
anchors = (
{
name = bottom;
pos = (290,0);
},
{
name = center;
pos = (290,350);
},
{
name = top;
pos = (290,700);
},
{
name = topleft;
pos = (20,700);
}
);
layerId = m003;
shapes = (
{
closed = 1;
nodes = (
(427,700,l),
(427,391,l),
(153,391,l),
(153,700,l),
(71,700,l),
(71,0,l),
(153,0,l),
(153,311,l),
(427,311,l),
(427,0,l),
(509,0,l),
(509,700,l)
);
}
);
width = 580;
}
);
unicode = 72;
},
{
color = 4;
glyphname = Hbar;
kernLeft = N;
kernRight = N;
lastChange = "2023-04-06 11:04:35 +0000";
layers = (
{
anchors = (
{
name = bottom;
pos = (290,0);
},
{
name = center;
pos = (290,350);
},
{
name = top;
pos = (290,700);
},
{
name = topleft;
pos = (20,700);
}
);
layerId = m002;
shapes = (
{
closed = 1;
nodes = (
(452,700,l),
(452,528,l),
(128,528,l),
(128,700,l),
(91,700,l),
(91,528,l),
(19,528,l),
(19,490,l),
(91,490,l),
(91,0,l),
(128,0,l),
(128,332,l),
(452,332,l),
(452,0,l),
(489,0,l),
(489,490,l),
(561,490,l),
(561,528,l),
(489,528,l),
(489,700,l)
);
},
{
closed = 1;
nodes = (
(128,490,l),
(452,490,l),
(452,370,l),
(128,370,l)
);
}
);
width = 580;
},
{
anchors = (
{
name = bottom;
pos = (290,0);
},
{
name = center;
pos = (290,350);
},
{
name = top;
pos = (290,700);
},
{
name = topleft;
pos = (20,700);
}
);
layerId = m003;
shapes = (
{
closed = 1;
nodes = (
(427,700,l),
(427,570,l),
(153,570,l),
(153,700,l),
(71,700,l),
(71,570,l),
(19,570,l),
(19,490,l),
(71,490,l),
(71,0,l),
(153,0,l),
(153,311,l),
(427,311,l),
(427,0,l),
(509,0,l),
(509,490,l),
(561,490,l),
(561,570,l),
(509,570,l),
(509,700,l)
);
},
{
closed = 1;
nodes = (
(153,490,l),
(427,490,l),
(427,391,l),
(153,391,l)
);
}
);
width = 580;
},
{
anchors = (
{
name = bottom;
pos = (290,0);
},
{
name = center;
pos = (290,350);
},
{
name = top;
pos = (290,700);
},
{
name = topleft;
pos = (20,700);
}
);
layerId = m01;
shapes = (
{
closed = 1;
nodes = (
(407,700,l),
(407,610,l),
(173,610,l),
(173,700,l),
(51,700,l),
(51,610,l),
(19,610,l),
(19,490,l),
(51,490,l),
(51,0,l),
(173,0,l),
(173,291,l),
(407,291,l),
(407,0,l),
(529,0,l),
(529,490,l),
(561,490,l),
(561,610,l),
(529,610,l),
(529,700,l)
);
},
{
closed = 1;
nodes = (
(173,490,l),
(407,490,l),
(407,411,l),
(173,411,l)
);
}
);
width = 580;
}
);
unicode = 294;
},
{
color = 4;
glyphname = I;
kernLeft = I;
kernRight = I;
lastChange = "2023-04-09 08:40:40 +0000";
layers = (
{
anchors = (
{
name = bottom;
pos = (170,0);
},
{
name = ogonek;
pos = (232,0);
},
{
name = top;
pos = (170,700);
},
{
name = topleft;
pos = (20,700);
}
);
layerId = m01;
shapes = (
{
closed = 1;
nodes = (
(45,700,l),
(45,606,l),
(109,606,l),
(109,95,l),
(45,95,l),
(45,0,l),
(295,0,l),
(295,95,l),
(231,95,l),
(231,606,l),
(295,606,l),
(295,700,l)
);
}
);
width = 340;
},
{
anchors = (
{
name = bottom;
pos = (170,0);
},
{
name = ogonek;
pos = (257,0);
},
{
name = top;
pos = (170,700);
},
{
name = topleft;
pos = (30,700);
}
);
layerId = m002;
shapes = (
{
closed = 1;
nodes = (
(65,700,l),
(65,664,l),
(151,664,l),
(151,36,l),
(65,36,l),
(65,0,l),
(275,0,l),
(275,36,l),
(189,36,l),
(189,664,l),
(275,664,l),
(275,700,l)
);
}
);
width = 340;
},
{
anchors = (
{
name = bottom;
pos = (170,0);
},
{
name = ogonek;
pos = (231,0);
},
{
name = top;
pos = (170,700);
},
{
name = topleft;
pos = (30,700);
}
);
layerId = m003;
shapes = (
{
closed = 1;
nodes = (
(65,700,l),
(65,626,l),
(129,626,l),
(129,75,l),
(65,75,l),
(65,0,l),
(275,0,l),
(275,75,l),
(211,75,l),
(211,626,l),
(275,626,l),
(275,700,l)
);
}
);
width = 340;
}
);
unicode = 73;
},
{
color = 4;
glyphname = IJ;
kernLeft = I;
kernRight = O;
lastChange = "2023-04-06 11:04:35 +0000";
layers = (
{
anchors = (
{
name = bottom;
pos = (437,0);
},
{
name = ogonek;
pos = (312,10);
},
{
name = top;
pos = (582,700);
},
{
name = topleft;
pos = (-10,700);
}
);
layerId = m01;
shapes = (
{
closed = 1;
nodes = (
(45,700,l),
(45,606,l),
(99,606,l),
(99,95,l),
(45,95,l),
(45,0,l),
(221,0,l),
(221,700,l)
);
},
{
closed = 1;
nodes = (
(273,0,l),
(313,0,o),
(347,0,o),
(399,0,cs),
(501,0,o),
(585,47,o),
(585,193,cs),
(585,700,l),
(413,700,l),
(413,606,l),
(463,606,l),
(463,203,ls),
(463,144,o),
(431,125,o),
(399,124,cs),
(382,124,o),
(298,124,o),
(273,124,c)
);
}
);
width = 630;
},
{
anchors = (
{
name = bottom;
pos = (437,0);
},
{
name = ogonek;
pos = (312,10);
},
{
name = top;
pos = (582,700);
},
{
name = topleft;
pos = (-10,700);
}
);
layerId = m002;
shapes = (
{
closed = 1;
nodes = (
(85,700,l),
(85,664,l),
(143,664,l),
(143,36,l),
(85,36,l),
(85,0,l),
(181,0,l),
(181,700,l)
);
},
{
closed = 1;
nodes = (
(253,0,l),
(301,0,o),
(338,0,o),
(379,0,cs),
(480,0,o),
(545,55,o),
(545,193,cs),
(545,700,l),
(453,700,l),
(453,664,l),
(507,664,l),
(507,193,ls),
(507,72,o),
(447,40,o),
(379,38,cs),
(334,37,o),
(291,37,o),
(253,38,c)
);
}
);
width = 630;
},
{
anchors = (
{
name = bottom;
pos = (437,0);
},
{
name = ogonek;
pos = (312,10);
},
{
name = top;
pos = (582,700);
},
{
name = topleft;
pos = (-10,700);
}
);
layerId = m003;
shapes = (
{
closed = 1;
nodes = (
(65,700,l),
(65,626,l),
(119,626,l),
(119,75,l),
(65,75,l),
(65,0,l),
(201,0,l),
(201,700,l)
);
},
{
closed = 1;
nodes = (
(253,0,l),
(312,0,o),
(352,0,o),
(399,0,cs),
(505,0,o),
(565,65,o),
(565,193,c),
(565,700,l),
(433,700,l),
(433,626,l),
(483,626,l),
(483,193,l),
(483,120,o),
(446,85,o),
(399,84,cs),
(369,84,o),
(282,84,o),
(253,84,c)
);
}
);
width = 630;
}
);
unicode = 306;
},
{
color = 4;
glyphname = J;
kernLeft = O;
kernRight = O;
lastChange = "2023-04-06 13:05:02 +0000";
layers = (
{
anchors = (
{
name = bottom;
pos = (260,0);
},
{
name = top;
pos = (385,700);
}
);
layerId = m01;
shapes = (
{
closed = 1;
nodes = (
(394,-1,o),
(468,71,o),
(468,153,cs),
(468,700,l),
(286,700,l),
(286,606,l),
(346,606,l),
(346,173,ls),
(346,137,o),
(319,121,o),
(292,119,cs),
(275,118,o),
(235,118,o),
(218,119,cs),
(193,120,o),
(166,137,o),
(166,173,cs),
(166,192,l),
(42,192,l),
(42,153,ls),
(42,71,o),
(116,-1,o),
(218,-5,cs),
(224,-5,o),
(287,-5,o),
(292,-5,cs)
);
}
);
width = 520;
},
{
anchors = (
{
name = bottom;
pos = (260,0);
},
{
name = top;
pos = (385,700);
}
);
layerId = m002;
shapes = (
{
closed = 1;
nodes = (
(363,-2,o),
(428,43,o),
(428,153,cs),
(428,700,l),
(326,700,l),
(326,664,l),
(390,664,l),
(390,153,ls),
(390,72,o),
(351,39,o),
(292,34,cs),
(270,32,o),
(241,32,o),
(218,34,cs),
(161,39,o),
(121,72,o),
(121,153,cs),
(121,192,l),
(82,192,l),
(82,153,ls),
(82,43,o),
(147,-2,o),
(218,-5,cs),
(241,-6,o),
(270,-6,o),
(292,-5,cs)
);
}
);
width = 520;
},
{
anchors = (
{
name = bottom;
pos = (260,0);
},
{
name = top;
pos = (385,700);
}
);
layerId = m003;
shapes = (
{
closed = 1;
nodes = (
(378,-2,o),
(448,67,o),
(448,153,c),
(448,700,l),
(306,700,l),
(306,626,l),
(366,626,l),
(366,153,l),
(366,113,o),
(334,81,o),
(292,79,cs),
(280,79,o),
(231,79,o),
(218,79,cs),
(178,81,o),
(146,113,o),
(146,153,c),
(146,192,l),
(62,192,l),
(62,153,l),
(62,67,o),
(132,-2,o),
(218,-5,cs),
(231,-5,o),
(280,-5,o),
(292,-5,cs)
);
}
);
width = 520;
}
);
unicode = 74;
},
{
color = 4;
glyphname = K;
kernLeft = N;
kernRight = K;
lastChange = "2023-04-06 11:04:35 +0000";
layers = (
{
anchors = (
{
name = bottom;
pos = (275,0);
},
{
name = top;
pos = (275,700);
}
);
layerId = m01;
shapes = (
{
closed = 1;
nodes = (
(38,700,l),
(38,0,l),
(160,0,l),
(160,267,l),
(134,184,l),
(231,318,l),
(174,321,l),
(389,0,l),
(530,0,l),
(251,414,l),
(249,341,l),
(514,700,l),
(369,700,l),
(116,356,l),
(160,356,l),
(160,700,l)
);
}
);
width = 550;
},
{
anchors = (
{
name = bottom;
pos = (275,0);
},
{
name = top;
pos = (275,700);
}
);
layerId = m002;
shapes = (
{
closed = 1;
nodes = (
(88,700,l),
(88,0,l),
(126,0,l),
(126,255,l),
(109,193,l),
(219,348,l),
(203,350,l),
(442,0,l),
(485,0,l),
(222,387,l),
(230,358,l),
(482,700,l),
(433,700,l),
(104,251,l),
(125,261,l),
(125,700,l)
);
}
);
width = 550;
},
{
anchors = (
{
name = bottom;
pos = (275,0);
},
{
name = top;
pos = (275,700);
}
);
layerId = m003;
shapes = (
{
closed = 1;
nodes = (
(64,700,l),
(64,0,l),
(146,0,l),
(146,262,l),
(119,181,l),
(239,343,l),
(187,344,l),
(418,0,l),
(517,0,l),
(239,414,l),
(237,341,l),
(502,700,l),
(399,700,l),
(119,320,l),
(146,311,l),
(146,700,l)
);
}
);
width = 550;
}
);
unicode = 75;
},
{
color = 4;
glyphname = L;
kernLeft = N;
kernRight = L;
lastChange = "2023-04-06 11:04:35 +0000";
layers = (
{
anchors = (
{
name = bottom;
pos = (260,0);
},
{
name = center;
pos = (107,350);
},
{
name = top;
pos = (107,700);
},
{
name = topright;
pos = (470,700);
}
);
layerId = m01;
shapes = (
{
closed = 1;
nodes = (
(46,700,l),
(46,0,l),
(474,0,l),
(474,122,l),
(169,122,l),
(169,700,l)
);
}
);
width = 490;
},
{
anchors = (
{
name = bottom;
pos = (260,0);
},
{
name = center;
pos = (107,350);
},
{
name = top;
pos = (107,700);
},
{
name = topright;
pos = (470,700);
}
);
layerId = m002;
shapes = (
{
closed = 1;
nodes = (
(86,700,l),
(86,0,l),
(434,0,l),
(434,38,l),
(126,38,l),
(126,700,l)
);
}
);
width = 490;
},
{
anchors = (
{
name = bottom;
pos = (260,0);
},
{
name = center;
pos = (107,350);
},
{
name = top;
pos = (107,700);
},
{
name = topright;
pos = (470,700);
}
);
layerId = m003;
shapes = (
{
closed = 1;
nodes = (
(66,700,l),
(66,0,l),
(454,0,l),
(454,82,l),
(149,82,l),
(149,700,l)
);
}
);
width = 490;
}
);
unicode = 76;
},
{
color = 4;
glyphname = Lslash;
kernLeft = N;
kernRight = L;
lastChange = "2023-04-06 11:04:35 +0000";
layers = (
{
anchors = (
{
name = bottom;
pos = (260,0);
},
{
name = center;
pos = (107,350);
},
{
name = top;
pos = (107,700);
},
{
name = topright;
pos = (470,700);
}
);
layerId = m01;
shapes = (
{
closed = 1;
nodes = (
(46,700,l),
(46,363,l),
(30,353,l),
(30,229,l),
(46,239,l),
(46,0,l),
(474,0,l),
(474,122,l),
(169,122,l),
(169,317,l),
(282,388,l),
(282,512,l),
(169,441,l),
(169,700,l)
);
}
);
width = 490;
},
{
anchors = (
{
name = bottom;
pos = (260,0);
},
{
name = center;
pos = (107,350);
},
{
name = top;
pos = (107,700);
},
{
name = topright;
pos = (470,700);
}
);
layerId = m002;
shapes = (
{
closed = 1;
nodes = (
(86,700,l),
(86,328,l),
(30,293,l),
(30,249,l),
(86,284,l),
(86,0,l),
(434,0,l),
(434,38,l),
(126,38,l),
(126,310,l),
(282,408,l),
(282,452,l),
(126,354,l),
(126,700,l)
);
}
);
width = 490;
},
{
anchors = (
{
name = bottom;
pos = (260,0);
},
{
name = center;
pos = (107,350);
},
{
name = top;
pos = (107,700);
},
{
name = topright;
pos = (470,700);
}
);
layerId = m003;
shapes = (
{
closed = 1;
nodes = (
(66,700,l),
(66,336,l),
(30,313,l),
(30,229,l),
(66,252,l),
(66,0,l),
(454,0,l),
(454,82,l),
(149,82,l),
(149,304,l),
(282,388,l),
(282,472,l),
(149,388,l),
(149,700,l)
);
}
);
width = 490;
}
);
unicode = 321;
},
{
color = 4;
glyphname = M;
kernLeft = N;
kernRight = N;
lastChange = "2023-04-06 11:04:35 +0000";
layers = (
{
layerId = m01;
shapes = (
{
closed = 1;
nodes = (
(488,700,l),
(340,343,l),
(191,700,l),
(40,700,l),
(40,0,l),
(162,0,l),
(162,575,l),
(114,575,l),
(265,231,l),
(415,231,l),
(565,575,l),
(517,575,l),
(517,0,l),
(640,0,l),
(640,700,l)
);
}
);
width = 680;
},
{
layerId = m002;
shapes = (
{
closed = 1;
nodes = (
(548,700,l),
(340,267,l),
(132,700,l),
(82,700,l),
(82,0,l),
(120,0,l),
(120,684,l),
(106,669,l),
(315,231,l),
(365,231,l),
(571,669,l),
(559,684,l),
(559,0,l),
(598,0,l),
(598,700,l)
);
}
);
width = 680;
},
{
layerId = m003;
shapes = (
{
closed = 1;
nodes = (
(506,700,l),
(340,321,l),
(173,700,l),
(60,700,l),
(60,0,l),
(142,0,l),
(142,614,l),
(123,610,l),
(295,231,l),
(385,231,l),
(555,610,l),
(537,614,l),
(537,0,l),
(620,0,l),
(620,700,l)
);
}
);
width = 680;
}
);
unicode = 77;
},
{
color = 4;
glyphname = N;
kernLeft = N;
kernRight = N;
lastChange = "2023-04-06 11:04:35 +0000";
layers = (
{
anchors = (
{
name = bottom;
pos = (300,0);
},
{
name = top;
pos = (300,700);
}
);
layerId = m01;
shapes = (
{
closed = 1;
nodes = (
(428,700,l),
(428,106,l),
(476,106,l),
(210,700,l),
(50,700,l),
(50,0,l),
(172,0,l),
(172,594,l),
(124,594,l),
(390,0,l),
(550,0,l),
(550,700,l)
);
}
);
width = 600;
},
{
anchors = (
{
name = bottom;
pos = (300,0);
},
{
name = top;
pos = (300,700);
}
);
layerId = m002;
shapes = (
{
closed = 1;
nodes = (
(472,700,l),
(472,14,l),
(475,15,l),
(154,700,l),
(90,700,l),
(90,0,l),
(128,0,l),
(128,687,l),
(119,686,l),
(446,0,l),
(510,0,l),
(510,700,l)
);
}
);
width = 600;
},
{
anchors = (
{
name = bottom;
pos = (300,0);
},
{
name = top;
pos = (300,700);
}
);
layerId = m003;
shapes = (
{
closed = 1;
nodes = (
(448,700,l),
(448,71,l),
(466,75,l),
(188,700,l),
(70,700,l),
(70,0,l),
(152,0,l),
(152,619,l),
(133,615,l),
(416,0,l),
(530,0,l),
(530,700,l)
);
}
);
width = 600;
}
);
unicode = 78;
},
{
color = 4;
glyphname = O;
kernLeft = O;
kernRight = O;
lastChange = "2023-04-09 08:33:43 +0000";
layers = (
{
anchors = (
{
name = bottom;
pos = (280,0);
},
{
name = center;
pos = (280,350);
},
{
name = ogonek;
pos = (512,10);
},
{
name = top;
pos = (280,700);
},
{
name = topleft;
pos = (50,700);
},
{
name = topright;
pos = (550,700);
}
);
layerId = m01;
shapes = (
{
closed = 1;
nodes = (
(364,580,o),
(392,555,o),
(393,519,cs),
(395,453,o),
(394,249,o),
(393,183,cs),
(392,137,o),
(364,122,o),
(337,119,cs),
(318,117,o),
(243,117,o),
(223,119,cs),
(196,122,o),
(168,137,o),
(167,183,cs),
(166,249,o),
(165,453,o),
(167,519,cs),
(168,555,o),
(196,580,o),
(223,583,cs),
(243,585,o),
(318,585,o),
(337,583,cs)
);
},
{
closed = 1;
nodes = (
(440,0,o),
(514,71,o),
(515,153,cs),
(516,219,o),
(516,483,o),
(515,549,cs),
(514,631,o),
(440,700,o),
(339,705,cs),
(320,706,o),
(241,706,o),
(221,705,cs),
(120,700,o),
(46,631,o),
(45,549,cs),
(45,483,o),
(45,219,o),
(45,153,cs),
(46,71,o),
(120,0,o),
(221,-5,cs),
(241,-6,o),
(320,-6,o),
(339,-5,cs)
);
}
);
width = 560;
},
{
anchors = (
{
name = bottom;
pos = (280,0);
},
{
name = center;
pos = (280,350);
},
{
name = ogonek;
pos = (512,10);
},
{
name = top;
pos = (280,700);
},
{
name = topleft;
pos = (70,700);
},
{
name = topright;
pos = (550,700);
}
);
layerId = m002;
shapes = (
{
closed = 1;
nodes = (
(396,663,o),
(435,630,o),
(437,549,cs),
(441,403,o),
(440,309,o),
(437,163,cs),
(435,70,o),
(396,38,o),
(339,34,cs),
(300,31,o),
(261,31,o),
(221,34,cs),
(164,38,o),
(125,70,o),
(123,163,cs),
(120,309,o),
(119,403,o),
(123,549,cs),
(125,630,o),
(164,663,o),
(221,667,cs),
(261,670,o),
(300,670,o),
(339,667,cs)
);
},
{
closed = 1;
nodes = (
(409,-1,o),
(474,44,o),
(475,153,cs),
(476,309,o),
(478,403,o),
(475,549,cs),
(473,661,o),
(410,701,o),
(337,705,cs),
(298,707,o),
(263,707,o),
(223,705,cs),
(150,701,o),
(87,661,o),
(85,549,cs),
(82,403,o),
(84,309,o),
(85,153,cs),
(86,44,o),
(151,-1,o),
(223,-5,cs),
(263,-7,o),
(298,-7,o),
(337,-5,cs)
);
}
);
width = 560;
},
{
anchors = (
{
name = bottom;
pos = (280,0);
},
{
name = center;
pos = (280,350);
},
{
name = ogonek;
pos = (512,10);
},
{
name = top;
pos = (280,700);
},
{
name = topleft;
pos = (60,700);
},
{
name = topright;
pos = (550,700);
}
);
layerId = m003;
shapes = (
{
closed = 1;
nodes = (
(379,621,o),
(412,589,o),
(413,549,cs),
(414,483,o),
(414,229,o),
(413,163,cs),
(412,113,o),
(379,81,o),
(338,79,cs),
(319,78,o),
(242,78,o),
(222,79,cs),
(181,81,o),
(148,113,o),
(147,163,cs),
(146,229,o),
(146,483,o),
(147,549,cs),
(148,589,o),
(181,621,o),
(222,623,cs),
(242,624,o),
(319,624,o),
(338,623,cs)
);
},
{
closed = 1;
nodes = (
(424,-1,o),
(494,67,o),
(495,153,cs),
(496,219,o),
(496,483,o),
(495,549,cs),
(494,635,o),
(424,701,o),
(338,705,cs),
(319,706,o),
(242,706,o),
(222,705,cs),
(136,701,o),
(66,635,o),
(65,549,cs),
(65,483,o),
(65,219,o),
(65,153,cs),
(66,67,o),
(136,-1,o),
(222,-5,cs),
(242,-6,o),
(319,-6,o),
(338,-5,cs)
);
}
);
width = 560;
}
);
unicode = 79;
},
{
color = 4;
glyphname = Oslash;
kernLeft = O;
kernRight = O;
lastChange = "2023-04-06 11:04:35 +0000";
layers = (
{
anchors = (
{
name = bottom;
pos = (290,0);
},
{
name = center;
pos = (290,350);
},
{
name = ogonek;
pos = (522,10);
},
{
name = top;
pos = (290,700);
},
{
name = topleft;
pos = (60,700);
},
{
name = topright;
pos = (560,700);
}
);
layerId = m01;
shapes = (
{
closed = 1;
nodes = (
(374,580,o),
(402,555,o),
(403,519,cs),
(403,510,o),
(403,500,o),
(404,487,c),
(176,337,l),
(176,409,o),
(176,484,o),
(177,519,cs),
(178,555,o),
(206,580,o),
(233,583,cs),
(253,585,o),
(328,585,o),
(347,583,cs)
);
},
{
closed = 1;
nodes = (
(57,136,l),
(57,135,o),
(57,135,o),
(57,134,c),
(58,60,o),
(138,0,o),
(231,-5,cs),
(251,-6,o),
(330,-6,o),
(349,-5,cs),
(450,0,o),
(524,71,o),
(525,153,cs),
(526,199,o),
(526,339,o),
(526,443,c),
(560,466,l),
(560,590,l),
(524,564,l),
(524,565,o),
(524,565,o),
(524,566,c),
(523,640,o),
(443,700,o),
(349,705,cs),
(330,706,o),
(251,706,o),
(231,705,cs),
(130,700,o),
(55,631,o),
(55,549,cs),
(55,452,o),
(55,354,o),
(55,257,c),
(20,234,l),
(20,110,l)
);
},
{
closed = 1;
nodes = (
(404,363,l),
(404,292,o),
(404,218,o),
(403,183,cs),
(402,137,o),
(374,122,o),
(347,119,cs),
(328,117,o),
(253,117,o),
(233,119,cs),
(206,122,o),
(177,137,o),
(177,183,cs),
(177,193,o),
(177,203,o),
(177,213,c)
);
}
);
width = 580;
},
{
anchors = (
{
name = bottom;
pos = (290,0);
},
{
name = center;
pos = (290,350);
},
{
name = ogonek;
pos = (522,10);
},
{
name = top;
pos = (290,700);
},
{
name = topleft;
pos = (80,700);
},
{
name = topright;
pos = (560,700);
}
);
layerId = m002;
shapes = (
{
closed = 1;
nodes = (
(406,663,o),
(444,630,o),
(447,549,cs),
(448,523,o),
(447,498,o),
(447,475,c),
(131,269,l),
(130,362,o),
(130,441,o),
(133,549,cs),
(135,630,o),
(174,663,o),
(231,667,cs),
(271,670,o),
(310,670,o),
(349,667,cs)
);
},
{
closed = 1;
nodes = (
(95,202,l),
(95,186,o),
(95,169,o),
(95,153,cs),
(96,44,o),
(161,-1,o),
(233,-5,cs),
(273,-7,o),
(308,-7,o),
(347,-5,cs),
(419,-1,o),
(484,44,o),
(485,153,cs),
(486,273,o),
(487,356,o),
(486,455,c),
(550,496,l),
(550,540,l),
(485,499,l),
(485,515,o),
(485,532,o),
(485,549,cs),
(483,661,o),
(420,701,o),
(347,705,cs),
(308,707,o),
(273,707,o),
(233,705,cs),
(160,701,o),
(97,661,o),
(95,549,cs),
(93,434,o),
(93,352,o),
(94,246,c),
(30,204,l),
(30,160,l)
);
},
{
closed = 1;
nodes = (
(449,431,l),
(450,343,o),
(449,266,o),
(447,163,cs),
(445,70,o),
(406,38,o),
(349,34,cs),
(310,31,o),
(271,31,o),
(231,34,cs),
(174,38,o),
(135,70,o),
(133,163,cs),
(133,185,o),
(133,206,o),
(133,226,c)
);
}
);
width = 580;
},
{
anchors = (
{
name = bottom;
pos = (290,0);
},
{
name = center;
pos = (290,350);
},
{
name = ogonek;
pos = (522,10);
},
{
name = top;
pos = (290,700);
},
{
name = topleft;
pos = (70,700);
},
{
name = topright;
pos = (560,700);
}
);
layerId = m003;
shapes = (
{
closed = 1;
nodes = (
(389,621,o),
(422,589,o),
(423,549,cs),
(423,534,o),
(423,509,o),
(424,478,c),
(156,306,l),
(156,400,o),
(156,509,o),
(157,549,cs),
(158,589,o),
(191,621,o),
(232,623,cs),
(252,624,o),
(329,624,o),
(348,623,cs)
);
},
{
closed = 1;
nodes = (
(75,169,l),
(75,164,o),
(75,158,o),
(75,153,cs),
(76,67,o),
(146,-1,o),
(232,-5,cs),
(252,-6,o),
(329,-6,o),
(348,-5,cs),
(434,-1,o),
(504,67,o),
(505,153,cs),
(506,199,o),
(506,343,o),
(506,447,c),
(550,476,l),
(550,560,l),
(505,531,l),
(505,537,o),
(505,543,o),
(505,549,cs),
(504,635,o),
(434,701,o),
(348,705,cs),
(329,706,o),
(252,706,o),
(232,705,cs),
(146,701,o),
(76,635,o),
(75,549,cs),
(75,450,o),
(75,352,o),
(75,253,c),
(30,224,l),
(30,140,l)
);
},
{
closed = 1;
nodes = (
(424,394,l),
(424,303,o),
(424,201,o),
(423,163,cs),
(422,113,o),
(389,81,o),
(348,79,cs),
(329,78,o),
(252,78,o),
(232,79,cs),
(191,81,o),
(158,113,o),
(157,163,cs),
(157,183,o),
(157,202,o),
(157,222,c)
);
}
);
width = 580;
}
);
unicode = 216;
},
{
color = 4;
glyphname = OE;
kernLeft = O;
kernRight = F;
lastChange = "2023-04-06 11:04:35 +0000";
layers = (
{
layerId = m01;
shapes = (
{
closed = 1;
nodes = (
(388,706,o),
(262,706,o),
(232,705,cs),
(131,704,o),
(56,631,o),
(55,549,cs),
(55,483,o),
(55,219,o),
(55,153,cs),
(56,71,o),
(131,-4,o),
(232,-5,cs),
(263,-5,o),
(388,-5,o),
(626,-5,c),
(626,121,l),
(438,121,l),
(438,301,l),
(579,301,l),
(579,421,l),
(438,421,l),
(438,581,l),
(616,581,l),
(616,705,l)
);
},
{
closed = 1;
nodes = (
(176,249,o),
(175,463,o),
(177,529,cs),
(178,565,o),
(205,582,o),
(233,583,cs),
(249,584,o),
(291,584,o),
(319,584,c),
(319,119,l),
(291,119,o),
(245,119,o),
(232,119,cs),
(205,120,o),
(178,137,o),
(177,183,cs)
);
}
);
width = 680;
},
{
layerId = m002;
shapes = (
{
closed = 1;
nodes = (
(477,702,o),
(289,701,o),
(252,701,cs),
(150,700,o),
(96,639,o),
(95,539,cs),
(93,373,o),
(93,339,o),
(95,163,cs),
(96,63,o),
(150,0,o),
(252,-1,cs),
(281,-1,o),
(464,-1,o),
(586,-1,c),
(586,37,l),
(395,37,l),
(395,343,l),
(539,343,l),
(539,379,l),
(395,379,l),
(395,663,l),
(576,663,l),
(576,701,l)
);
},
{
closed = 1;
nodes = (
(129,339,o),
(131,373,o),
(133,539,cs),
(134,623,o),
(185,660,o),
(241,663,cs),
(282,665,o),
(333,665,o),
(359,663,c),
(359,36,l),
(283,35,o),
(329,35,o),
(242,36,cs),
(185,37,o),
(135,79,o),
(133,173,cs)
);
}
);
width = 680;
},
{
layerId = m003;
shapes = (
{
closed = 1;
nodes = (
(373,706,o),
(270,706,o),
(232,705,cs),
(146,704,o),
(76,635,o),
(75,549,cs),
(75,483,o),
(75,219,o),
(75,153,cs),
(76,67,o),
(146,-4,o),
(232,-5,cs),
(262,-5,o),
(381,-5,o),
(606,-5,c),
(606,81,l),
(418,81,l),
(418,321,l),
(559,321,l),
(559,401,l),
(418,401,l),
(418,621,l),
(596,621,l),
(596,705,l)
);
},
{
closed = 1;
nodes = (
(156,229,o),
(156,483,o),
(157,549,cs),
(158,589,o),
(191,622,o),
(232,623,cs),
(249,624,o),
(323,624,o),
(339,623,c),
(339,79,l),
(323,79,o),
(249,79,o),
(232,79,cs),
(191,80,o),
(158,113,o),
(157,163,cs)
);
}
);
width = 680;
}
);
unicode = 338;
},
{
color = 4;
glyphname = P;
kernLeft = N;
kernRight = F;
lastChange = "2023-04-06 11:04:35 +0000";
layers = (
{
layerId = m01;
shapes = (
{
closed = 1;
nodes = (
(393,505,o),
(393,454,o),
(392,434,cs),
(391,387,o),
(354,380,o),
(327,380,cs),
(168,380,l),
(168,579,l),
(327,579,ls),
(354,579,o),
(391,571,o),
(392,525,cs)
);
},
{
closed = 1;
nodes = (
(46,700,l),
(46,0,l),
(168,0,l),
(168,258,l),
(337,258,ls),
(438,258,o),
(512,341,o),
(514,424,cs),
(515,444,o),
(515,525,o),
(514,545,cs),
(512,628,o),
(438,700,o),
(337,700,cs)
);
}
);
width = 560;
},
{
layerId = m002;
shapes = (
{
closed = 1;
nodes = (
(438,505,o),
(438,481,o),
(436,441,cs),
(432,364,o),
(394,326,o),
(287,326,cs),
(124,326,l),
(124,663,l),
(287,663,ls),
(394,663,o),
(432,621,o),
(436,545,cs)
);
},
{
closed = 1;
nodes = (
(86,700,l),
(86,0,l),
(124,0,l),
(124,288,l),
(287,288,ls),
(408,288,o),
(471,335,o),
(474,441,cs),
(475,481,o),
(475,505,o),
(474,545,cs),
(471,657,o),
(410,700,o),
(287,700,cs)
);
}
);
width = 560;
},
{
layerId = m003;
shapes = (
{
closed = 1;
nodes = (
(413,525,o),
(413,444,o),
(412,424,cs),
(411,383,o),
(378,350,o),
(337,350,c),
(148,350,l),
(148,619,l),
(337,619,l),
(378,619,o),
(411,585,o),
(412,545,cs)
);
},
{
closed = 1;
nodes = (
(66,700,l),
(66,0,l),
(148,0,l),
(148,268,l),
(337,268,l),
(424,268,o),
(492,338,o),
(494,424,cs),
(495,444,o),
(495,525,o),
(494,545,cs),
(492,631,o),
(424,700,o),
(337,700,c)
);
}
);
width = 560;
}
);
unicode = 80;
},
{
color = 4;
glyphname = Thorn;
kernLeft = N;
kernRight = O;
lastChange = "2023-04-06 11:04:35 +0000";
layers = (
{
layerId = m01;
shapes = (
{
closed = 1;
nodes = (
(393,395,o),
(393,334,o),
(392,314,cs),
(391,267,o),
(355,241,o),
(322,240,cs),
(271,239,o),
(219,239,o),
(168,240,c),
(168,489,l),
(219,490,o),
(271,490,o),
(322,489,cs),
(355,488,o),
(391,461,o),
(392,415,cs)
);
},
{
closed = 1;
nodes = (
(274,611,o),
(221,611,o),
(168,610,c),
(168,700,l),
(46,700,l),
(46,0,l),
(168,0,l),
(168,118,l),
(221,117,o),
(274,117,o),
(327,118,cs),
(437,120,o),
(512,221,o),
(514,304,cs),
(515,324,o),
(515,405,o),
(514,425,cs),
(512,508,o),
(437,608,o),
(327,610,cs)
);
}
);
width = 560;
},
{
layerId = m002;
shapes = (
{
closed = 1;
nodes = (
(458,375,o),
(458,351,o),
(456,311,cs),
(453,245,o),
(418,208,o),
(327,207,cs),
(256,206,o),
(185,206,o),
(114,207,c),
(114,522,l),
(185,523,o),
(256,523,o),
(327,522,cs),
(418,521,o),
(453,480,o),
(456,415,cs)
);
},
{
closed = 1;
nodes = (
(256,561,o),
(185,561,o),
(114,560,c),
(114,700,l),
(76,700,l),
(76,0,l),
(114,0,l),
(114,168,l),
(185,167,o),
(256,167,o),
(327,168,cs),
(434,170,o),
(492,220,o),
(494,311,cs),
(495,351,o),
(495,375,o),
(494,415,cs),
(492,506,o),
(429,559,o),
(327,560,cs)
);
}
);
width = 560;
},
{
layerId = m003;
shapes = (
{
closed = 1;
nodes = (
(413,405,o),
(413,324,o),
(412,304,cs),
(411,263,o),
(373,231,o),
(327,230,cs),
(267,229,o),
(208,229,o),
(148,230,c),
(148,499,l),
(208,500,o),
(267,500,o),
(327,499,cs),
(373,498,o),
(411,465,o),
(412,425,cs)
);
},
{
closed = 1;
nodes = (
(267,581,o),
(208,581,o),
(148,580,c),
(148,700,l),
(66,700,l),
(66,0,l),
(148,0,l),
(148,148,l),
(208,147,o),
(267,147,o),
(327,148,cs),
(424,150,o),
(492,218,o),
(494,304,cs),
(495,324,o),
(495,405,o),
(494,425,cs),
(492,511,o),
(424,578,o),
(327,580,cs)
);
}
);
width = 560;
}
);
unicode = 222;
},
{
color = 4;
glyphname = Q;
kernLeft = O;
kernRight = Q;
lastChange = "2023-04-06 11:04:35 +0000";
layers = (
{
layerId = m01;
shapes = (
{
closed = 1;
nodes = (
(444,289,l),
(313,289,l),
(382,158,l),
(382,135,o),
(364,123,o),
(332,119,cs),
(314,117,o),
(241,117,o),
(222,119,cs),
(196,122,o),
(168,142,o),
(167,183,cs),
(166,243,o),
(165,456,o),
(167,529,cs),
(168,565,o),
(195,580,o),
(222,583,cs),
(241,585,o),
(316,585,o),
(335,583,cs),
(363,580,o),
(391,565,o),
(391,529,cs),
(391,360,l),
(513,360,l),
(513,549,ls),
(513,631,o),
(439,699,o),
(337,705,cs),
(318,706,o),
(239,706,o),
(220,705,cs),
(119,699,o),
(46,631,o),
(45,549,cs),
(45,483,o),
(45,220,o),
(45,153,cs),
(46,71,o),
(118,1,o),
(220,-5,cs),
(239,-6,o),
(318,-6,o),
(337,-5,cs),
(382,-3,o),
(426,16,o),
(453,33,c),
(470,0,l),
(600,0,l)
);
}
);
width = 620;
},
{
layerId = m002;
shapes = (
{
closed = 1;
nodes = (
(390,289,l),
(350,289,l),
(446,104,l),
(422,65,o),
(390,38,o),
(334,34,cs),
(296,31,o),
(259,31,o),
(220,34,cs),
(162,38,o),
(125,82,o),
(123,163,cs),
(120,303,o),
(121,396,o),
(123,549,cs),
(124,633,o),
(163,663,o),
(220,667,cs),
(259,670,o),
(298,670,o),
(337,667,cs),
(393,663,o),
(435,633,o),
(435,549,cs),
(435,360,l),
(473,360,l),
(473,549,ls),
(473,646,o),
(419,701,o),
(335,705,cs),
(296,707,o),
(261,707,o),
(222,705,cs),
(130,700,o),
(86,646,o),
(85,549,cs),
(83,393,o),
(82,310,o),
(85,163,cs),
(87,46,o),
(150,-1,o),
(222,-5,cs),
(261,-7,o),
(296,-7,o),
(335,-5,cs),
(408,-1,o),
(443,38,o),
(466,71,c),
(506,0,l),
(546,0,l)
);
}
);
width = 600;
},
{
layerId = m003;
shapes = (
{
closed = 1;
nodes = (
(421,289,l),
(331,289,l),
(416,128,l),
(405,94,o),
(371,81,o),
(333,79,cs),
(315,78,o),
(240,78,o),
(221,79,cs),
(180,81,o),
(148,118,o),
(147,163,cs),
(146,223,o),
(146,476,o),
(147,549,cs),
(148,589,o),
(180,621,o),
(221,623,cs),
(240,624,o),
(317,624,o),
(336,623,cs),
(377,621,o),
(411,589,o),
(411,549,c),
(411,360,l),
(493,360,l),
(493,549,l),
(493,635,o),
(423,700,o),
(336,705,cs),
(317,706,o),
(240,706,o),
(221,705,cs),
(135,700,o),
(66,635,o),
(65,549,cs),
(65,483,o),
(65,220,o),
(65,153,cs),
(66,67,o),
(135,0,o),
(221,-5,cs),
(240,-6,o),
(317,-6,o),
(336,-5,cs),
(391,-2,o),
(443,28,o),
(459,55,c),
(488,0,l),
(577,0,l)
);
}
);
width = 600;
}
);
unicode = 81;
},
{
color = 4;
glyphname = R;
kernLeft = N;
kernRight = R;
lastChange = "2023-04-08 14:48:19 +0000";
layers = (
{
anchors = (
{
name = bottom;
pos = (290,0);
},
{
name = top;
pos = (260,700);
}
);
layerId = m01;
shapes = (
{
closed = 1;
nodes = (
(266,400,o),
(217,400,o),
(168,401,c),
(168,578,l),
(217,579,o),
(266,579,o),
(315,578,cs),
(346,577,o),
(372,557,o),
(374,520,cs),
(375,502,o),
(375,477,o),
(374,458,cs),
(372,421,o),
(346,402,o),
(315,401,cs)
);
},
{
closed = 1;
nodes = (
(535,10,l),
(527,16,o),
(488,108,o),
(475,201,cs),
(465,267,o),
(449,291,o),
(411,313,c),
(466,335,o),
(493,379,o),
(496,438,cs),
(497,458,o),
(497,531,o),
(496,550,cs),
(492,629,o),
(415,700,o),
(315,700,cs),
(46,700,l),
(46,0,l),
(168,0,l),
(168,278,l),
(271,278,ls),
(324,278,o),
(349,241,o),
(359,174,cs),
(374,79,o),
(392,43,o),
(414,0,c),
(535,0,l)
);
}
);
width = 560;
},
{
anchors = (
{
name = bottom;
pos = (290,0);
},
{
name = top;
pos = (250,700);
}
);
layerId = m002;
shapes = (
{
closed = 1;
nodes = (
(212,339,o),
(187,339,o),
(124,339,c),
(124,662,l),
(187,662,o),
(212,662,o),
(275,662,cs),
(369,662,o),
(416,633,o),
(418,555,cs),
(419,516,o),
(419,485,o),
(418,445,cs),
(416,364,o),
(369,339,o),
(275,339,cs)
);
},
{
closed = 1;
nodes = (
(500,10,l),
(473,43,o),
(446,133,o),
(432,201,cs),
(421,255,o),
(386,296,o),
(345,310,c),
(405,317,o),
(454,363,o),
(456,445,cs),
(457,483,o),
(457,518,o),
(456,555,cs),
(453,669,o),
(387,700,o),
(275,700,cs),
(86,700,l),
(86,0,l),
(124,0,l),
(124,300,l),
(271,300,ls),
(336,300,o),
(383,255,o),
(401,174,cs),
(422,79,o),
(446,26,o),
(465,0,c),
(500,0,l)
);
}
);
width = 540;
},
{
anchors = (
{
name = bottom;
pos = (290,0);
},
{
name = top;
pos = (250,700);
}
);
layerId = m003;
shapes = (
{
closed = 1;
nodes = (
(259,371,o),
(204,371,o),
(148,371,c),
(148,618,l),
(204,618,o),
(259,618,o),
(315,618,c),
(356,618,o),
(392,587,o),
(394,550,cs),
(395,532,o),
(395,457,o),
(394,438,cs),
(392,401,o),
(356,371,o),
(315,371,c)
);
},
{
closed = 1;
nodes = (
(505,12,l),
(489,34,o),
(466,123,o),
(455,201,cs),
(445,272,o),
(434,294,o),
(402,312,c),
(442,328,o),
(473,375,o),
(476,438,cs),
(477,457,o),
(477,532,o),
(476,550,cs),
(472,633,o),
(401,700,o),
(315,700,c),
(66,700,l),
(66,0,l),
(148,0,l),
(148,288,l),
(271,288,l),
(341,288,o),
(370,235,o),
(379,174,cs),
(395,73,o),
(407,29,o),
(422,0,c),
(505,0,l)
);
}
);
width = 540;
}
);
unicode = 82;
},
{
color = 4;
glyphname = S;
kernLeft = S;
kernRight = S;
lastChange = "2023-04-09 08:35:10 +0000";
layers = (
{
anchors = (
{
name = bottom;
pos = (280,0);
},
{
name = top;
pos = (280,700);
}
);
layerId = m01;
shapes = (
{
closed = 1;
nodes = (
(441,0,o),
(512,71,o),
(515,153,cs),
(516,170,o),
(516,225,o),
(515,241,cs),
(512,325,o),
(473,406,o),
(360,421,cs),
(312,428,o),
(268,434,o),
(214,445,cs),
(199,448,o),
(179,461,o),
(177,487,cs),
(176,498,o),
(176,528,o),
(177,539,cs),
(180,565,o),
(205,582,o),
(232,583,cs),
(249,584,o),
(313,584,o),
(329,583,cs),
(356,582,o),
(382,565,o),
(382,539,cs),
(382,510,l),
(506,510,l),
(506,549,ls),
(506,631,o),
(432,699,o),
(331,705,cs),
(315,706,o),
(247,706,o),
(230,705,cs),
(128,699,o),
(59,631,o),
(55,549,cs),
(55,537,o),
(55,489,o),
(55,477,cs),
(58,417,o),
(93,340,o),
(198,323,cs),
(246,315,o),
(290,308,o),
(345,298,cs),
(376,292,o),
(390,270,o),
(392,241,cs),
(393,227,o),
(393,188,o),
(392,173,cs),
(389,133,o),
(364,120,o),
(337,119,cs),
(318,118,o),
(243,118,o),
(223,119,cs),
(196,120,o),
(169,133,o),
(169,173,cs),
(169,197,l),
(45,197,l),
(45,153,ls),
(45,71,o),
(119,0,o),
(221,-5,cs),
(241,-6,o),
(320,-6,o),
(339,-5,cs)
);
}
);
width = 560;
},
{
anchors = (
{
name = bottom;
pos = (280,0);
},
{
name = top;
pos = (280,700);
}
);
layerId = m002;
shapes = (
{
closed = 1;
nodes = (
(419,0,o),
(470,49,o),
(475,153,cs),
(477,188,o),
(477,207,o),
(475,241,cs),
(469,324,o),
(429,354,o),
(356,372,cs),
(302,385,o),
(258,394,o),
(210,404,cs),
(173,412,o),
(138,435,o),
(133,487,cs),
(131,510,o),
(132,526,o),
(133,549,cs),
(137,615,o),
(153,662,o),
(230,667,cs),
(267,669,o),
(295,670,o),
(331,667,cs),
(398,662,o),
(430,625,o),
(430,549,cs),
(430,510,l),
(466,510,l),
(466,549,ls),
(466,656,o),
(412,701,o),
(329,705,cs),
(293,707,o),
(269,707,o),
(232,705,cs),
(140,701,o),
(98,646,o),
(95,549,cs),
(94,527,o),
(94,509,o),
(95,487,cs),
(99,413,o),
(142,377,o),
(208,365,cs),
(262,355,o),
(302,346,o),
(353,333,cs),
(404,320,o),
(433,292,o),
(436,241,cs),
(438,205,o),
(437,190,o),
(436,153,cs),
(434,72,o),
(396,40,o),
(339,35,cs),
(290,31,o),
(271,31,o),
(221,35,cs),
(164,40,o),
(124,72,o),
(124,153,cs),
(124,197,l),
(85,197,l),
(85,153,ls),
(85,49,o),
(140,0,o),
(223,-5,cs),
(273,-8,o),
(288,-8,o),
(337,-5,cs)
);
}
);
width = 560;
},
{
anchors = (
{
name = bottom;
pos = (280,0);
},
{
name = top;
pos = (280,700);
}
);
layerId = m003;
shapes = (
{
closed = 1;
nodes = (
(424,-1,o),
(492,67,o),
(495,153,cs),
(496,169,o),
(496,226,o),
(495,241,cs),
(492,329,o),
(455,378,o),
(357,391,cs),
(306,398,o),
(261,405,o),
(210,415,cs),
(181,421,o),
(159,447,o),
(157,477,cs),
(156,489,o),
(156,537,o),
(157,549,cs),
(160,589,o),
(190,621,o),
(231,623,cs),
(248,624,o),
(314,624,o),
(330,623,cs),
(371,621,o),
(402,589,o),
(402,549,c),
(402,510,l),
(486,510,l),
(486,549,l),
(486,635,o),
(416,700,o),
(330,705,cs),
(314,706,o),
(248,706,o),
(231,705,cs),
(145,700,o),
(79,635,o),
(75,549,cs),
(75,537,o),
(75,489,o),
(75,477,cs),
(78,405,o),
(120,346,o),
(201,333,cs),
(252,325,o),
(295,319,o),
(348,312,cs),
(393,306,o),
(410,276,o),
(412,241,cs),
(413,226,o),
(413,169,o),
(412,153,cs),
(409,113,o),
(379,81,o),
(338,79,cs),
(319,78,o),
(242,78,o),
(222,79,cs),
(181,81,o),
(149,113,o),
(149,153,c),
(149,197,l),
(65,197,l),
(65,153,l),
(65,67,o),
(135,-1,o),
(222,-5,cs),
(242,-6,o),
(319,-6,o),
(338,-5,cs)
);
}
);
width = 560;
}
);
unicode = 83;
},
{
color = 4;
glyphname = Scedilla;
kernLeft = S;
kernRight = S;
lastChange = "2023-04-06 11:04:35 +0000";
layers = (
{
anchors = (
{
name = bottom;
pos = (280,0);
},
{
name = top;
pos = (280,700);
}
);
layerId = m002;
shapes = (
{
closed = 1;
nodes = (
(419,0,o),
(470,49,o),
(475,153,cs),
(477,188,o),
(477,207,o),
(475,241,cs),
(469,324,o),
(429,354,o),
(356,372,cs),
(302,385,o),
(258,394,o),
(210,404,cs),
(173,412,o),
(138,435,o),
(133,487,cs),
(131,510,o),
(132,526,o),
(133,549,cs),
(137,615,o),
(153,662,o),
(230,667,cs),
(267,669,o),
(295,670,o),
(331,667,cs),
(398,662,o),
(430,625,o),
(430,549,cs),
(430,510,l),
(466,510,l),
(466,549,ls),
(466,656,o),
(412,701,o),
(329,705,cs),
(293,707,o),
(269,707,o),
(232,705,cs),
(140,701,o),
(98,646,o),
(95,549,cs),
(94,527,o),
(94,509,o),
(95,487,cs),
(99,413,o),
(142,377,o),
(208,365,cs),
(262,355,o),
(302,346,o),
(353,333,cs),
(404,320,o),
(433,292,o),
(436,241,cs),
(438,205,o),
(437,190,o),
(436,153,cs),
(434,72,o),
(396,40,o),
(339,35,cs),
(290,31,o),
(271,31,o),
(221,35,cs),
(164,40,o),
(124,72,o),
(124,153,cs),
(124,197,l),
(85,197,l),
(85,153,ls),
(85,49,o),
(140,-1,o),
(223,-6,cs),
(240,-7,o),
(252,-7,o),
(264,-7,c),
(234,-120,l),
(280,-120,l),
(301,-7,l),
(311,-7,o),
(323,-7,o),
(337,-6,cs)
);
}
);
width = 560;
},
{
anchors = (
{
name = bottom;
pos = (280,0);
},
{
name = top;
pos = (280,700);
}
);
layerId = m003;
shapes = (
{
closed = 1;
nodes = (
(424,-5,o),
(492,67,o),
(495,153,cs),
(496,169,o),
(496,226,o),
(495,241,cs),
(492,329,o),
(455,378,o),
(357,391,cs),
(306,398,o),
(261,405,o),
(210,415,cs),
(181,421,o),
(159,447,o),
(157,477,cs),
(156,489,o),
(156,537,o),
(157,549,cs),
(160,589,o),
(190,621,o),
(231,623,cs),
(248,624,o),
(314,624,o),
(330,623,cs),
(371,621,o),
(402,589,o),
(402,549,cs),
(402,510,l),
(486,510,l),
(486,549,ls),
(486,635,o),
(416,700,o),
(330,705,cs),
(314,706,o),
(248,706,o),
(231,705,cs),
(145,700,o),
(75,635,o),
(75,549,cs),
(75,525,o),
(75,501,o),
(75,477,cs),
(75,405,o),
(120,346,o),
(201,333,cs),
(252,325,o),
(295,319,o),
(348,312,cs),
(393,306,o),
(410,276,o),
(412,241,cs),
(413,226,o),
(413,169,o),
(412,153,cs),
(409,113,o),
(379,81,o),
(338,79,cs),
(319,78,o),
(242,78,o),
(222,79,cs),
(181,81,o),
(149,113,o),
(149,153,cs),
(149,197,l),
(65,197,l),
(65,153,ls),
(65,67,o),
(135,-2,o),
(222,-6,cs),
(227,-6,o),
(234,-6,o),
(244,-6,c),
(214,-120,l),
(300,-120,l),
(330,-5,l),
(333,-5,o),
(335,-5,o),
(338,-5,cs)
);
}
);
width = 560;
},
{
anchors = (
{
name = bottom;
pos = (280,0);
},
{
name = top;
pos = (280,700);
}
);
layerId = m01;
shapes = (
{
closed = 1;
nodes = (
(450,-3,o),
(512,76,o),
(515,153,cs),
(516,170,o),
(516,225,o),
(515,241,cs),
(512,325,o),
(473,406,o),
(360,421,cs),
(312,428,o),
(268,434,o),
(214,445,cs),
(199,448,o),
(179,461,o),
(177,487,cs),
(176,498,o),
(176,528,o),
(177,539,cs),
(180,565,o),
(205,582,o),
(232,583,cs),
(249,584,o),
(313,584,o),
(329,583,cs),
(356,582,o),
(382,565,o),
(382,539,cs),
(382,510,l),
(506,510,l),
(506,549,ls),
(506,631,o),
(432,699,o),
(331,705,cs),
(315,706,o),
(247,706,o),
(230,705,cs),
(128,699,o),
(55,631,o),
(55,549,cs),
(55,525,o),
(55,501,o),
(55,477,cs),
(55,417,o),
(93,340,o),
(198,323,cs),
(246,315,o),
(290,308,o),
(345,298,cs),
(376,292,o),
(390,270,o),
(392,241,cs),
(393,227,o),
(393,188,o),
(392,173,cs),
(389,133,o),
(364,120,o),
(337,119,cs),
(318,118,o),
(243,118,o),
(223,119,cs),
(196,120,o),
(169,133,o),
(169,173,cs),
(169,197,l),
(45,197,l),
(45,153,ls),
(45,71,o),
(119,-5,o),
(221,-5,cs),
(224,-5,o),
(227,-5,o),
(230,-5,c),
(200,-120,l),
(326,-120,l),
(353,-3,l),
(354,-3,o),
(355,-3,o),
(356,-3,cs)
);
}
);
width = 560;
}
);
unicode = 350;
},
{
color = 4;
glyphname = Germandbls;
kernLeft = O;
kernRight = S;
lastChange = "2023-04-06 11:04:35 +0000";
layers = (
{
layerId = m01;
shapes = (
{
closed = 1;
nodes = (
(452,706,o),
(298,706,o),
(239,705,cs),
(115,704,o),
(44,625,o),
(44,528,cs),
(44,0,l),
(162,0,l),
(162,495,ls),
(162,568,o),
(196,597,o),
(248,599,cs),
(353,599,l),
(226,467,l),
(226,378,l),
(339,378,ls),
(365,378,o),
(390,362,o),
(391,324,cs),
(392,301,o),
(392,194,o),
(391,171,cs),
(390,135,o),
(364,119,o),
(339,118,cs),
(226,118,l),
(226,-5,l),
(341,-5,ls),
(442,-5,o),
(513,69,o),
(515,151,cs),
(516,174,o),
(516,321,o),
(515,344,cs),
(513,415,o),
(471,475,o),
(400,494,c),
(511,615,l),
(511,704,l)
);
}
);
width = 560;
},
{
layerId = m002;
shapes = (
{
closed = 1;
nodes = (
(408,705,o),
(308,705,o),
(259,705,cs),
(159,705,o),
(84,657,o),
(84,528,cs),
(84,0,l),
(120,0,l),
(120,515,ls),
(120,624,o),
(166,669,o),
(257,669,cs),
(425,669,l),
(249,468,l),
(249,448,l),
(311,448,ls),
(404,448,o),
(436,413,o),
(439,334,cs),
(442,251,o),
(442,244,o),
(439,151,cs),
(436,68,o),
(396,31,o),
(329,31,cs),
(216,31,l),
(216,-5,l),
(329,-5,ls),
(411,-5,o),
(472,37,o),
(475,151,cs),
(477,244,o),
(477,251,o),
(475,334,cs),
(472,451,o),
(415,484,o),
(310,484,c),
(471,674,l),
(471,705,l)
);
}
);
width = 560;
},
{
layerId = m003;
shapes = (
{
closed = 1;
nodes = (
(437,706,o),
(293,706,o),
(239,705,cs),
(125,704,o),
(64,622,o),
(64,528,cs),
(64,0,l),
(142,0,l),
(142,515,ls),
(142,592,o),
(184,621,o),
(247,623,cs),
(350,623,l),
(229,472,l),
(229,418,l),
(339,418,ls),
(379,418,o),
(410,386,o),
(411,344,cs),
(412,321,o),
(412,174,o),
(411,151,cs),
(410,111,o),
(379,79,o),
(339,78,cs),
(196,78,l),
(196,-5,l),
(339,-5,ls),
(425,-5,o),
(493,65,o),
(495,151,cs),
(496,174,o),
(496,321,o),
(495,344,cs),
(493,430,o),
(439,498,o),
(355,500,c),
(491,680,l),
(491,705,l)
);
}
);
width = 560;
}
);
unicode = 7838;
},
{
color = 4;
glyphname = T;
kernLeft = T;
kernRight = T;
lastChange = "2023-04-09 07:57:03 +0000";
layers = (
{
anchors = (
{
name = bottom;
pos = (270,-10);
},
{
name = center;
pos = (270,350);
},
{
name = top;
pos = (270,700);
}
);
layerId = m01;
shapes = (
{
closed = 1;
nodes = (
(36,700,l),
(36,578,l),
(208,578,l),
(208,0,l),
(332,0,l),
(332,578,l),
(504,578,l),
(504,700,l)
);
}
);
width = 540;
},
{
anchors = (
{
name = bottom;
pos = (270,-10);
},
{
name = center;
pos = (270,350);
},
{
name = top;
pos = (270,700);
}
);
layerId = m002;
shapes = (
{
closed = 1;
nodes = (
(76,700,l),
(76,664,l),
(251,664,l),
(251,0,l),
(289,0,l),
(289,664,l),
(464,664,l),
(464,700,l)
);
}
);
width = 540;
},
{
anchors = (
{
name = bottom;
pos = (270,-10);
},
{
name = center;
pos = (270,350);
},
{
name = top;
pos = (270,700);
}
);
layerId = m003;
shapes = (
{
closed = 1;
nodes = (
(56,700,l),
(56,618,l),
(228,618,l),
(228,0,l),
(312,0,l),
(312,618,l),
(484,618,l),
(484,700,l)
);
}
);
width = 540;
}
);
unicode = 84;
},
{
color = 4;
glyphname = Tcedilla;
kernLeft = T;
kernRight = T;
lastChange = "2023-04-06 13:05:54 +0000";
layers = (
{
anchors = (
{
name = bottom;
pos = (270,-10);
},
{
name = center;
pos = (270,350);
},
{
name = top;
pos = (270,700);
}
);
layerId = m002;
shapes = (
{
closed = 1;
nodes = (
(76,700,l),
(76,664,l),
(251,664,l),
(251,0,l),
(224,-130,l),
(270,-130,l),
(289,0,l),
(289,664,l),
(464,664,l),
(464,700,l)
);
}
);
width = 540;
},
{
anchors = (
{
name = bottom;
pos = (270,-10);
},
{
name = center;
pos = (270,350);
},
{
name = top;
pos = (270,700);
}
);
layerId = m003;
shapes = (
{
closed = 1;
nodes = (
(56,700,l),
(56,618,l),
(228,618,l),
(228,0,l),
(204,-130,l),
(290,-130,l),
(312,0,l),
(312,618,l),
(484,618,l),
(484,700,l)
);
}
);
width = 540;
},
{
anchors = (
{
name = bottom;
pos = (270,-10);
},
{
name = center;
pos = (270,350);
},
{
name = top;
pos = (270,700);
}
);
layerId = m01;
shapes = (
{
closed = 1;
nodes = (
(36,700,l),
(36,578,l),
(208,578,l),
(208,0,l),
(180,-130,l),
(306,-130,l),
(332,0,l),
(332,578,l),
(504,578,l),
(504,700,l)
);
}
);
width = 540;
}
);
unicode = 354;
},
{
color = 4;
glyphname = U;
kernLeft = O;
kernRight = O;
lastChange = "2023-04-08 15:22:01 +0000";
layers = (
{
anchors = (
{
name = bottom;
pos = (280,0);
},
{
name = ogonek;
pos = (302,0);
},
{
name = top;
pos = (280,700);
},
{
name = topright;
pos = (540,700);
}
);
layerId = m01;
shapes = (
{
closed = 1;
nodes = (
(441,1,o),
(513,79,o),
(514,163,cs),
(515,242,o),
(515,621,o),
(514,700,c),
(392,700,l),
(393,631,o),
(393,262,o),
(392,193,cs),
(391,137,o),
(364,120,o),
(335,119,cs),
(316,118,o),
(242,118,o),
(223,119,cs),
(195,120,o),
(169,137,o),
(168,193,cs),
(167,262,o),
(167,631,o),
(168,700,c),
(46,700,l),
(45,621,o),
(45,242,o),
(46,163,cs),
(47,79,o),
(119,1,o),
(221,-5,cs),
(240,-6,o),
(318,-6,o),
(337,-5,cs)
);
}
);
width = 560;
},
{
anchors = (
{
name = bottom;
pos = (280,0);
},
{
name = ogonek;
pos = (335,0);
},
{
name = top;
pos = (280,700);
},
{
name = topright;
pos = (540,700);
}
);
layerId = m002;
shapes = (
{
closed = 1;
nodes = (
(419,-1,o),
(472,59,o),
(474,183,cs),
(475,255,o),
(475,628,o),
(474,700,c),
(437,700,l),
(438,628,o),
(438,255,o),
(437,183,cs),
(436,79,o),
(394,36,o),
(337,33,cs),
(298,31,o),
(260,31,o),
(221,33,cs),
(165,36,o),
(124,76,o),
(123,183,cs),
(122,255,o),
(122,628,o),
(123,700,c),
(86,700,l),
(85,628,o),
(85,255,o),
(86,183,cs),
(88,59,o),
(141,-1,o),
(223,-5,cs),
(262,-7,o),
(296,-7,o),
(335,-5,cs)
);
}
);
width = 560;
},
{
anchors = (
{
name = bottom;
pos = (280,0);
},
{
name = ogonek;
pos = (321,0);
},
{
name = top;
pos = (280,700);
},
{
name = topright;
pos = (540,700);
}
);
layerId = m003;
shapes = (
{
closed = 1;
nodes = (
(424,0,o),
(493,75,o),
(494,163,cs),
(495,242,o),
(495,621,o),
(494,700,c),
(412,700,l),
(413,624,o),
(413,249,o),
(412,173,cs),
(411,113,o),
(378,81,o),
(336,79,cs),
(317,78,o),
(241,78,o),
(222,79,cs),
(180,81,o),
(149,113,o),
(148,173,cs),
(147,249,o),
(147,624,o),
(148,700,c),
(66,700,l),
(65,621,o),
(65,242,o),
(66,163,cs),
(67,75,o),
(136,0,o),
(222,-5,cs),
(241,-6,o),
(317,-6,o),
(336,-5,cs)
);
}
);
width = 560;
}
);
unicode = 85;
},
{
color = 4;
glyphname = Uogonek;
kernLeft = O;
kernRight = O;
lastChange = "2023-04-06 11:04:35 +0000";
layers = (
{
anchors = (
{
name = bottom;
pos = (280,0);
},
{
name = ogonek;
pos = (335,0);
},
{
name = top;
pos = (280,700);
},
{
name = topright;
pos = (540,700);
}
);
layerId = m002;
shapes = (
{
closed = 1;
nodes = (
(419,-1,o),
(472,59,o),
(474,183,cs),
(475,255,o),
(475,628,o),
(474,700,c),
(437,700,l),
(438,628,o),
(438,255,o),
(437,183,cs),
(436,79,o),
(394,36,o),
(337,33,cs),
(298,31,o),
(260,31,o),
(221,33,cs),
(165,36,o),
(124,76,o),
(123,183,cs),
(122,255,o),
(122,628,o),
(123,700,c),
(86,700,l),
(85,628,o),
(85,255,o),
(86,183,cs),
(88,59,o),
(141,-1,o),
(223,-5,cs),
(238,-6,o),
(251,-6,o),
(265,-6,c),
(233,-120,l),
(333,-120,l),
(333,-86,l),
(275,-86,l),
(301,-6,l),
(312,-6,o),
(323,-6,o),
(335,-5,cs)
);
}
);
width = 560;
},
{
anchors = (
{
name = bottom;
pos = (280,0);
},
{
name = ogonek;
pos = (321,0);
},
{
name = top;
pos = (280,700);
},
{
name = topright;
pos = (540,700);
}
);
layerId = m003;
shapes = (
{
closed = 1;
nodes = (
(424,0,o),
(493,75,o),
(494,163,cs),
(495,242,o),
(495,621,o),
(494,700,c),
(412,700,l),
(413,624,o),
(413,249,o),
(412,173,cs),
(411,113,o),
(378,81,o),
(336,79,cs),
(317,78,o),
(241,78,o),
(222,79,cs),
(180,81,o),
(149,113,o),
(148,173,cs),
(147,249,o),
(147,624,o),
(148,700,c),
(66,700,l),
(65,621,o),
(65,242,o),
(66,163,cs),
(67,75,o),
(136,0,o),
(222,-5,cs),
(227,-5,o),
(231,-5,o),
(236,-5,c),
(204,-120,l),
(354,-120,l),
(354,-70,l),
(300,-70,l),
(323,-5,l),
(327,-5,o),
(332,-5,o),
(336,-5,cs)
);
}
);
width = 560;
},
{
anchors = (
{
name = bottom;
pos = (280,0);
},
{
name = ogonek;
pos = (302,0);
},
{
name = top;
pos = (280,700);
},
{
name = topright;
pos = (540,700);
}
);
layerId = m01;
shapes = (
{
closed = 1;
nodes = (
(450,0,o),
(513,84,o),
(514,163,cs),
(515,242,o),
(515,621,o),
(514,700,c),
(392,700,l),
(393,631,o),
(393,262,o),
(392,193,cs),
(391,137,o),
(364,120,o),
(335,119,cs),
(316,118,o),
(242,118,o),
(223,119,cs),
(195,120,o),
(169,137,o),
(168,193,cs),
(167,262,o),
(167,631,o),
(168,700,c),
(46,700,l),
(45,621,o),
(45,242,o),
(46,163,cs),
(47,79,o),
(119,-2,o),
(221,-5,cs),
(223,-5,o),
(226,-5,o),
(228,-5,c),
(195,-120,l),
(395,-120,l),
(395,-43,l),
(336,-43,l),
(348,-3,l),
(350,-3,o),
(351,-3,o),
(353,-3,cs)
);
}
);
width = 560;
}
);
unicode = 370;
},
{
color = 4;
glyphname = V;
kernLeft = V;
kernRight = V;
lastChange = "2023-04-06 11:04:35 +0000";
layers = (
{
layerId = m01;
shapes = (
{
closed = 1;
nodes = (
(451,700,l),
(281,168,l),
(319,168,l),
(149,700,l),
(23,700,l),
(247,0,l),
(353,0,l),
(577,700,l)
);
}
);
width = 600;
},
{
layerId = m002;
shapes = (
{
closed = 1;
nodes = (
(498,700,l),
(285,31,l),
(315,31,l),
(102,700,l),
(65,700,l),
(289,0,l),
(311,0,l),
(535,700,l)
);
}
);
width = 600;
},
{
layerId = m003;
shapes = (
{
closed = 1;
nodes = (
(470,700,l),
(286,125,l),
(314,125,l),
(130,700,l),
(42,700,l),
(266,0,l),
(334,0,l),
(558,700,l)
);
}
);
width = 600;
}
);
unicode = 86;
},
{
color = 4;
glyphname = W;
kernLeft = W;
kernRight = W;
lastChange = "2023-04-08 14:54:53 +0000";
layers = (
{
anchors = (
{
name = bottom;
pos = (410,0);
},
{
name = top;
pos = (410,700);
}
);
layerId = m01;
shapes = (
{
closed = 1;
nodes = (
(675,700,l),
(540,173,l),
(578,173,l),
(489,515,l),
(329,515,l),
(241,173,l),
(279,173,l),
(145,700,l),
(19,700,l),
(202,0,l),
(316,0,l),
(429,441,l),
(391,441,l),
(504,0,l),
(618,0,l),
(801,700,l)
);
}
);
width = 820;
},
{
anchors = (
{
name = bottom;
pos = (410,0);
},
{
name = top;
pos = (410,700);
}
);
layerId = m002;
shapes = (
{
closed = 1;
nodes = (
(718,700,l),
(550,43,l),
(564,43,l),
(436,515,l),
(382,515,l),
(256,43,l),
(269,43,l),
(102,700,l),
(61,700,l),
(244,0,l),
(278,0,l),
(413,503,l),
(405,503,l),
(542,0,l),
(576,0,l),
(759,700,l)
);
}
);
width = 820;
},
{
anchors = (
{
name = bottom;
pos = (410,0);
},
{
name = top;
pos = (410,700);
}
);
layerId = m003;
shapes = (
{
closed = 1;
nodes = (
(694,700,l),
(548,129,l),
(570,129,l),
(470,515,l),
(348,515,l),
(249,129,l),
(271,129,l),
(126,700,l),
(38,700,l),
(221,0,l),
(297,0,l),
(421,485,l),
(399,485,l),
(523,0,l),
(599,0,l),
(782,700,l)
);
}
);
width = 820;
}
);
unicode = 87;
},
{
color = 4;
glyphname = X;
kernLeft = X;
kernRight = X;
lastChange = "2023-04-06 11:04:35 +0000";
layers = (
{
layerId = m01;
shapes = (
{
closed = 1;
nodes = (
(434,700,l),
(261,395,l),
(339,395,l),
(167,700,l),
(38,700,l),
(233,355,l),
(37,0,l),
(168,0,l),
(332,302,l),
(268,302,l),
(433,0,l),
(563,0,l),
(368,355,l),
(562,700,l)
);
}
);
width = 600;
},
{
layerId = m002;
shapes = (
{
closed = 1;
nodes = (
(473,700,l),
(288,365,l),
(311,365,l),
(127,700,l),
(85,700,l),
(281,355,l),
(84,0,l),
(127,0,l),
(315,346,l),
(285,346,l),
(474,0,l),
(517,0,l),
(320,355,l),
(515,700,l)
);
}
);
width = 600;
},
{
layerId = m003;
shapes = (
{
closed = 1;
nodes = (
(451,700,l),
(278,395,l),
(322,395,l),
(150,700,l),
(55,700,l),
(250,355,l),
(55,0,l),
(150,0,l),
(314,302,l),
(286,302,l),
(451,0,l),
(545,0,l),
(351,355,l),
(545,700,l)
);
}
);
width = 600;
}
);
unicode = 88;
},
{
color = 4;
glyphname = Y;
kernLeft = Y;
kernRight = Y;
lastChange = "2023-04-09 08:00:42 +0000";
layers = (
{
anchors = (
{
name = bottom;
pos = (305,0);
},
{
name = top;
pos = (305,700);
},
{
name = topleft;
pos = (15,700);
}
);
layerId = m01;
shapes = (
{
closed = 1;
nodes = (
(454,700,l),
(305,402,l),
(156,700,l),
(29,700,l),
(243,281,l),
(243,0,l),
(367,0,l),
(367,281,l),
(581,700,l)
);
}
);
width = 610;
},
{
anchors = (
{
name = bottom;
pos = (305,0);
},
{
name = top;
pos = (305,700);
},
{
name = topleft;
pos = (35,700);
}
);
layerId = m002;
shapes = (
{
closed = 1;
nodes = (
(502,700,l),
(305,304,l),
(108,700,l),
(66,700,l),
(286,265,l),
(286,0,l),
(324,0,l),
(324,265,l),
(544,700,l)
);
}
);
width = 610;
},
{
anchors = (
{
name = bottom;
pos = (305,0);
},
{
name = top;
pos = (305,700);
},
{
name = topleft;
pos = (25,700);
}
);
layerId = m003;
shapes = (
{
closed = 1;
nodes = (
(472,700,l),
(305,366,l),
(138,700,l),
(47,700,l),
(263,277,l),
(263,0,l),
(347,0,l),
(347,277,l),
(563,700,l)
);
}
);
width = 610;
}
);
unicode = 89;
},
{
color = 4;
glyphname = Z;
kernLeft = Z;
kernRight = Z;
lastChange = "2023-04-09 08:41:30 +0000";
layers = (
{
anchors = (
{
name = bottom;
pos = (300,0);
},
{
name = center;
pos = (300,350);
},
{
name = top;
pos = (300,700);
}
);
layerId = m01;
shapes = (
{
closed = 1;
nodes = (
(66,700,l),
(66,578,l),
(456,578,l),
(419,656,l),
(66,90,l),
(66,0,l),
(534,0,l),
(534,122,l),
(144,122,l),
(181,44,l),
(534,611,l),
(534,700,l)
);
}
);
width = 600;
},
{
anchors = (
{
name = bottom;
pos = (300,0);
},
{
name = center;
pos = (300,350);
},
{
name = top;
pos = (300,700);
}
);
layerId = m002;
shapes = (
{
closed = 1;
nodes = (
(106,700,l),
(106,662,l),
(485,662,l),
(469,679,l),
(106,50,l),
(106,0,l),
(494,0,l),
(494,38,l),
(115,38,l),
(131,20,l),
(494,651,l),
(494,700,l)
);
}
);
width = 600;
},
{
anchors = (
{
name = bottom;
pos = (300,0);
},
{
name = center;
pos = (300,350);
},
{
name = top;
pos = (300,700);
}
);
layerId = m003;
shapes = (
{
closed = 1;
nodes = (
(86,700,l),
(86,618,l),
(473,618,l),
(453,656,l),
(86,95,l),
(86,0,l),
(514,0,l),
(514,82,l),
(127,82,l),
(147,44,l),
(514,606,l),
(514,700,l)
);
}
);
width = 600;
}
);
unicode = 90;
},
{
color = 4;
glyphname = I.ss01;
kernLeft = I;
kernRight = I;
lastChange = "2023-04-06 11:04:35 +0000";
layers = (
{
anchors = (
{
name = bottom;
pos = (105,0);
},
{
name = ogonek;
pos = (105,0);
},
{
name = top;
pos = (105,700);
},
{
name = topleft;
pos = (-65,700);
}
);
layerId = m01;
shapes = (
{
closed = 1;
nodes = (
(43,700,l),
(43,0,l),
(167,0,l),
(167,700,l)
);
}
);
width = 210;
},
{
anchors = (
{
name = bottom;
pos = (105,0);
},
{
name = ogonek;
pos = (105,0);
},
{
name = top;
pos = (105,700);
},
{
name = topleft;
pos = (-65,700);
}
);
layerId = m002;
shapes = (
{
closed = 1;
nodes = (
(86,700,l),
(86,0,l),
(124,0,l),
(124,700,l)
);
}
);
width = 210;
},
{
anchors = (
{
name = bottom;
pos = (105,0);
},
{
name = ogonek;
pos = (105,0);
},
{
name = top;
pos = (105,700);
},
{
name = topleft;
pos = (-65,700);
}
);
layerId = m003;
shapes = (
{
closed = 1;
nodes = (
(63,700,l),
(63,0,l),
(147,0,l),
(147,700,l)
);
}
);
width = 210;
}
);
},
{
color = 4;
glyphname = IJ.ss01;
kernLeft = I;
kernRight = O;
lastChange = "2023-04-06 11:04:35 +0000";
layers = (
{
anchors = (
{
name = bottom;
pos = (387,0);
},
{
name = ogonek;
pos = (262,10);
},
{
name = top;
pos = (532,700);
},
{
name = topleft;
pos = (-60,700);
}
);
layerId = m01;
shapes = (
{
closed = 1;
nodes = (
(47,700,l),
(47,0,l),
(167,0,l),
(167,700,l)
);
},
{
closed = 1;
nodes = (
(219,0,l),
(293,0,o),
(283,0,o),
(347,0,cs),
(449,0,o),
(533,47,o),
(533,193,cs),
(533,700,l),
(411,700,l),
(411,203,ls),
(411,144,o),
(379,124,o),
(347,124,cs),
(274,124,o),
(337,124,o),
(219,124,c)
);
}
);
width = 580;
},
{
anchors = (
{
name = bottom;
pos = (387,0);
},
{
name = ogonek;
pos = (262,10);
},
{
name = top;
pos = (532,700);
},
{
name = topleft;
pos = (-60,700);
}
);
layerId = m002;
shapes = (
{
closed = 1;
nodes = (
(88,700,l),
(88,0,l),
(126,0,l),
(126,700,l)
);
},
{
closed = 1;
nodes = (
(199,0,l),
(246,0,o),
(276,0,o),
(327,0,cs),
(438,0,o),
(493,49,o),
(493,193,cs),
(493,700,l),
(455,700,l),
(455,193,ls),
(455,72,o),
(405,42,o),
(327,40,cs),
(281,39,o),
(247,39,o),
(199,40,c)
);
}
);
width = 580;
},
{
anchors = (
{
name = bottom;
pos = (387,0);
},
{
name = ogonek;
pos = (262,10);
},
{
name = top;
pos = (532,700);
},
{
name = topleft;
pos = (-60,700);
}
);
layerId = m003;
shapes = (
{
closed = 1;
nodes = (
(67,700,l),
(67,0,l),
(147,0,l),
(147,700,l)
);
},
{
closed = 1;
nodes = (
(199,0,l),
(259,0,o),
(289,0,o),
(347,0,cs),
(453,0,o),
(513,65,o),
(513,193,c),
(513,700,l),
(431,700,l),
(431,193,l),
(431,120,o),
(394,85,o),
(347,84,cs),
(316,84,o),
(228,84,o),
(199,84,c)
);
}
);
width = 580;
}
);
},
{
color = 4;
glyphname = Iogonek.ss01;
kernLeft = I;
kernRight = I;
lastChange = "2023-04-06 11:04:35 +0000";
layers = (
{
anchors = (
{
name = bottom;
pos = (105,0);
},
{
name = ogonek;
pos = (105,0);
},
{
name = top;
pos = (105,700);
},
{
name = topleft;
pos = (-65,700);
}
);
layerId = m002;
shapes = (
{
closed = 1;
nodes = (
(86,700,l),
(86,0,l),
(53,-120,l),
(153,-120,l),
(153,-86,l),
(95,-86,l),
(124,0,l),
(124,700,l)
);
}
);
width = 210;
},
{
anchors = (
{
name = bottom;
pos = (105,0);
},
{
name = ogonek;
pos = (105,0);
},
{
name = top;
pos = (105,700);
},
{
name = topleft;
pos = (-65,700);
}
);
layerId = m003;
shapes = (
{
closed = 1;
nodes = (
(63,700,l),
(63,0,l),
(28,-120,l),
(178,-120,l),
(178,-70,l),
(124,-70,l),
(147,0,l),
(147,700,l)
);
}
);
width = 210;
},
{
anchors = (
{
name = bottom;
pos = (105,0);
},
{
name = ogonek;
pos = (105,0);
},
{
name = top;
pos = (105,700);
},
{
name = topleft;
pos = (-65,700);
}
);
layerId = m01;
shapes = (
{
closed = 1;
nodes = (
(43,700,l),
(43,0,l),
(8,-120,l),
(208,-120,l),
(208,-43,l),
(149,-43,l),
(167,0,l),
(167,700,l)
);
}
);
width = 210;
}
);
},
{
color = 4;
glyphname = J.ss01;
kernLeft = O;
kernRight = O;
lastChange = "2023-04-06 11:04:35 +0000";
layers = (
{
anchors = (
{
name = bottom;
pos = (260,0);
},
{
name = top;
pos = (405,700);
}
);
layerId = m01;
shapes = (
{
closed = 1;
nodes = (
(394,-1,o),
(468,71,o),
(468,153,cs),
(468,700,l),
(346,700,l),
(346,163,ls),
(346,127,o),
(319,121,o),
(292,119,cs),
(280,118,o),
(231,118,o),
(218,119,cs),
(193,121,o),
(166,127,o),
(166,163,cs),
(166,192,l),
(42,192,l),
(42,153,ls),
(42,71,o),
(116,-1,o),
(218,-5,cs),
(231,-5,o),
(280,-5,o),
(292,-5,cs)
);
}
);
width = 520;
},
{
anchors = (
{
name = bottom;
pos = (260,0);
},
{
name = top;
pos = (405,700);
}
);
layerId = m002;
shapes = (
{
closed = 1;
nodes = (
(363,-2,o),
(428,51,o),
(428,153,cs),
(428,700,l),
(390,700,l),
(390,153,ls),
(390,73,o),
(351,37,o),
(292,33,cs),
(260,31,o),
(251,31,o),
(218,33,cs),
(161,36,o),
(122,77,o),
(122,153,cs),
(122,192,l),
(82,192,l),
(82,153,ls),
(82,51,o),
(147,-2,o),
(218,-5,cs),
(241,-6,o),
(270,-6,o),
(292,-5,cs)
);
}
);
width = 520;
},
{
anchors = (
{
name = bottom;
pos = (260,0);
},
{
name = top;
pos = (405,700);
}
);
layerId = m003;
shapes = (
{
closed = 1;
nodes = (
(378,-2,o),
(448,67,o),
(448,153,c),
(448,700,l),
(366,700,l),
(366,153,l),
(366,113,o),
(334,81,o),
(292,79,cs),
(280,79,o),
(231,79,o),
(218,79,cs),
(178,81,o),
(146,113,o),
(146,153,c),
(146,192,l),
(62,192,l),
(62,153,l),
(62,67,o),
(132,-2,o),
(218,-5,cs),
(231,-5,o),
(280,-5,o),
(292,-5,cs)
);
}
);
width = 520;
}
);
},
{
color = 4;
glyphname = Q.ss01;
kernLeft = O;
kernRight = O;
lastChange = "2023-04-06 11:04:35 +0000";
layers = (
{
layerId = m01;
shapes = (
{
closed = 1;
nodes = (
(376,580,o),
(404,565,o),
(405,529,cs),
(407,463,o),
(407,239,o),
(405,173,cs),
(404,137,o),
(376,121,o),
(349,119,cs),
(324,117,o),
(256,117,o),
(231,119,cs),
(204,121,o),
(176,137,o),
(175,173,cs),
(173,256,o),
(173,446,o),
(175,529,cs),
(176,565,o),
(204,580,o),
(231,583,cs),
(251,585,o),
(329,585,o),
(349,583,cs)
);
},
{
closed = 1;
nodes = (
(54,81,o),
(111,17,o),
(194,0,c),
(312,-150,l),
(441,-150,l),
(324,-6,l),
(335,-5,o),
(345,-5,o),
(351,-5,cs),
(452,0,o),
(526,71,o),
(527,153,cs),
(528,219,o),
(528,483,o),
(527,549,cs),
(526,631,o),
(452,700,o),
(351,705,cs),
(333,706,o),
(249,706,o),
(229,705,cs),
(128,700,o),
(54,631,o),
(53,549,cs),
(53,153,ls)
);
}
);
width = 580;
},
{
layerId = m002;
shapes = (
{
closed = 1;
nodes = (
(408,663,o),
(448,625,o),
(449,549,cs),
(450,483,o),
(450,219,o),
(449,153,cs),
(448,77,o),
(408,38,o),
(351,34,cs),
(312,31,o),
(269,32,o),
(229,35,cs),
(172,39,o),
(132,77,o),
(131,153,cs),
(130,219,o),
(130,483,o),
(131,549,cs),
(132,625,o),
(172,663,o),
(229,667,cs),
(269,670,o),
(312,670,o),
(351,667,cs)
);
},
{
closed = 1;
nodes = (
(93,47,o),
(159,-1,o),
(229,-4,c),
(344,-150,l),
(392,-150,l),
(275,-6,l),
(300,-6,o),
(325,-6,o),
(350,-5,cs),
(421,-2,o),
(486,47,o),
(487,153,cs),
(488,219,o),
(488,483,o),
(487,549,cs),
(486,657,o),
(422,701,o),
(349,705,cs),
(310,707,o),
(271,707,o),
(231,705,cs),
(158,701,o),
(93,657,o),
(93,549,cs),
(93,153,ls)
);
}
);
width = 580;
},
{
layerId = m003;
shapes = (
{
closed = 1;
nodes = (
(391,621,o),
(424,589,o),
(425,549,cs),
(426,483,o),
(426,219,o),
(425,153,cs),
(424,113,o),
(391,81,o),
(350,79,cs),
(331,78,o),
(250,78,o),
(230,79,cs),
(189,81,o),
(156,113,o),
(155,153,cs),
(154,219,o),
(154,483,o),
(155,549,cs),
(156,589,o),
(189,621,o),
(230,623,cs),
(250,624,o),
(331,624,o),
(350,623,cs)
);
},
{
closed = 1;
nodes = (
(74,73,o),
(134,9,o),
(212,-3,c),
(328,-150,l),
(425,-150,l),
(308,-6,l),
(327,-6,o),
(343,-5,o),
(350,-5,cs),
(436,-1,o),
(506,67,o),
(507,153,cs),
(508,219,o),
(508,483,o),
(507,549,cs),
(506,635,o),
(436,701,o),
(350,705,cs),
(331,706,o),
(250,706,o),
(230,705,cs),
(144,701,o),
(74,635,o),
(73,549,cs),
(73,153,ls)
);
}
);
width = 580;
}
);
},
{
color = 4;
glyphname = a;
kernLeft = so;
kernRight = st;
lastChange = "2023-04-08 14:18:53 +0000";
layers = (
{
anchors = (
{
name = bottom;
pos = (255,0);
},
{
name = ogonek;
pos = (437,0);
},
{
name = top;
pos = (251,520);
}
);
layerId = m01;
shapes = (
{
closed = 1;
nodes = (
(295,108,l),
(272,107,o),
(241,107,o),
(219,108,cs),
(184,110,o),
(156,122,o),
(155,168,cs),
(154,200,o),
(154,303,o),
(155,334,cs),
(156,370,o),
(189,390,o),
(219,392,cs),
(234,393,o),
(269,393,o),
(283,392,cs),
(314,390,o),
(347,370,o),
(347,334,cs),
(347,281,o),
(347,138,o),
(347,107,cs),
(348,50,o),
(380,-20,o),
(500,-11,c),
(500,106,l),
(485,105,o),
(465,118,o),
(465,149,cs),
(465,160,o),
(465,274,o),
(465,354,cs),
(465,448,o),
(387,503,o),
(289,510,cs),
(275,511,o),
(228,511,o),
(213,510,cs),
(114,503,o),
(38,447,o),
(37,354,cs),
(36,288,o),
(36,214,o),
(37,148,cs),
(38,62,o),
(105,-6,o),
(214,-10,cs),
(241,-11,o),
(268,-11,o),
(295,-10,c)
);
}
);
width = 520;
},
{
anchors = (
{
name = bottom;
pos = (240,0);
},
{
name = ogonek;
pos = (431,0);
},
{
name = top;
pos = (248,520);
}
);
layerId = m002;
shapes = (
{
closed = 1;
nodes = (
(304,28,l),
(258,27,o),
(223,27,o),
(206,28,cs),
(147,31,o),
(105,59,o),
(104,158,cs),
(103,230,o),
(103,273,o),
(104,344,cs),
(105,442,o),
(153,468,o),
(206,472,cs),
(231,474,o),
(250,474,o),
(274,472,cs),
(327,468,o),
(375,442,o),
(376,344,cs),
(377,241,o),
(377,208,o),
(376,107,cs),
(375,32,o),
(397,-4,o),
(449,-10,c),
(449,30,l),
(428,33,o),
(414,46,o),
(414,109,cs),
(414,210,o),
(415,254,o),
(414,354,cs),
(413,456,o),
(350,504,o),
(276,510,cs),
(252,512,o),
(229,512,o),
(204,510,cs),
(130,504,o),
(67,456,o),
(66,354,cs),
(65,268,o),
(65,234,o),
(66,148,cs),
(67,56,o),
(121,-8,o),
(203,-10,cs),
(237,-11,o),
(270,-11,o),
(304,-10,c)
);
}
);
width = 500;
},
{
anchors = (
{
name = bottom;
pos = (240,0);
},
{
name = ogonek;
pos = (425,0);
},
{
name = top;
pos = (244,520);
}
);
layerId = m003;
shapes = (
{
closed = 1;
nodes = (
(304,68,l),
(282,67,o),
(229,67,o),
(207,68,cs),
(160,71,o),
(125,98,o),
(124,158,cs),
(124,190,o),
(124,313,o),
(124,344,cs),
(125,404,o),
(166,429,o),
(207,432,cs),
(222,433,o),
(259,433,o),
(273,432,cs),
(314,429,o),
(356,404,o),
(356,344,cs),
(356,291,o),
(356,138,o),
(356,107,cs),
(357,49,o),
(384,-12,o),
(469,-12,c),
(469,66,l),
(447,70,o),
(434,89,o),
(434,109,cs),
(434,120,o),
(434,274,o),
(434,354,cs),
(434,450,o),
(363,504,o),
(277,510,cs),
(263,511,o),
(218,511,o),
(203,510,cs),
(117,504,o),
(47,450,o),
(46,354,cs),
(45,288,o),
(45,214,o),
(46,148,cs),
(47,62,o),
(106,-7,o),
(203,-10,cs),
(237,-11,o),
(270,-11,o),
(304,-10,c)
);
}
);
width = 500;
}
);
unicode = 97;
},
{
color = 4;
glyphname = aogonek;
kernLeft = so;
kernRight = st;
lastChange = "2023-04-06 11:04:35 +0000";
layers = (
{
anchors = (
{
name = bottom;
pos = (240,0);
},
{
name = ogonek;
pos = (431,0);
},
{
name = top;
pos = (248,520);
}
);
layerId = m002;
shapes = (
{
closed = 1;
nodes = (
(304,28,l),
(258,27,o),
(223,27,o),
(206,28,cs),
(147,31,o),
(105,59,o),
(104,158,cs),
(103,230,o),
(103,273,o),
(104,344,cs),
(105,442,o),
(153,468,o),
(206,472,cs),
(231,474,o),
(250,474,o),
(274,472,cs),
(327,468,o),
(375,442,o),
(376,344,cs),
(377,241,o),
(377,208,o),
(376,107,cs),
(375,52,o),
(387,18,o),
(414,1,c),
(379,-120,l),
(479,-120,l),
(479,-86,l),
(421,-86,l),
(449,-1,l),
(449,30,l),
(428,33,o),
(414,46,o),
(414,109,cs),
(414,210,o),
(415,254,o),
(414,354,cs),
(413,456,o),
(350,504,o),
(276,510,cs),
(252,512,o),
(229,512,o),
(204,510,cs),
(130,504,o),
(67,456,o),
(66,354,cs),
(65,268,o),
(65,234,o),
(66,148,cs),
(67,56,o),
(121,-8,o),
(203,-10,cs),
(237,-11,o),
(270,-11,o),
(304,-10,c)
);
}
);
width = 500;
},
{
anchors = (
{
name = bottom;
pos = (240,0);
},
{
name = ogonek;
pos = (425,0);
},
{
name = top;
pos = (244,520);
}
);
layerId = m003;
shapes = (
{
closed = 1;
nodes = (
(304,68,l),
(282,67,o),
(229,67,o),
(207,68,cs),
(160,71,o),
(124,98,o),
(124,158,cs),
(124,220,o),
(124,282,o),
(124,344,cs),
(124,404,o),
(166,429,o),
(207,432,cs),
(222,433,o),
(259,433,o),
(273,432,cs),
(314,429,o),
(356,404,o),
(356,344,cs),
(356,265,o),
(356,186,o),
(356,107,cs),
(356,75,o),
(365,42,o),
(386,19,c),
(348,-120,l),
(498,-120,l),
(498,-70,l),
(444,-70,l),
(469,-1,l),
(469,66,l),
(447,70,o),
(434,89,o),
(434,109,cs),
(434,191,o),
(434,272,o),
(434,354,cs),
(434,450,o),
(363,504,o),
(277,510,cs),
(263,511,o),
(218,511,o),
(203,510,cs),
(117,504,o),
(47,450,o),
(46,354,cs),
(45,288,o),
(45,214,o),
(46,148,cs),
(47,62,o),
(106,-7,o),
(203,-10,cs),
(237,-11,o),
(270,-11,o),
(304,-10,c)
);
}
);
width = 500;
},
{
anchors = (
{
name = bottom;
pos = (255,0);
},
{
name = ogonek;
pos = (437,0);
},
{
name = top;
pos = (251,520);
}
);
layerId = m01;
shapes = (
{
closed = 1;
nodes = (
(295,108,l),
(272,107,o),
(241,107,o),
(219,108,cs),
(184,110,o),
(156,122,o),
(155,168,cs),
(154,210,o),
(154,293,o),
(155,334,cs),
(156,370,o),
(189,390,o),
(219,392,cs),
(234,393,o),
(269,393,o),
(283,392,cs),
(314,390,o),
(347,370,o),
(347,334,cs),
(347,258,o),
(347,183,o),
(347,107,cs),
(347,79,o),
(356,47,o),
(379,23,c),
(340,-120,l),
(540,-120,l),
(540,-43,l),
(481,-43,l),
(500,0,l),
(500,106,l),
(485,105,o),
(465,118,o),
(465,149,cs),
(465,217,o),
(465,286,o),
(465,354,cs),
(465,448,o),
(387,503,o),
(289,510,cs),
(275,511,o),
(228,511,o),
(213,510,cs),
(114,503,o),
(38,447,o),
(37,354,cs),
(36,288,o),
(36,214,o),
(37,148,cs),
(38,62,o),
(105,-6,o),
(214,-10,cs),
(241,-11,o),
(268,-11,o),
(295,-10,c)
);
}
);
width = 520;
}
);
unicode = 261;
},
{
color = 4;
glyphname = ae;
kernLeft = so;
kernRight = st;
lastChange = "2023-04-06 11:04:35 +0000";
layers = (
{
anchors = (
{
name = bottom;
pos = (240,0);
},
{
name = center;
pos = (760,250);
},
{
name = ogonek;
pos = (448,10);
},
{
name = top;
pos = (240,520);
},
{
name = topright;
pos = (1010,500);
}
);
layerId = m01;
shapes = (
{
closed = 1;
nodes = (
(288,108,l),
(255,107,o),
(234,107,o),
(212,108,cs),
(177,110,o),
(149,122,o),
(148,168,cs),
(147,200,o),
(147,303,o),
(148,334,cs),
(149,380,o),
(182,390,o),
(213,392,cs),
(249,394,o),
(239,394,o),
(275,392,cs),
(306,390,o),
(340,380,o),
(340,335,cs),
(340,144,ls),
(340,62,o),
(413,-11,o),
(516,-15,cs),
(531,-15,o),
(578,-15,o),
(592,-15,cs),
(690,-12,o),
(768,45,o),
(768,140,c),
(648,140,l),
(648,114,o),
(621,105,o),
(591,103,cs),
(573,102,o),
(535,102,o),
(517,103,cs),
(490,105,o),
(458,118,o),
(458,164,cs),
(458,198,l),
(769,198,l),
(769,271,o),
(769,325,o),
(768,354,cs),
(766,447,o),
(692,504,o),
(593,510,cs),
(559,512,o),
(549,512,o),
(515,510,cs),
(469,507,o),
(426,491,o),
(399,472,c),
(371,492,o),
(328,507,o),
(282,510,cs),
(249,512,o),
(239,512,o),
(206,510,cs),
(108,504,o),
(31,448,o),
(30,354,cs),
(29,274,o),
(29,228,o),
(30,148,cs),
(31,62,o),
(98,-10,o),
(207,-10,cs),
(288,-10,l)
);
},
{
closed = 1;
nodes = (
(458,334,ls),
(458,380,o),
(490,390,o),
(518,392,cs),
(549,394,o),
(559,394,o),
(590,392,cs),
(618,390,o),
(650,380,o),
(650,334,cs),
(650,304,l),
(458,304,l)
);
}
);
width = 799;
},
{
anchors = (
{
name = bottom;
pos = (240,0);
},
{
name = center;
pos = (760,250);
},
{
name = ogonek;
pos = (448,10);
},
{
name = top;
pos = (240,520);
},
{
name = topright;
pos = (1010,500);
}
);
layerId = m002;
shapes = (
{
closed = 1;
nodes = (
(308,27,l),
(282,26,o),
(237,26,o),
(210,28,cs),
(151,32,o),
(109,59,o),
(108,158,cs),
(108,190,o),
(108,313,o),
(108,344,cs),
(109,442,o),
(157,467,o),
(209,472,cs),
(240,475,o),
(248,475,o),
(279,472,cs),
(332,467,o),
(380,441,o),
(380,345,cs),
(380,144,ls),
(380,47,o),
(444,-9,o),
(516,-15,cs),
(541,-17,o),
(568,-17,o),
(592,-15,cs),
(668,-9,o),
(728,38,o),
(728,140,c),
(688,140,l),
(688,62,o),
(646,29,o),
(593,23,cs),
(565,20,o),
(543,20,o),
(515,23,cs),
(457,29,o),
(418,67,o),
(418,154,cs),
(418,239,l),
(729,239,l),
(729,312,o),
(729,325,o),
(728,354,cs),
(726,456,o),
(665,506,o),
(591,510,cs),
(557,512,o),
(551,512,o),
(517,510,cs),
(471,507,o),
(426,487,o),
(399,433,c),
(372,487,o),
(327,507,o),
(280,510,cs),
(248,512,o),
(240,512,o),
(208,510,cs),
(134,505,o),
(71,456,o),
(70,354,cs),
(69,274,o),
(69,228,o),
(70,148,cs),
(71,51,o),
(130,-10,o),
(217,-10,cs),
(308,-10,l)
);
},
{
closed = 1;
nodes = (
(418,344,ls),
(418,441,o),
(458,466,o),
(514,472,cs),
(548,475,o),
(560,475,o),
(594,472,cs),
(650,466,o),
(690,431,o),
(690,344,cs),
(690,273,l),
(418,273,l)
);
}
);
width = 799;
},
{
anchors = (
{
name = bottom;
pos = (240,0);
},
{
name = center;
pos = (760,250);
},
{
name = ogonek;
pos = (448,10);
},
{
name = top;
pos = (240,520);
},
{
name = topright;
pos = (1010,500);
}
);
layerId = m003;
shapes = (
{
closed = 1;
nodes = (
(308,68,l),
(286,67,o),
(233,67,o),
(211,68,cs),
(164,71,o),
(129,98,o),
(128,158,cs),
(128,190,o),
(128,313,o),
(128,344,cs),
(129,404,o),
(170,429,o),
(211,432,cs),
(248,435,o),
(240,435,o),
(277,432,cs),
(318,429,o),
(359,404,o),
(360,345,c),
(360,144,l),
(361,58,o),
(430,-12,o),
(516,-15,cs),
(531,-15,o),
(578,-15,o),
(592,-15,cs),
(678,-12,o),
(748,44,o),
(748,140,c),
(668,140,l),
(668,90,o),
(633,66,o),
(592,63,cs),
(574,62,o),
(534,62,o),
(516,63,cs),
(475,66,o),
(438,104,o),
(438,154,cs),
(438,219,l),
(749,219,l),
(749,292,o),
(749,325,o),
(748,354,cs),
(746,450,o),
(678,505,o),
(592,510,cs),
(558,512,o),
(550,512,o),
(516,510,cs),
(469,507,o),
(427,489,o),
(399,459,c),
(370,489,o),
(328,508,o),
(281,510,cs),
(239,512,o),
(249,512,o),
(207,510,cs),
(121,506,o),
(51,450,o),
(50,354,cs),
(49,274,o),
(49,228,o),
(50,148,cs),
(51,62,o),
(110,-10,o),
(207,-10,cs),
(308,-10,l)
);
},
{
closed = 1;
nodes = (
(438,344,ls),
(438,394,o),
(475,428,o),
(516,432,cs),
(550,435,o),
(558,435,o),
(592,432,cs),
(633,428,o),
(670,394,o),
(670,344,cs),
(670,293,l),
(438,293,l)
);
}
);
width = 799;
}
);
unicode = 230;
},
{
color = 4;
glyphname = b;
kernLeft = sb;
kernRight = so;
lastChange = "2023-04-06 11:04:35 +0000";
layers = (
{
layerId = m01;
shapes = (
{
closed = 1;
nodes = (
(42,730,l),
(42,-5,l),
(291,-5,l),
(392,-1,o),
(464,70,o),
(465,153,cs),
(466,230,o),
(466,272,o),
(465,349,cs),
(464,431,o),
(394,498,o),
(292,505,c),
(159,505,l),
(159,730,l)
);
},
{
closed = 1;
nodes = (
(159,388,l),
(200,389,o),
(255,389,o),
(291,388,cs),
(317,387,o),
(346,375,o),
(347,329,cs),
(348,277,o),
(348,225,o),
(347,173,cs),
(346,127,o),
(317,113,o),
(291,113,cs),
(159,113,l)
);
}
);
width = 500;
},
{
layerId = m002;
shapes = (
{
closed = 1;
nodes = (
(82,730,l),
(82,-5,l),
(271,-5,l),
(372,-2,o),
(422,51,o),
(425,153,cs),
(427,230,o),
(427,272,o),
(425,349,cs),
(422,451,o),
(372,500,o),
(270,505,c),
(119,505,l),
(119,730,l)
);
},
{
closed = 1;
nodes = (
(119,467,l),
(155,469,o),
(222,469,o),
(271,468,cs),
(349,467,o),
(384,425,o),
(387,339,cs),
(389,280,o),
(389,222,o),
(387,163,cs),
(384,76,o),
(349,33,o),
(271,33,cs),
(119,33,l)
);
}
);
width = 500;
},
{
layerId = m003;
shapes = (
{
closed = 1;
nodes = (
(62,730,l),
(62,-5,l),
(291,-5,ls),
(377,-5,o),
(444,67,o),
(445,153,cs),
(446,230,o),
(446,272,o),
(445,349,cs),
(444,435,o),
(377,499,o),
(291,505,c),
(139,505,l),
(139,730,l)
);
},
{
closed = 1;
nodes = (
(139,428,l),
(181,429,o),
(249,429,o),
(291,428,cs),
(332,427,o),
(366,389,o),
(367,339,cs),
(368,280,o),
(368,222,o),
(367,163,cs),
(366,113,o),
(332,73,o),
(291,73,cs),
(139,73,l)
);
}
);
width = 500;
}
);
unicode = 98;
},
{
color = 4;
glyphname = c;
kernLeft = so;
kernRight = so;
lastChange = "2023-04-06 11:46:39 +0000";
layers = (
{
anchors = (
{
name = bottom;
pos = (251,0);
},
{
name = center;
pos = (251,250);
},
{
name = ogonek;
pos = (471,10);
},
{
name = top;
pos = (251,520);
},
{
name = topright;
pos = (505,500);
}
);
layerId = m01;
shapes = (
{
closed = 1;
nodes = (
(350,114,o),
(318,106,o),
(290,104,cs),
(272,103,o),
(230,103,o),
(212,104,cs),
(184,106,o),
(149,117,o),
(148,173,cs),
(147,223,o),
(147,274,o),
(148,324,cs),
(149,370,o),
(184,390,o),
(212,392,cs),
(252,394,o),
(256,394,o),
(289,392,cs),
(316,390,o),
(350,373,o),
(350,347,c),
(470,347,l),
(470,439,o),
(397,503,o),
(297,510,cs),
(258,513,o),
(242,512,o),
(206,510,cs),
(104,503,o),
(31,426,o),
(30,344,cs),
(29,266,o),
(29,231,o),
(30,153,cs),
(31,71,o),
(104,-7,o),
(206,-14,cs),
(224,-15,o),
(278,-15,o),
(296,-14,cs),
(397,-7,o),
(469,58,o),
(470,150,c),
(350,150,l)
);
}
);
width = 500;
},
{
anchors = (
{
name = bottom;
pos = (251,0);
},
{
name = center;
pos = (251,250);
},
{
name = ogonek;
pos = (471,10);
},
{
name = top;
pos = (251,520);
},
{
name = topright;
pos = (505,500);
}
);
layerId = m002;
shapes = (
{
closed = 1;
nodes = (
(390,64,o),
(349,30,o),
(292,24,cs),
(274,22,o),
(228,22,o),
(210,24,cs),
(153,30,o),
(112,61,o),
(108,163,cs),
(105,240,o),
(105,267,o),
(108,334,cs),
(112,436,o),
(153,468,o),
(209,472,cs),
(246,475,o),
(256,475,o),
(293,472,cs),
(353,468,o),
(390,420,o),
(390,347,c),
(430,347,l),
(430,459,o),
(367,506,o),
(294,510,cs),
(257,512,o),
(245,512,o),
(208,510,cs),
(131,505,o),
(73,450,o),
(70,344,cs),
(68,266,o),
(68,231,o),
(70,153,cs),
(73,52,o),
(132,-9,o),
(208,-14,cs),
(226,-15,o),
(276,-15,o),
(294,-14,cs),
(367,-9,o),
(429,38,o),
(430,150,c),
(390,150,l)
);
}
);
width = 500;
},
{
anchors = (
{
name = bottom;
pos = (251,0);
},
{
name = center;
pos = (251,250);
},
{
name = ogonek;
pos = (471,10);
},
{
name = top;
pos = (251,520);
},
{
name = topright;
pos = (505,500);
}
);
layerId = m003;
shapes = (
{
closed = 1;
nodes = (
(370,100,o),
(332,67,o),
(291,64,cs),
(273,63,o),
(229,63,o),
(211,64,cs),
(170,67,o),
(129,103,o),
(128,163,cs),
(127,220,o),
(127,277,o),
(128,334,cs),
(129,394,o),
(170,429,o),
(211,432,cs),
(248,435,o),
(254,435,o),
(291,432,cs),
(332,429,o),
(370,387,o),
(370,347,c),
(450,347,l),
(450,443,o),
(381,505,o),
(295,510,cs),
(258,512,o),
(244,512,o),
(207,510,cs),
(121,504,o),
(51,430,o),
(50,344,cs),
(49,266,o),
(49,231,o),
(50,153,cs),
(51,67,o),
(121,-8,o),
(207,-14,cs),
(225,-15,o),
(277,-15,o),
(295,-14,cs),
(381,-8,o),
(449,54,o),
(450,150,c),
(370,150,l)
);
}
);
width = 500;
}
);
unicode = 99;
},
{
color = 4;
glyphname = ccedilla;
kernLeft = so;
kernRight = so;
lastChange = "2023-04-06 11:04:35 +0000";
layers = (
{
anchors = (
{
name = bottom;
pos = (251,0);
},
{
name = center;
pos = (251,250);
},
{
name = ogonek;
pos = (471,10);
},
{
name = top;
pos = (251,520);
},
{
name = topright;
pos = (505,500);
}
);
layerId = m01;
shapes = (
{
closed = 1;
nodes = (
(350,114,o),
(318,106,o),
(290,104,cs),
(272,103,o),
(230,103,o),
(212,104,cs),
(184,106,o),
(149,117,o),
(148,173,cs),
(147,223,o),
(147,274,o),
(148,324,cs),
(149,370,o),
(184,390,o),
(212,392,cs),
(252,394,o),
(256,394,o),
(289,392,cs),
(316,390,o),
(350,373,o),
(350,347,c),
(470,347,l),
(470,439,o),
(397,503,o),
(297,510,cs),
(258,513,o),
(242,512,o),
(206,510,cs),
(104,503,o),
(31,426,o),
(30,344,cs),
(29,266,o),
(29,231,o),
(30,153,cs),
(31,73,o),
(101,-3,o),
(199,-13,c),
(171,-120,l),
(297,-120,l),
(326,-10,l),
(411,6,o),
(469,67,o),
(470,150,c),
(350,150,l)
);
}
);
width = 500;
},
{
anchors = (
{
name = bottom;
pos = (251,0);
},
{
name = center;
pos = (251,250);
},
{
name = ogonek;
pos = (471,10);
},
{
name = top;
pos = (251,520);
},
{
name = topright;
pos = (505,500);
}
);
layerId = m002;
shapes = (
{
closed = 1;
nodes = (
(390,64,o),
(349,30,o),
(292,24,cs),
(274,22,o),
(228,22,o),
(210,24,cs),
(153,30,o),
(112,61,o),
(108,163,cs),
(105,240,o),
(105,267,o),
(108,334,cs),
(112,436,o),
(153,468,o),
(209,472,cs),
(246,475,o),
(256,475,o),
(293,472,cs),
(353,468,o),
(390,420,o),
(390,347,c),
(430,347,l),
(430,459,o),
(367,506,o),
(294,510,cs),
(257,512,o),
(245,512,o),
(208,510,cs),
(131,505,o),
(73,450,o),
(70,344,cs),
(68,266,o),
(68,231,o),
(70,153,cs),
(73,52,o),
(117,-9,o),
(233,-14,c),
(205,-120,l),
(251,-120,l),
(270,-14,l),
(373,-9,o),
(429,38,o),
(430,150,c),
(390,150,l)
);
}
);
width = 500;
},
{
anchors = (
{
name = bottom;
pos = (251,0);
},
{
name = center;
pos = (251,250);
},
{
name = ogonek;
pos = (471,10);
},
{
name = top;
pos = (251,520);
},
{
name = topright;
pos = (505,500);
}
);
layerId = m003;
shapes = (
{
closed = 1;
nodes = (
(370,100,o),
(332,67,o),
(291,64,cs),
(273,63,o),
(229,63,o),
(211,64,cs),
(170,67,o),
(129,103,o),
(128,163,cs),
(127,220,o),
(127,277,o),
(128,334,cs),
(129,394,o),
(170,429,o),
(211,432,cs),
(248,435,o),
(254,435,o),
(291,432,cs),
(332,429,o),
(370,387,o),
(370,347,c),
(450,347,l),
(450,443,o),
(381,505,o),
(295,510,cs),
(258,512,o),
(244,512,o),
(207,510,cs),
(121,504,o),
(51,430,o),
(50,344,cs),
(49,266,o),
(49,231,o),
(50,153,cs),
(51,67,o),
(121,-8,o),
(213,-14,c),
(185,-120,l),
(271,-120,l),
(299,-14,l),
(383,-6,o),
(449,55,o),
(450,150,c),
(370,150,l)
);
}
);
width = 500;
}
);
unicode = 231;
},
{
color = 4;
glyphname = d;
kernLeft = so;
kernRight = sd;
lastChange = "2023-04-06 11:04:35 +0000";
layers = (
{
anchors = (
{
name = bottom;
pos = (250,0);
},
{
name = center;
pos = (250,250);
},
{
name = top;
pos = (398,730);
},
{
name = topright;
pos = (480,800);
}
);
layerId = m01;
shapes = (
{
closed = 1;
nodes = (
(341,505,l),
(208,505,l),
(106,498,o),
(36,431,o),
(35,349,cs),
(34,274,o),
(34,228,o),
(35,153,cs),
(36,70,o),
(108,-1,o),
(209,-5,c),
(458,-5,l),
(458,730,l),
(341,730,l)
);
},
{
closed = 1;
nodes = (
(152,235,o),
(152,267,o),
(153,329,cs),
(154,365,o),
(183,387,o),
(209,388,cs),
(245,390,o),
(300,390,o),
(341,388,c),
(341,113,l),
(297,112,o),
(253,112,o),
(209,113,cs),
(183,114,o),
(154,137,o),
(153,173,cs)
);
}
);
width = 500;
},
{
anchors = (
{
name = bottom;
pos = (250,0);
},
{
name = center;
pos = (250,250);
},
{
name = top;
pos = (399,730);
},
{
name = topright;
pos = (480,800);
}
);
layerId = m002;
shapes = (
{
closed = 1;
nodes = (
(381,505,l),
(230,505,l),
(127,500,o),
(77,441,o),
(75,349,cs),
(73,264,o),
(73,238,o),
(75,153,cs),
(77,61,o),
(127,-2,o),
(229,-5,c),
(418,-5,l),
(418,730,l),
(381,730,l)
);
},
{
closed = 1;
nodes = (
(111,232,o),
(111,270,o),
(113,339,cs),
(115,425,o),
(151,467,o),
(229,468,cs),
(278,469,o),
(345,469,o),
(381,468,c),
(381,33,l),
(324,33,o),
(286,33,o),
(229,33,cs),
(151,33,o),
(116,76,o),
(113,163,cs)
);
}
);
width = 500;
},
{
anchors = (
{
name = bottom;
pos = (250,0);
},
{
name = center;
pos = (250,250);
},
{
name = top;
pos = (398,730);
},
{
name = topright;
pos = (480,800);
}
);
layerId = m003;
shapes = (
{
closed = 1;
nodes = (
(361,505,l),
(209,505,l),
(123,499,o),
(56,435,o),
(55,349,cs),
(54,274,o),
(54,228,o),
(55,153,cs),
(56,67,o),
(123,-5,o),
(209,-5,cs),
(438,-5,l),
(438,730,l),
(361,730,l)
);
},
{
closed = 1;
nodes = (
(132,232,o),
(132,270,o),
(133,339,cs),
(134,389,o),
(168,426,o),
(209,428,cs),
(251,430,o),
(319,430,o),
(361,428,c),
(361,73,l),
(310,72,o),
(260,72,o),
(209,73,cs),
(168,74,o),
(134,113,o),
(133,163,cs)
);
}
);
width = 500;
}
);
unicode = 100;
},
{
color = 4;
glyphname = eth;
kernLeft = so;
kernRight = sd;
lastChange = "2023-04-06 11:04:35 +0000";
layers = (
{
layerId = m01;
shapes = (
{
closed = 1;
nodes = (
(153,265,o),
(153,238,o),
(153,319,cs),
(153,359,o),
(168,387,o),
(209,388,cs),
(240,389,o),
(289,389,o),
(341,389,c),
(341,113,l),
(316,113,o),
(235,113,o),
(209,113,cs),
(168,114,o),
(153,133,o),
(153,163,cs)
);
},
{
closed = 1;
nodes = (
(344,698,o),
(340,714,o),
(340,730,c),
(221,730,l),
(221,693,o),
(232,671,o),
(261,616,c),
(286,685,l),
(148,685,l),
(148,585,l),
(286,585,l),
(306,569,o),
(330,536,o),
(333,505,c),
(208,505,l),
(106,498,o),
(36,431,o),
(35,349,cs),
(35,288,o),
(35,219,o),
(35,153,cs),
(36,70,o),
(108,-5,o),
(209,-5,cs),
(458,-5,l),
(458,464,ls),
(458,511,o),
(440,550,o),
(408,585,c),
(458,585,l),
(458,685,l),
(351,685,l)
);
}
);
width = 500;
},
{
layerId = m002;
shapes = (
{
closed = 1;
nodes = (
(111,265,o),
(111,258,o),
(113,339,cs),
(115,425,o),
(151,468,o),
(228,469,cs),
(294,470,o),
(329,470,o),
(381,469,c),
(381,33,l),
(336,32,o),
(285,32,o),
(229,33,cs),
(151,34,o),
(115,76,o),
(113,163,cs)
);
},
{
closed = 1;
nodes = (
(323,661,o),
(299,700,o),
(299,730,c),
(263,730,l),
(263,693,o),
(286,656,o),
(312,626,c),
(321,635,l),
(188,635,l),
(188,605,l),
(322,605,l),
(358,571,o),
(378,528,o),
(380,505,c),
(230,505,l),
(138,500,o),
(78,451,o),
(75,349,cs),
(73,268,o),
(73,239,o),
(75,153,cs),
(77,51,o),
(128,-5,o),
(229,-5,cs),
(418,-5,l),
(418,484,ls),
(418,530,o),
(387,580,o),
(365,605,c),
(418,605,l),
(418,635,l),
(344,635,l)
);
}
);
width = 500;
},
{
layerId = m003;
shapes = (
{
closed = 1;
nodes = (
(133,265,o),
(133,258,o),
(133,339,cs),
(133,389,o),
(168,427,o),
(209,428,cs),
(240,429,o),
(309,429,o),
(361,429,c),
(361,73,l),
(336,73,o),
(235,73,o),
(209,73,cs),
(168,74,o),
(133,113,o),
(133,163,cs)
);
},
{
closed = 1;
nodes = (
(327,677,o),
(318,701,o),
(318,730,c),
(241,730,l),
(241,690,o),
(254,659,o),
(273,630,c),
(304,655,l),
(168,655,l),
(168,585,l),
(306,585,l),
(321,566,o),
(353,527,o),
(355,505,c),
(209,505,l),
(123,499,o),
(56,435,o),
(55,349,cs),
(55,288,o),
(55,219,o),
(55,153,cs),
(56,67,o),
(123,-5,o),
(209,-5,cs),
(438,-5,l),
(438,464,ls),
(438,515,o),
(416,552,o),
(392,585,c),
(438,585,l),
(438,655,l),
(340,655,l)
);
}
);
width = 500;
}
);
unicode = 240;
},
{
color = 4;
glyphname = dcroat;
kernLeft = so;
kernRight = sd;
lastChange = "2023-04-06 11:04:35 +0000";
layers = (
{
anchors = (
{
name = bottom;
pos = (250,0);
},
{
name = center;
pos = (250,250);
},
{
name = top;
pos = (399,730);
},
{
name = topright;
pos = (480,800);
}
);
layerId = m002;
shapes = (
{
closed = 1;
nodes = (
(381,635,l),
(198,635,l),
(198,605,l),
(381,605,l),
(381,505,l),
(230,505,l),
(127,500,o),
(77,441,o),
(75,349,cs),
(73,264,o),
(73,238,o),
(75,153,cs),
(77,61,o),
(127,-2,o),
(229,-5,cs),
(418,-5,l),
(418,605,l),
(478,605,l),
(478,635,l),
(418,635,l),
(418,730,l),
(381,730,l)
);
},
{
closed = 1;
nodes = (
(111,232,o),
(111,270,o),
(113,339,cs),
(115,425,o),
(151,467,o),
(229,468,cs),
(278,469,o),
(345,469,o),
(381,468,c),
(381,33,l),
(330,33,o),
(280,33,o),
(229,33,cs),
(151,33,o),
(116,76,o),
(113,163,cs)
);
}
);
width = 500;
},
{
anchors = (
{
name = bottom;
pos = (250,0);
},
{
name = center;
pos = (250,250);
},
{
name = top;
pos = (398,730);
},
{
name = topright;
pos = (480,800);
}
);
layerId = m003;
shapes = (
{
closed = 1;
nodes = (
(361,655,l),
(198,655,l),
(198,585,l),
(361,585,l),
(361,505,l),
(209,505,l),
(123,499,o),
(56,435,o),
(55,349,cs),
(54,274,o),
(54,228,o),
(55,153,cs),
(56,67,o),
(123,-5,o),
(209,-5,cs),
(438,-5,l),
(438,585,l),
(478,585,l),
(478,655,l),
(438,655,l),
(438,730,l),
(361,730,l)
);
},
{
closed = 1;
nodes = (
(132,232,o),
(132,270,o),
(133,339,cs),
(134,389,o),
(168,426,o),
(209,428,cs),
(251,430,o),
(319,430,o),
(361,428,c),
(361,73,l),
(310,72,o),
(260,72,o),
(209,73,cs),
(168,74,o),
(134,113,o),
(133,163,cs)
);
}
);
width = 500;
},
{
anchors = (
{
name = bottom;
pos = (250,0);
},
{
name = center;
pos = (250,250);
},
{
name = top;
pos = (398,730);
},
{
name = topright;
pos = (480,800);
}
);
layerId = m01;
shapes = (
{
closed = 1;
nodes = (
(341,685,l),
(198,685,l),
(198,585,l),
(341,585,l),
(341,505,l),
(208,505,l),
(106,498,o),
(36,431,o),
(35,349,cs),
(34,274,o),
(34,228,o),
(35,153,cs),
(36,70,o),
(108,-1,o),
(209,-5,c),
(458,-5,l),
(458,585,l),
(478,585,l),
(478,685,l),
(458,685,l),
(458,730,l),
(341,730,l)
);
},
{
closed = 1;
nodes = (
(152,235,o),
(152,267,o),
(153,329,cs),
(154,365,o),
(183,387,o),
(209,388,cs),
(245,390,o),
(300,390,o),
(341,388,c),
(341,113,l),
(297,112,o),
(253,112,o),
(209,113,cs),
(183,114,o),
(154,137,o),
(153,173,cs)
);
}
);
width = 500;
}
);
unicode = 273;
},
{
color = 4;
glyphname = e;
kernLeft = so;
kernRight = so;
lastChange = "2023-04-07 03:18:46 +0000";
layers = (
{
anchors = (
{
name = bottom;
pos = (250,0);
},
{
name = center;
pos = (250,250);
},
{
name = ogonek;
pos = (248,0);
},
{
name = top;
pos = (250,520);
},
{
name = topright;
pos = (505,500);
}
);
layerId = m01;
shapes = (
{
closed = 1;
nodes = (
(344,114,o),
(317,105,o),
(287,103,cs),
(269,102,o),
(231,102,o),
(213,103,cs),
(186,105,o),
(154,118,o),
(154,154,cs),
(154,198,l),
(465,198,l),
(465,211,o),
(465,325,o),
(464,354,cs),
(462,446,o),
(389,503,o),
(289,510,cs),
(275,511,o),
(226,511,o),
(211,510,cs),
(112,503,o),
(37,448,o),
(36,354,cs),
(35,274,o),
(35,224,o),
(36,144,cs),
(37,62,o),
(109,-11,o),
(212,-15,cs),
(237,-16,o),
(263,-16,o),
(288,-15,cs),
(386,-11,o),
(464,45,o),
(464,140,c),
(344,140,l)
);
},
{
closed = 1;
nodes = (
(154,334,ls),
(154,370,o),
(186,390,o),
(213,392,cs),
(228,393,o),
(273,393,o),
(287,392,cs),
(314,390,o),
(346,370,o),
(346,334,cs),
(346,304,l),
(154,304,l)
);
}
);
width = 500;
},
{
anchors = (
{
name = bottom;
pos = (240,0);
},
{
name = center;
pos = (240,250);
},
{
name = ogonek;
pos = (239,0);
},
{
name = top;
pos = (240,520);
},
{
name = topright;
pos = (495,500);
}
);
layerId = m002;
shapes = (
{
closed = 1;
nodes = (
(374,52,o),
(332,27,o),
(279,23,cs),
(251,21,o),
(229,21,o),
(201,23,cs),
(143,27,o),
(104,67,o),
(104,154,cs),
(104,239,l),
(415,239,l),
(415,252,o),
(415,325,o),
(414,354,cs),
(412,456,o),
(350,504,o),
(277,510,cs),
(253,512,o),
(228,512,o),
(203,510,cs),
(129,504,o),
(67,456,o),
(66,354,cs),
(65,274,o),
(65,224,o),
(66,144,cs),
(67,52,o),
(130,-12,o),
(202,-15,cs),
(227,-16,o),
(253,-16,o),
(278,-15,cs),
(351,-12,o),
(414,38,o),
(414,140,c),
(374,140,l)
);
},
{
closed = 1;
nodes = (
(104,344,ls),
(104,430,o),
(144,467,o),
(201,472,cs),
(226,474,o),
(255,474,o),
(279,472,cs),
(336,467,o),
(376,430,o),
(376,344,cs),
(376,273,l),
(104,273,l)
);
}
);
width = 480;
},
{
anchors = (
{
name = bottom;
pos = (240,0);
},
{
name = center;
pos = (240,250);
},
{
name = ogonek;
pos = (238,0);
},
{
name = top;
pos = (240,520);
},
{
name = topright;
pos = (495,500);
}
);
layerId = m003;
shapes = (
{
closed = 1;
nodes = (
(354,90,o),
(319,66,o),
(278,63,cs),
(260,62,o),
(220,62,o),
(202,63,cs),
(161,66,o),
(124,104,o),
(124,154,cs),
(124,219,l),
(435,219,l),
(435,232,o),
(435,325,o),
(434,354,cs),
(432,450,o),
(364,504,o),
(278,510,cs),
(264,511,o),
(217,511,o),
(202,510,cs),
(116,504,o),
(47,450,o),
(46,354,cs),
(45,274,o),
(45,224,o),
(46,144,cs),
(47,58,o),
(116,-12,o),
(202,-15,cs),
(227,-16,o),
(253,-16,o),
(278,-15,cs),
(364,-12,o),
(434,44,o),
(434,140,c),
(354,140,l)
);
},
{
closed = 1;
nodes = (
(124,344,ls),
(124,394,o),
(161,429,o),
(202,432,cs),
(217,433,o),
(264,433,o),
(278,432,cs),
(319,429,o),
(356,394,o),
(356,344,cs),
(356,293,l),
(124,293,l)
);
}
);
width = 480;
}
);
unicode = 101;
},
{
color = 4;
glyphname = eogonek;
kernLeft = so;
kernRight = so;
lastChange = "2023-04-06 11:04:35 +0000";
layers = (
{
anchors = (
{
name = bottom;
pos = (240,0);
},
{
name = center;
pos = (240,250);
},
{
name = ogonek;
pos = (239,0);
},
{
name = top;
pos = (240,520);
},
{
name = topright;
pos = (495,500);
}
);
layerId = m002;
shapes = (
{
closed = 1;
nodes = (
(374,52,o),
(332,27,o),
(279,23,cs),
(251,21,o),
(229,21,o),
(201,23,cs),
(143,27,o),
(104,67,o),
(104,154,cs),
(104,239,l),
(415,239,l),
(415,252,o),
(415,325,o),
(414,354,cs),
(412,456,o),
(350,504,o),
(277,510,cs),
(253,512,o),
(228,512,o),
(203,510,cs),
(129,504,o),
(67,456,o),
(66,354,cs),
(65,274,o),
(65,224,o),
(66,144,cs),
(67,52,o),
(115,-12,o),
(217,-15,c),
(187,-120,l),
(287,-120,l),
(287,-86,l),
(229,-86,l),
(252,-15,l),
(355,-15,o),
(414,38,o),
(414,140,c),
(374,140,l)
);
},
{
closed = 1;
nodes = (
(104,344,ls),
(104,430,o),
(144,467,o),
(201,472,cs),
(226,474,o),
(255,474,o),
(279,472,cs),
(336,467,o),
(376,430,o),
(376,344,cs),
(376,273,l),
(104,273,l)
);
}
);
width = 480;
},
{
anchors = (
{
name = bottom;
pos = (227,-120);
},
{
name = center;
pos = (240,250);
},
{
name = ogonek;
pos = (238,0);
},
{
name = top;
pos = (240,520);
},
{
name = topright;
pos = (495,500);
}
);
layerId = m003;
shapes = (
{
closed = 1;
nodes = (
(354,90,o),
(319,66,o),
(278,63,cs),
(260,62,o),
(220,62,o),
(202,63,cs),
(161,66,o),
(124,104,o),
(124,154,cs),
(124,219,l),
(435,219,l),
(435,232,o),
(435,325,o),
(434,354,cs),
(432,450,o),
(364,504,o),
(278,510,cs),
(264,511,o),
(217,511,o),
(202,510,cs),
(116,504,o),
(47,450,o),
(46,354,cs),
(45,274,o),
(45,224,o),
(46,144,cs),
(47,62,o),
(110,-5,o),
(190,-14,c),
(161,-120,l),
(311,-120,l),
(311,-70,l),
(257,-70,l),
(278,-15,l),
(364,-12,o),
(434,44,o),
(434,140,c),
(354,140,l)
);
},
{
closed = 1;
nodes = (
(124,344,ls),
(124,394,o),
(161,429,o),
(202,432,cs),
(217,433,o),
(264,433,o),
(278,432,cs),
(319,429,o),
(356,394,o),
(356,344,cs),
(356,293,l),
(124,293,l)
);
}
);
width = 480;
},
{
anchors = (
{
name = bottom;
pos = (231,-120);
},
{
name = center;
pos = (250,250);
},
{
name = ogonek;
pos = (248,0);
},
{
name = top;
pos = (250,520);
},
{
name = topright;
pos = (505,500);
}
);
layerId = m01;
shapes = (
{
closed = 1;
nodes = (
(344,114,o),
(317,105,o),
(287,103,cs),
(269,102,o),
(231,102,o),
(213,103,cs),
(186,105,o),
(154,118,o),
(154,154,cs),
(154,198,l),
(465,198,l),
(465,211,o),
(465,325,o),
(464,354,cs),
(462,446,o),
(389,503,o),
(289,510,cs),
(275,511,o),
(226,511,o),
(211,510,cs),
(112,503,o),
(37,448,o),
(36,354,cs),
(35,274,o),
(35,224,o),
(36,144,cs),
(37,70,o),
(95,4,o),
(182,-12,c),
(151,-120,l),
(351,-120,l),
(351,-43,l),
(292,-43,l),
(305,-14,l),
(395,-4,o),
(464,51,o),
(464,140,c),
(344,140,l)
);
},
{
closed = 1;
nodes = (
(154,334,ls),
(154,370,o),
(186,390,o),
(213,392,cs),
(228,393,o),
(273,393,o),
(287,392,cs),
(314,390,o),
(346,370,o),
(346,334,cs),
(346,304,l),
(154,304,l)
);
}
);
width = 500;
}
);
unicode = 281;
},
{
color = 4;
glyphname = f;
kernLeft = st;
kernRight = sf;
lastChange = "2023-04-06 11:04:35 +0000";
layers = (
{
anchors = (
{
name = bottom;
pos = (349,0);
},
{
name = center;
pos = (349,250);
},
{
name = top;
pos = (349,500);
},
{
name = topright;
pos = (629,800);
}
);
layerId = m01;
shapes = (
{
closed = 1;
nodes = (
(157,735,o),
(82,692,o),
(82,567,cs),
(82,500,l),
(12,500,l),
(12,384,l),
(82,384,l),
(82,0,l),
(200,0,l),
(200,384,l),
(270,384,l),
(270,500,l),
(200,500,l),
(200,552,ls),
(200,604,o),
(222,615,o),
(240,617,cs),
(248,618,o),
(258,618,o),
(266,617,c),
(268,735,l),
(258,735,o),
(246,735,o),
(238,735,cs)
);
}
);
width = 290;
},
{
anchors = (
{
name = bottom;
pos = (349,0);
},
{
name = center;
pos = (349,250);
},
{
name = top;
pos = (349,500);
},
{
name = topright;
pos = (629,800);
}
);
layerId = m002;
shapes = (
{
closed = 1;
nodes = (
(174,735,o),
(122,701,o),
(122,567,cs),
(122,495,l),
(52,495,l),
(52,459,l),
(122,459,l),
(122,0,l),
(160,0,l),
(160,459,l),
(230,459,l),
(230,495,l),
(160,495,l),
(160,552,ls),
(160,667,o),
(186,694,o),
(236,698,cs),
(239,698,o),
(243,698,o),
(248,698,c),
(248,735,l),
(244,735,o),
(241,735,o),
(238,735,cs)
);
}
);
width = 290;
},
{
anchors = (
{
name = bottom;
pos = (349,0);
},
{
name = center;
pos = (349,250);
},
{
name = top;
pos = (349,500);
},
{
name = topright;
pos = (629,800);
}
);
layerId = m003;
shapes = (
{
closed = 1;
nodes = (
(163,735,o),
(102,685,o),
(102,567,c),
(102,495,l),
(32,495,l),
(32,419,l),
(102,419,l),
(102,0,l),
(180,0,l),
(180,419,l),
(250,419,l),
(250,495,l),
(180,495,l),
(180,552,l),
(180,628,o),
(206,653,o),
(238,657,cs),
(246,658,o),
(260,658,o),
(268,657,c),
(268,735,l),
(260,735,o),
(246,735,o),
(238,735,cs)
);
}
);
width = 290;
}
);
unicode = 102;
},
{
color = 4;
glyphname = g;
kernLeft = sg;
kernRight = sg;
lastChange = "2023-04-06 11:04:35 +0000";
layers = (
{
anchors = (
{
name = bottom;
pos = (245,0);
},
{
name = center;
pos = (245,250);
},
{
name = ogonek;
pos = (461,10);
},
{
name = top;
pos = (245,520);
},
{
name = topright;
pos = (495,500);
}
);
layerId = m01;
shapes = (
{
closed = 1;
nodes = (
(466,441,o),
(395,503,o),
(294,510,cs),
(280,511,o),
(221,511,o),
(206,510,cs),
(105,503,o),
(34,441,o),
(33,349,cs),
(33,279,o),
(33,205,o),
(33,139,cs),
(34,52,o),
(101,-9,o),
(206,-9,cs),
(222,-9,o),
(287,-9,o),
(300,-9,c),
(300,108,l),
(256,107,o),
(232,107,o),
(208,108,cs),
(179,109,o),
(151,123,o),
(151,159,cs),
(151,225,o),
(151,259,o),
(151,329,cs),
(151,375,o),
(177,390,o),
(208,392,cs),
(223,393,o),
(278,393,o),
(292,392,cs),
(323,390,o),
(349,375,o),
(349,329,cs),
(349,264,o),
(349,45,o),
(349,-27,cs),
(349,-63,o),
(318,-85,o),
(292,-87,cs),
(258,-89,o),
(243,-89,o),
(208,-87,cs),
(168,-85,o),
(154,-70,o),
(154,-47,c),
(33,-47,l),
(34,-128,o),
(83,-197,o),
(206,-205,cs),
(221,-206,o),
(280,-206,o),
(294,-205,cs),
(396,-198,o),
(466,-129,o),
(467,-47,cs),
(468,29,o),
(468,283,o),
(467,349,cs)
);
}
);
width = 500;
},
{
anchors = (
{
name = bottom;
pos = (245,0);
},
{
name = center;
pos = (245,250);
},
{
name = ogonek;
pos = (461,10);
},
{
name = top;
pos = (245,520);
},
{
name = topright;
pos = (495,500);
}
);
layerId = m002;
shapes = (
{
closed = 1;
nodes = (
(426,461,o),
(375,505,o),
(292,510,cs),
(278,511,o),
(223,511,o),
(208,510,cs),
(125,505,o),
(74,461,o),
(73,349,cs),
(72,279,o),
(73,205,o),
(73,139,cs),
(74,47,o),
(121,-7,o),
(208,-9,cs),
(246,-10,o),
(290,-11,o),
(317,-10,c),
(317,28,l),
(287,27,o),
(234,27,o),
(206,29,cs),
(150,33,o),
(111,60,o),
(111,149,cs),
(111,215,o),
(111,289,o),
(111,359,cs),
(111,448,o),
(154,468,o),
(206,472,cs),
(221,473,o),
(280,473,o),
(294,472,cs),
(346,468,o),
(389,448,o),
(389,359,cs),
(389,294,o),
(389,35,o),
(389,-37,cs),
(389,-124,o),
(360,-163,o),
(294,-167,cs),
(276,-168,o),
(228,-168,o),
(210,-167,cs),
(137,-162,o),
(116,-114,o),
(116,-67,c),
(80,-67,l),
(81,-149,o),
(126,-199,o),
(212,-205,cs),
(230,-206,o),
(274,-206,o),
(292,-205,cs),
(374,-200,o),
(426,-149,o),
(427,-47,cs),
(428,29,o),
(428,283,o),
(427,349,cs)
);
}
);
width = 500;
},
{
anchors = (
{
name = bottom;
pos = (245,0);
},
{
name = center;
pos = (245,250);
},
{
name = ogonek;
pos = (461,10);
},
{
name = top;
pos = (245,520);
},
{
name = topright;
pos = (495,500);
}
);
layerId = m003;
shapes = (
{
closed = 1;
nodes = (
(446,445,o),
(379,504,o),
(293,510,cs),
(279,511,o),
(222,511,o),
(207,510,cs),
(121,504,o),
(54,445,o),
(53,349,cs),
(53,279,o),
(53,205,o),
(53,139,cs),
(54,53,o),
(111,-7,o),
(207,-9,cs),
(232,-10,o),
(307,-10,o),
(317,-10,c),
(317,68,l),
(293,68,o),
(231,68,o),
(207,69,cs),
(166,71,o),
(131,99,o),
(131,149,cs),
(131,215,o),
(131,289,o),
(131,359,cs),
(131,409,o),
(166,429,o),
(207,432,cs),
(222,433,o),
(279,433,o),
(293,432,cs),
(334,429,o),
(369,409,o),
(369,359,cs),
(370,294,o),
(370,35,o),
(369,-37,cs),
(369,-87,o),
(334,-124,o),
(293,-127,cs),
(275,-128,o),
(225,-128,o),
(207,-127,cs),
(156,-123,o),
(134,-97,o),
(134,-67,c),
(53,-67,l),
(54,-133,o),
(101,-198,o),
(207,-205,cs),
(225,-206,o),
(275,-206,o),
(293,-205,cs),
(379,-199,o),
(446,-133,o),
(447,-47,cs),
(448,29,o),
(448,283,o),
(447,349,cs)
);
}
);
width = 500;
}
);
unicode = 103;
},
{
color = 4;
glyphname = h;
kernLeft = sb;
kernRight = so;
lastChange = "2023-04-07 03:19:10 +0000";
layers = (
{
anchors = (
{
name = bottom;
pos = (250,0);
},
{
name = center;
pos = (250,250);
},
{
name = ogonek;
pos = (466,10);
},
{
name = top;
pos = (105,730);
},
{
name = topright;
pos = (500,500);
}
);
layerId = m01;
shapes = (
{
closed = 1;
nodes = (
(154,0,l),
(154,397,l),
(191,398,o),
(247,398,o),
(274,397,cs),
(303,396,o),
(331,382,o),
(331,319,cs),
(331,0,l),
(449,0,l),
(450,83,o),
(450,246,o),
(449,329,cs),
(448,455,o),
(363,515,o),
(275,515,cs),
(154,515,l),
(154,730,l),
(36,730,l),
(36,0,l)
);
}
);
width = 480;
},
{
anchors = (
{
name = bottom;
pos = (250,0);
},
{
name = center;
pos = (250,250);
},
{
name = ogonek;
pos = (466,10);
},
{
name = top;
pos = (105,730);
},
{
name = topright;
pos = (500,500);
}
);
layerId = m002;
shapes = (
{
closed = 1;
nodes = (
(114,0,l),
(114,467,l),
(166,468,o),
(223,468,o),
(256,467,cs),
(320,466,o),
(371,446,o),
(371,319,cs),
(371,0,l),
(409,0,l),
(410,153,o),
(410,206,o),
(409,329,cs),
(408,451,o),
(348,505,o),
(255,505,cs),
(114,505,l),
(114,730,l),
(76,730,l),
(76,0,l)
);
}
);
width = 480;
},
{
anchors = (
{
name = bottom;
pos = (250,0);
},
{
name = center;
pos = (250,250);
},
{
name = ogonek;
pos = (466,10);
},
{
name = top;
pos = (105,730);
},
{
name = topright;
pos = (500,500);
}
);
layerId = m003;
shapes = (
{
closed = 1;
nodes = (
(134,0,l),
(134,427,l),
(167,428,o),
(242,428,o),
(275,427,cs),
(316,426,o),
(351,396,o),
(351,319,cs),
(351,0,l),
(429,0,l),
(430,83,o),
(430,246,o),
(429,329,cs),
(428,445,o),
(361,505,o),
(275,505,cs),
(134,505,l),
(134,730,l),
(56,730,l),
(56,0,l)
);
}
);
width = 480;
}
);
unicode = 104;
},
{
color = 4;
glyphname = hbar;
kernLeft = sb;
kernRight = so;
lastChange = "2023-04-06 11:04:35 +0000";
layers = (
{
anchors = (
{
name = bottom;
pos = (250,0);
},
{
name = center;
pos = (250,250);
},
{
name = ogonek;
pos = (466,10);
},
{
name = top;
pos = (105,730);
},
{
name = topright;
pos = (500,500);
}
);
layerId = m002;
shapes = (
{
closed = 1;
nodes = (
(114,0,l),
(114,467,l),
(166,468,o),
(223,468,o),
(256,467,cs),
(320,466,o),
(371,446,o),
(371,319,cs),
(371,0,l),
(409,0,l),
(410,153,o),
(410,206,o),
(409,329,cs),
(408,451,o),
(348,505,o),
(255,505,cs),
(114,505,l),
(114,605,l),
(302,605,l),
(302,635,l),
(114,635,l),
(114,730,l),
(76,730,l),
(76,635,l),
(22,635,l),
(22,605,l),
(76,605,l),
(76,0,l)
);
}
);
width = 480;
},
{
anchors = (
{
name = bottom;
pos = (250,0);
},
{
name = center;
pos = (250,250);
},
{
name = ogonek;
pos = (466,10);
},
{
name = top;
pos = (105,730);
},
{
name = topright;
pos = (500,500);
}
);
layerId = m003;
shapes = (
{
closed = 1;
nodes = (
(134,0,l),
(134,427,l),
(167,428,o),
(242,428,o),
(275,427,cs),
(316,426,o),
(351,396,o),
(351,319,cs),
(351,0,l),
(429,0,l),
(430,83,o),
(430,246,o),
(429,329,cs),
(428,445,o),
(361,505,o),
(275,505,cs),
(134,505,l),
(134,585,l),
(302,585,l),
(302,655,l),
(134,655,l),
(134,730,l),
(56,730,l),
(56,655,l),
(22,655,l),
(22,585,l),
(56,585,l),
(56,0,l)
);
}
);
width = 480;
},
{
anchors = (
{
name = bottom;
pos = (250,0);
},
{
name = center;
pos = (250,250);
},
{
name = ogonek;
pos = (466,10);
},
{
name = top;
pos = (105,730);
},
{
name = topright;
pos = (500,500);
}
);
layerId = m01;
shapes = (
{
closed = 1;
nodes = (
(154,0,l),
(154,397,l),
(191,398,o),
(247,398,o),
(274,397,cs),
(303,396,o),
(331,382,o),
(331,319,cs),
(331,0,l),
(449,0,l),
(450,83,o),
(450,246,o),
(449,329,cs),
(448,455,o),
(363,515,o),
(275,515,cs),
(154,515,l),
(154,585,l),
(302,585,l),
(302,685,l),
(154,685,l),
(154,730,l),
(36,730,l),
(36,685,l),
(22,685,l),
(22,585,l),
(36,585,l),
(36,0,l)
);
}
);
width = 480;
}
);
unicode = 295;
},
{
color = 4;
glyphname = i;
kernLeft = si;
kernRight = si;
lastChange = "2023-04-06 11:04:35 +0000";
layers = (
{
anchors = (
{
name = bottom;
pos = (105,0);
}
);
layerId = m01;
shapes = (
{
closed = 1;
nodes = (
(46,0,l),
(164,0,l),
(164,500,l),
(46,500,l)
);
},
{
closed = 1;
nodes = (
(43,565,l),
(167,565,l),
(167,691,l),
(43,691,l)
);
}
);
width = 210;
},
{
anchors = (
{
name = bottom;
pos = (105,0);
}
);
layerId = m002;
shapes = (
{
closed = 1;
nodes = (
(86,0,l),
(124,0,l),
(124,500,l),
(86,500,l)
);
},
{
closed = 1;
nodes = (
(73,585,l),
(137,585,l),
(137,651,l),
(73,651,l)
);
}
);
width = 210;
},
{
anchors = (
{
name = bottom;
pos = (105,0);
}
);
layerId = m003;
shapes = (
{
closed = 1;
nodes = (
(66,0,l),
(144,0,l),
(144,500,l),
(66,500,l)
);
},
{
closed = 1;
nodes = (
(63,565,l),
(147,565,l),
(147,651,l),
(63,651,l)
);
}
);
width = 210;
}
);
unicode = 105;
},
{
color = 4;
glyphname = idotless;
kernLeft = si;
kernRight = si;
lastChange = "2023-04-06 11:04:35 +0000";
layers = (
{
anchors = (
{
name = bottom;
pos = (110,0);
},
{
name = ogonek;
pos = (110,0);
},
{
name = top;
pos = (110,520);
}
);
layerId = m01;
shapes = (
{
closed = 1;
nodes = (
(51,0,l),
(169,0,l),
(169,500,l),
(51,500,l)
);
}
);
width = 220;
},
{
anchors = (
{
name = bottom;
pos = (110,0);
},
{
name = ogonek;
pos = (110,0);
},
{
name = top;
pos = (110,520);
}
);
layerId = m002;
shapes = (
{
closed = 1;
nodes = (
(91,0,l),
(129,0,l),
(129,500,l),
(91,500,l)
);
}
);
width = 220;
},
{
anchors = (
{
name = bottom;
pos = (110,0);
},
{
name = ogonek;
pos = (110,0);
},
{
name = top;
pos = (110,520);
}
);
layerId = m003;
shapes = (
{
closed = 1;
nodes = (
(71,0,l),
(149,0,l),
(149,500,l),
(71,500,l)
);
}
);
width = 220;
}
);
unicode = 305;
},
{
color = 4;
glyphname = ij;
kernLeft = si;
kernRight = si;
lastChange = "2023-04-06 11:04:35 +0000";
layers = (
{
anchors = (
{
name = bottom;
pos = (110,0);
}
);
layerId = m01;
shapes = (
{
closed = 1;
nodes = (
(51,0,l),
(169,0,l),
(169,500,l),
(51,500,l)
);
},
{
closed = 1;
nodes = (
(46,565,l),
(364,565,l),
(364,691,l),
(46,691,l)
);
},
{
closed = 1;
nodes = (
(285,-205,o),
(359,-164,o),
(359,-37,cs),
(359,500,l),
(241,500,l),
(241,-12,ls),
(241,-64,o),
(220,-79,o),
(203,-81,cs),
(195,-82,o),
(183,-82,o),
(175,-81,c),
(175,-205,l),
(182,-205,o),
(197,-205,o),
(205,-205,cs)
);
}
);
width = 410;
},
{
anchors = (
{
name = bottom;
pos = (110,0);
}
);
layerId = m002;
shapes = (
{
closed = 1;
nodes = (
(91,0,l),
(129,0,l),
(129,500,l),
(91,500,l)
);
},
{
closed = 1;
nodes = (
(86,606,l),
(314,606,l),
(314,650,l),
(86,650,l)
);
},
{
closed = 1;
nodes = (
(256,-205,o),
(309,-161,o),
(309,-37,cs),
(309,500,l),
(271,500,l),
(271,-22,ls),
(271,-133,o),
(242,-160,o),
(197,-162,cs),
(194,-162,o),
(190,-162,o),
(185,-162,c),
(185,-205,l),
(189,-205,o),
(192,-205,o),
(195,-205,cs)
);
}
);
width = 400;
},
{
anchors = (
{
name = bottom;
pos = (110,0);
}
);
layerId = m003;
shapes = (
{
closed = 1;
nodes = (
(71,0,l),
(149,0,l),
(149,500,l),
(71,500,l)
);
},
{
closed = 1;
nodes = (
(66,569,l),
(334,569,l),
(334,653,l),
(66,653,l)
);
},
{
closed = 1;
nodes = (
(270,-205,o),
(329,-155,o),
(329,-37,c),
(329,500,l),
(251,500,l),
(251,-22,l),
(251,-88,o),
(227,-117,o),
(195,-121,cs),
(187,-122,o),
(173,-122,o),
(165,-121,c),
(165,-205,l),
(173,-205,o),
(187,-205,o),
(195,-205,cs)
);
}
);
width = 400;
}
);
unicode = 307;
},
{
color = 4;
glyphname = iogonek;
kernLeft = si;
kernRight = si;
lastChange = "2023-04-06 11:04:35 +0000";
layers = (
{
anchors = (
{
name = bottom;
pos = (110,0);
},
{
name = ogonek;
pos = (110,0);
},
{
name = top;
pos = (110,680);
}
);
layerId = m002;
shapes = (
{
closed = 1;
nodes = (
(91,0,l),
(58,-120,l),
(158,-120,l),
(158,-86,l),
(100,-86,l),
(129,0,l),
(129,500,l),
(91,500,l)
);
},
{
closed = 1;
nodes = (
(143,584,l),
(143,650,l),
(77,650,l),
(77,584,l)
);
}
);
width = 220;
},
{
anchors = (
{
name = bottom;
pos = (110,0);
},
{
name = ogonek;
pos = (110,0);
},
{
name = top;
pos = (110,520);
}
);
layerId = m003;
shapes = (
{
closed = 1;
nodes = (
(71,0,l),
(33,-120,l),
(183,-120,l),
(183,-70,l),
(129,-70,l),
(149,0,l),
(149,500,l),
(71,500,l)
);
},
{
closed = 1;
nodes = (
(162,576,l),
(162,680,l),
(58,680,l),
(58,576,l)
);
}
);
width = 220;
},
{
anchors = (
{
name = bottom;
pos = (110,0);
},
{
name = ogonek;
pos = (110,0);
},
{
name = top;
pos = (110,680);
}
);
layerId = m01;
shapes = (
{
closed = 1;
nodes = (
(51,0,l),
(13,-120,l),
(213,-120,l),
(213,-43,l),
(154,-43,l),
(169,0,l),
(169,500,l),
(51,500,l)
);
},
{
closed = 1;
nodes = (
(172,556,l),
(172,680,l),
(48,680,l),
(48,556,l)
);
}
);
width = 220;
}
);
unicode = 303;
},
{
color = 4;
glyphname = j;
kernLeft = sj;
kernRight = si;
lastChange = "2023-04-06 11:04:35 +0000";
layers = (
{
layerId = m01;
shapes = (
{
closed = 1;
nodes = (
(63,565,l),
(187,565,l),
(187,691,l),
(63,691,l)
);
},
{
closed = 1;
nodes = (
(110,-205,o),
(184,-164,o),
(184,-37,cs),
(184,500,l),
(66,500,l),
(66,-12,ls),
(66,-64,o),
(45,-79,o),
(28,-81,cs),
(20,-82,o),
(8,-82,o),
(0,-81,c),
(0,-205,l),
(8,-205,o),
(22,-205,o),
(30,-205,cs)
);
}
);
width = 240;
},
{
layerId = m002;
shapes = (
{
closed = 1;
nodes = (
(73,585,l),
(137,585,l),
(137,651,l),
(73,651,l)
);
},
{
closed = 1;
nodes = (
(72,-205,o),
(124,-171,o),
(124,-37,cs),
(124,500,l),
(86,500,l),
(86,-22,ls),
(86,-133,o),
(57,-160,o),
(12,-161,cs),
(9,-161,o),
(5,-161,o),
(0,-161,c),
(0,-205,l),
(4,-205,o),
(7,-205,o),
(10,-205,cs)
);
}
);
width = 200;
},
{
layerId = m003;
shapes = (
{
closed = 1;
nodes = (
(63,565,l),
(147,565,l),
(147,651,l),
(63,651,l)
);
},
{
closed = 1;
nodes = (
(85,-205,o),
(144,-155,o),
(144,-37,c),
(144,500,l),
(66,500,l),
(66,-22,l),
(66,-88,o),
(42,-117,o),
(10,-121,cs),
(2,-122,o),
(-12,-122,o),
(-20,-121,c),
(-20,-205,l),
(-12,-205,o),
(2,-205,o),
(10,-205,cs)
);
}
);
width = 200;
}
);
unicode = 106;
},
{
color = 4;
glyphname = jdotless;
kernLeft = sj;
kernRight = si;
lastChange = "2023-04-06 11:04:35 +0000";
layers = (
{
anchors = (
{
name = bottom;
pos = (85,-200);
},
{
name = top;
pos = (105,520);
}
);
layerId = m01;
shapes = (
{
closed = 1;
nodes = (
(90,-205,o),
(164,-164,o),
(164,-37,cs),
(164,500,l),
(46,500,l),
(46,-12,ls),
(46,-64,o),
(25,-79,o),
(8,-81,cs),
(0,-82,o),
(-12,-82,o),
(-20,-81,c),
(-20,-205,l),
(-12,-205,o),
(2,-205,o),
(10,-205,cs)
);
}
);
width = 200;
},
{
anchors = (
{
name = bottom;
pos = (85,-200);
},
{
name = top;
pos = (105,520);
}
);
layerId = m002;
shapes = (
{
closed = 1;
nodes = (
(82,-205,o),
(124,-161,o),
(124,-37,cs),
(124,500,l),
(86,500,l),
(86,-22,ls),
(86,-133,o),
(57,-160,o),
(12,-161,cs),
(9,-161,o),
(5,-161,o),
(0,-161,c),
(0,-205,l),
(4,-205,o),
(7,-205,o),
(10,-205,cs)
);
}
);
width = 200;
},
{
anchors = (
{
name = bottom;
pos = (85,-200);
},
{
name = top;
pos = (105,520);
}
);
layerId = m003;
shapes = (
{
closed = 1;
nodes = (
(85,-205,o),
(144,-155,o),
(144,-37,c),
(144,500,l),
(66,500,l),
(66,-22,l),
(66,-88,o),
(42,-117,o),
(10,-121,cs),
(2,-122,o),
(-12,-122,o),
(-20,-121,c),
(-20,-205,l),
(-12,-205,o),
(2,-205,o),
(10,-205,cs)
);
}
);
width = 200;
}
);
unicode = 567;
},
{
color = 4;
glyphname = k;
kernLeft = sb;
kernRight = sk;
lastChange = "2023-04-06 11:04:35 +0000";
layers = (
{
anchors = (
{
name = bottom;
pos = (245,0);
},
{
name = top;
pos = (245,800);
}
);
layerId = m01;
shapes = (
{
closed = 1;
nodes = (
(40,0,l),
(157,0,l),
(157,219,l),
(128,214,l),
(311,0,l),
(463,0,l),
(217,273,l),
(449,500,l),
(297,500,l),
(111,322,l),
(157,309,l),
(157,730,l),
(40,730,l)
);
}
);
width = 490;
},
{
anchors = (
{
name = bottom;
pos = (235,0);
},
{
name = top;
pos = (235,800);
}
);
layerId = m002;
shapes = (
{
closed = 1;
nodes = (
(78,0,l),
(115,0,l),
(115,227,l),
(145,258,l),
(366,0,l),
(414,0,l),
(170,286,l),
(374,500,l),
(323,500,l),
(87,251,l),
(115,252,l),
(115,730,l),
(78,730,l)
);
}
);
width = 470;
},
{
anchors = (
{
name = bottom;
pos = (235,0);
},
{
name = top;
pos = (235,800);
}
);
layerId = m003;
shapes = (
{
closed = 1;
nodes = (
(58,0,l),
(135,0,l),
(135,213,l),
(153,231,l),
(334,0,l),
(430,0,l),
(205,287,l),
(408,500,l),
(309,500,l),
(104,285,l),
(135,273,l),
(135,730,l),
(58,730,l)
);
}
);
width = 470;
}
);
unicode = 107;
},
{
color = 4;
glyphname = l;
kernLeft = sb;
kernRight = st;
lastChange = "2023-04-06 11:04:35 +0000";
layers = (
{
anchors = (
{
name = bottom;
pos = (150,0);
},
{
name = center;
pos = (120,400);
},
{
name = top;
pos = (108,730);
},
{
name = topright;
pos = (230,800);
}
);
layerId = m01;
shapes = (
{
closed = 1;
nodes = (
(235,-10,l),
(235,108,l),
(228,108,o),
(217,108,o),
(209,108,cs),
(188,108,o),
(165,128,o),
(165,180,cs),
(165,730,l),
(51,730,l),
(51,158,ls),
(51,33,o),
(126,-10,o),
(207,-10,cs)
);
}
);
width = 260;
},
{
anchors = (
{
name = bottom;
pos = (140,0);
},
{
name = center;
pos = (110,400);
},
{
name = top;
pos = (96,730);
},
{
name = topright;
pos = (220,800);
}
);
layerId = m002;
shapes = (
{
closed = 1;
nodes = (
(205,-10,l),
(205,25,l),
(201,25,o),
(197,25,o),
(195,25,cs),
(150,26,o),
(115,54,o),
(115,180,cs),
(115,730,l),
(77,730,l),
(77,158,ls),
(77,34,o),
(129,-10,o),
(197,-10,cs)
);
}
);
width = 250;
},
{
anchors = (
{
name = bottom;
pos = (140,0);
},
{
name = center;
pos = (110,400);
},
{
name = top;
pos = (98,730);
},
{
name = topright;
pos = (220,800);
}
);
layerId = m003;
shapes = (
{
closed = 1;
nodes = (
(225,-10,l),
(225,68,l),
(217,68,o),
(205,68,o),
(197,69,cs),
(165,73,o),
(135,104,o),
(135,180,cs),
(135,730,l),
(61,730,l),
(61,158,ls),
(61,40,o),
(122,-10,o),
(197,-10,c)
);
}
);
width = 250;
}
);
unicode = 108;
},
{
color = 4;
glyphname = lslash;
kernLeft = sb;
kernRight = st;
lastChange = "2023-04-06 11:04:35 +0000";
layers = (
{
anchors = (
{
name = bottom;
pos = (190,0);
},
{
name = center;
pos = (160,400);
},
{
name = top;
pos = (148,730);
},
{
name = topright;
pos = (270,800);
}
);
layerId = m01;
shapes = (
{
closed = 1;
nodes = (
(275,-10,l),
(275,108,l),
(266,108,o),
(258,108,o),
(249,108,cs),
(228,108,o),
(205,128,o),
(205,180,cs),
(205,353,l),
(292,408,l),
(292,532,l),
(205,477,l),
(205,730,l),
(91,730,l),
(91,405,l),
(40,373,l),
(40,249,l),
(91,281,l),
(91,158,ls),
(91,33,o),
(166,-10,o),
(247,-10,cs)
);
}
);
width = 340;
},
{
anchors = (
{
name = bottom;
pos = (180,0);
},
{
name = center;
pos = (150,400);
},
{
name = top;
pos = (136,730);
},
{
name = topright;
pos = (260,800);
}
);
layerId = m002;
shapes = (
{
closed = 1;
nodes = (
(245,-10,l),
(245,25,l),
(242,25,o),
(238,25,o),
(235,25,cs),
(190,26,o),
(155,54,o),
(155,180,cs),
(155,344,l),
(292,430,l),
(292,472,l),
(155,386,l),
(155,730,l),
(117,730,l),
(117,362,l),
(40,313,l),
(40,271,l),
(117,320,l),
(117,158,ls),
(117,34,o),
(169,-10,o),
(237,-10,cs)
);
}
);
width = 340;
},
{
anchors = (
{
name = bottom;
pos = (180,0);
},
{
name = center;
pos = (150,400);
},
{
name = top;
pos = (138,730);
},
{
name = topright;
pos = (260,800);
}
);
layerId = m003;
shapes = (
{
closed = 1;
nodes = (
(265,-10,l),
(265,68,l),
(257,68,o),
(245,68,o),
(237,69,cs),
(205,73,o),
(175,104,o),
(175,180,cs),
(175,334,l),
(292,408,l),
(292,492,l),
(175,418,l),
(175,730,l),
(101,730,l),
(101,371,l),
(40,333,l),
(40,249,l),
(101,287,l),
(101,158,ls),
(101,40,o),
(162,-10,o),
(237,-10,cs)
);
}
);
width = 340;
}
);
unicode = 322;
},
{
color = 4;
glyphname = m;
kernLeft = sb;
kernRight = so;
lastChange = "2023-04-06 11:04:35 +0000";
layers = (
{
layerId = m01;
shapes = (
{
closed = 1;
nodes = (
(150,0,l),
(150,384,l),
(265,384,l),
(265,0,l),
(381,0,l),
(381,384,l),
(427,384,ls),
(465,384,o),
(500,362,o),
(500,307,cs),
(500,0,l),
(616,0,l),
(617,83,o),
(617,236,o),
(616,319,cs),
(615,436,o),
(528,505,o),
(421,505,cs),
(34,505,l),
(34,0,l)
);
}
);
width = 650;
},
{
layerId = m002;
shapes = (
{
closed = 1;
nodes = (
(100,0,l),
(100,464,l),
(295,464,l),
(295,0,l),
(331,0,l),
(331,464,l),
(398,464,ls),
(470,464,o),
(530,427,o),
(530,327,cs),
(530,0,l),
(566,0,l),
(567,153,o),
(567,196,o),
(566,329,cs),
(565,437,o),
(503,505,o),
(401,505,cs),
(64,505,l),
(64,0,l)
);
}
);
width = 630;
},
{
layerId = m003;
shapes = (
{
closed = 1;
nodes = (
(120,0,l),
(120,424,l),
(275,424,l),
(275,0,l),
(351,0,l),
(351,424,l),
(418,424,ls),
(469,424,o),
(510,386,o),
(510,327,cs),
(510,0,l),
(586,0,l),
(587,83,o),
(587,246,o),
(586,329,cs),
(585,432,o),
(529,505,o),
(421,505,cs),
(44,505,l),
(44,0,l)
);
}
);
width = 630;
}
);
unicode = 109;
},
{
color = 4;
glyphname = n;
kernLeft = so;
kernRight = so;
lastChange = "2023-04-06 11:04:35 +0000";
layers = (
{
anchors = (
{
name = bottom;
pos = (250,0);
},
{
name = center;
pos = (250,250);
},
{
name = ogonek;
pos = (471,10);
},
{
name = top;
pos = (250,520);
},
{
name = topright;
pos = (505,500);
}
);
layerId = m01;
shapes = (
{
closed = 1;
nodes = (
(468,83,o),
(468,251,o),
(467,334,cs),
(466,451,o),
(390,503,o),
(294,510,cs),
(280,511,o),
(221,511,o),
(206,510,cs),
(110,503,o),
(34,451,o),
(33,334,cs),
(33,268,o),
(33,66,o),
(33,0,c),
(151,0,l),
(151,132,o),
(151,182,o),
(151,314,cs),
(151,367,o),
(180,390,o),
(208,392,cs),
(223,393,o),
(278,393,o),
(292,392,cs),
(320,390,o),
(349,367,o),
(349,314,cs),
(349,182,o),
(349,132,o),
(349,0,c),
(467,0,l)
);
}
);
width = 500;
},
{
anchors = (
{
name = bottom;
pos = (250,0);
},
{
name = center;
pos = (250,250);
},
{
name = ogonek;
pos = (471,10);
},
{
name = top;
pos = (250,520);
},
{
name = topright;
pos = (505,500);
}
);
layerId = m002;
shapes = (
{
closed = 1;
nodes = (
(428,83,o),
(428,251,o),
(427,334,cs),
(426,466,o),
(365,506,o),
(292,510,cs),
(255,512,o),
(245,512,o),
(208,510,cs),
(135,505,o),
(74,466,o),
(73,334,cs),
(72,268,o),
(73,66,o),
(73,0,c),
(111,0,l),
(111,132,o),
(111,192,o),
(111,324,cs),
(111,445,o),
(156,468,o),
(206,472,cs),
(243,474,o),
(257,474,o),
(294,472,cs),
(343,470,o),
(389,447,o),
(389,324,cs),
(389,192,o),
(389,132,o),
(389,0,c),
(427,0,l)
);
}
);
width = 500;
},
{
anchors = (
{
name = bottom;
pos = (250,0);
},
{
name = center;
pos = (250,250);
},
{
name = ogonek;
pos = (471,10);
},
{
name = top;
pos = (250,520);
},
{
name = topright;
pos = (505,500);
}
);
layerId = m003;
shapes = (
{
closed = 1;
nodes = (
(448,83,o),
(448,251,o),
(447,334,cs),
(446,450,o),
(379,505,o),
(293,510,cs),
(256,512,o),
(244,512,o),
(207,510,cs),
(121,504,o),
(54,450,o),
(53,334,cs),
(53,268,o),
(53,66,o),
(53,0,c),
(131,0,l),
(131,132,o),
(131,192,o),
(131,324,cs),
(131,401,o),
(166,429,o),
(207,432,cs),
(244,434,o),
(256,434,o),
(293,432,cs),
(334,430,o),
(369,401,o),
(369,324,cs),
(369,192,o),
(369,132,o),
(369,0,c),
(447,0,l)
);
}
);
width = 500;
}
);
unicode = 110;
},
{
color = 4;
glyphname = o;
kernLeft = so;
kernRight = so;
lastChange = "2023-04-06 13:54:47 +0000";
layers = (
{
anchors = (
{
name = bottom;
pos = (250,0);
},
{
name = center;
pos = (250,250);
},
{
name = ogonek;
pos = (471,10);
},
{
name = top;
pos = (250,520);
},
{
name = topright;
pos = (505,500);
}
);
layerId = m01;
shapes = (
{
closed = 1;
nodes = (
(318,391,o),
(349,375,o),
(349,339,cs),
(350,259,o),
(350,244,o),
(349,164,cs),
(348,118,o),
(318,106,o),
(292,104,cs),
(274,103,o),
(226,103,o),
(208,104,cs),
(182,106,o),
(152,118,o),
(151,164,cs),
(150,240,o),
(150,263,o),
(151,339,cs),
(151,375,o),
(182,390,o),
(208,392,cs),
(247,394,o),
(254,394,o),
(291,392,cs)
);
},
{
closed = 1;
nodes = (
(396,-7,o),
(466,62,o),
(467,144,cs),
(468,224,o),
(468,279,o),
(467,359,cs),
(466,441,o),
(395,503,o),
(295,510,cs),
(256,513,o),
(241,512,o),
(206,510,cs),
(105,503,o),
(34,441,o),
(33,359,cs),
(32,283,o),
(32,230,o),
(33,144,cs),
(34,62,o),
(104,-7,o),
(206,-14,cs),
(224,-15,o),
(276,-15,o),
(294,-14,cs)
);
}
);
width = 500;
},
{
anchors = (
{
name = bottom;
pos = (245,0);
},
{
name = center;
pos = (245,250);
},
{
name = ogonek;
pos = (466,10);
},
{
name = top;
pos = (245,520);
},
{
name = topright;
pos = (500,500);
}
);
layerId = m002;
shapes = (
{
closed = 1;
nodes = (
(347,469,o),
(382,425,o),
(384,349,cs),
(386,269,o),
(386,234,o),
(384,154,cs),
(382,67,o),
(347,30,o),
(289,24,cs),
(271,22,o),
(219,22,o),
(201,24,cs),
(143,30,o),
(108,67,o),
(106,154,cs),
(104,234,o),
(104,269,o),
(106,349,cs),
(108,423,o),
(141,468,o),
(201,472,cs),
(238,474,o),
(252,474,o),
(289,472,cs)
);
},
{
closed = 1;
nodes = (
(359,-9,o),
(420,52,o),
(422,144,cs),
(424,234,o),
(424,269,o),
(422,359,cs),
(420,451,o),
(360,506,o),
(287,510,cs),
(250,512,o),
(240,512,o),
(203,510,cs),
(130,505,o),
(69,451,o),
(68,359,cs),
(67,269,o),
(67,234,o),
(68,144,cs),
(69,52,o),
(131,-9,o),
(203,-14,cs),
(221,-15,o),
(269,-15,o),
(287,-14,cs)
);
}
);
width = 490;
},
{
anchors = (
{
name = bottom;
pos = (245,0);
},
{
name = center;
pos = (245,250);
},
{
name = ogonek;
pos = (466,10);
},
{
name = top;
pos = (245,520);
},
{
name = topright;
pos = (500,500);
}
);
layerId = m003;
shapes = (
{
closed = 1;
nodes = (
(329,430,o),
(363,389,o),
(364,349,cs),
(365,269,o),
(365,234,o),
(364,154,cs),
(363,104,o),
(329,67,o),
(288,64,cs),
(270,63,o),
(220,63,o),
(202,64,cs),
(161,67,o),
(127,104,o),
(126,154,cs),
(125,240,o),
(125,273,o),
(126,349,cs),
(127,389,o),
(161,429,o),
(202,432,cs),
(239,434,o),
(251,434,o),
(288,432,cs)
);
},
{
closed = 1;
nodes = (
(374,-8,o),
(440,58,o),
(442,144,cs),
(444,224,o),
(444,279,o),
(442,359,cs),
(440,445,o),
(374,505,o),
(288,510,cs),
(251,512,o),
(239,512,o),
(202,510,cs),
(116,504,o),
(49,445,o),
(48,359,cs),
(47,293,o),
(47,210,o),
(48,144,cs),
(49,58,o),
(116,-8,o),
(202,-14,cs),
(220,-15,o),
(270,-15,o),
(288,-14,cs)
);
}
);
width = 490;
}
);
unicode = 111;
},
{
color = 4;
glyphname = oslash;
kernLeft = so;
kernRight = so;
lastChange = "2023-04-06 11:04:35 +0000";
layers = (
{
anchors = (
{
name = bottom;
pos = (260,0);
},
{
name = center;
pos = (260,250);
},
{
name = ogonek;
pos = (481,10);
},
{
name = top;
pos = (260,520);
},
{
name = topright;
pos = (515,500);
}
);
layerId = m01;
shapes = (
{
closed = 1;
nodes = (
(316,391,o),
(331,387,o),
(343,376,c),
(160,256,l),
(160,280,o),
(161,303,o),
(161,339,cs),
(161,375,o),
(192,390,o),
(218,392,cs),
(257,394,o),
(264,394,o),
(301,392,cs)
);
},
{
closed = 1;
nodes = (
(65,69,l),
(93,24,o),
(147,-9,o),
(216,-14,cs),
(234,-15,o),
(286,-15,o),
(304,-14,cs),
(406,-7,o),
(476,62,o),
(477,144,cs),
(478,218,o),
(478,270,o),
(477,341,c),
(500,356,l),
(500,480,l),
(446,444,l),
(416,481,o),
(366,506,o),
(305,510,cs),
(266,513,o),
(251,512,o),
(216,510,cs),
(115,503,o),
(44,441,o),
(43,359,cs),
(42,294,o),
(42,246,o),
(43,179,c),
(20,164,l),
(20,40,l)
);
},
{
closed = 1;
nodes = (
(360,264,l),
(360,235,o),
(360,211,o),
(359,164,cs),
(358,118,o),
(328,106,o),
(302,104,cs),
(284,103,o),
(236,103,o),
(218,104,cs),
(198,106,o),
(176,113,o),
(166,136,c)
);
}
);
width = 520;
},
{
anchors = (
{
name = bottom;
pos = (255,0);
},
{
name = center;
pos = (255,250);
},
{
name = ogonek;
pos = (476,10);
},
{
name = top;
pos = (255,520);
},
{
name = topright;
pos = (510,500);
}
);
layerId = m002;
shapes = (
{
closed = 1;
nodes = (
(352,469,o),
(386,432,o),
(393,368,c),
(115,186,l),
(114,245,o),
(114,280,o),
(116,349,cs),
(118,423,o),
(151,468,o),
(211,472,cs),
(248,474,o),
(262,474,o),
(299,472,cs)
);
},
{
closed = 1;
nodes = (
(80,120,l),
(90,42,o),
(147,-9,o),
(213,-14,cs),
(231,-15,o),
(279,-15,o),
(297,-14,cs),
(369,-9,o),
(430,52,o),
(432,144,cs),
(434,232,o),
(434,267,o),
(432,352,c),
(500,397,l),
(500,439,l),
(429,392,l),
(415,464,o),
(361,507,o),
(297,510,cs),
(260,512,o),
(250,512,o),
(213,510,cs),
(140,505,o),
(79,451,o),
(78,359,cs),
(77,275,o),
(77,239,o),
(78,161,c),
(20,123,l),
(20,81,l)
);
},
{
closed = 1;
nodes = (
(395,328,l),
(396,262,o),
(396,226,o),
(394,154,cs),
(392,67,o),
(357,30,o),
(299,24,cs),
(281,22,o),
(229,22,o),
(211,24,cs),
(155,30,o),
(121,64,o),
(116,144,c)
);
}
);
width = 520;
},
{
anchors = (
{
name = bottom;
pos = (255,0);
},
{
name = center;
pos = (255,250);
},
{
name = ogonek;
pos = (476,10);
},
{
name = top;
pos = (255,520);
},
{
name = topright;
pos = (510,500);
}
);
layerId = m003;
shapes = (
{
closed = 1;
nodes = (
(330,430,o),
(358,404,o),
(369,374,c),
(135,220,l),
(135,264,o),
(135,296,o),
(136,349,cs),
(137,389,o),
(171,429,o),
(212,432,cs),
(249,434,o),
(261,434,o),
(298,432,cs)
);
},
{
closed = 1;
nodes = (
(67,91,l),
(89,32,o),
(145,-9,o),
(212,-14,cs),
(230,-15,o),
(280,-15,o),
(298,-14,cs),
(384,-8,o),
(450,58,o),
(452,144,cs),
(454,219,o),
(454,272,o),
(452,345,c),
(500,376,l),
(500,460,l),
(439,420,l),
(415,472,o),
(362,506,o),
(298,510,cs),
(261,512,o),
(249,512,o),
(212,510,cs),
(126,504,o),
(59,445,o),
(58,359,cs),
(57,301,o),
(57,230,o),
(58,169,c),
(20,144,l),
(20,60,l)
);
},
{
closed = 1;
nodes = (
(375,293,l),
(375,247,o),
(375,213,o),
(374,154,cs),
(373,104,o),
(339,67,o),
(298,64,cs),
(280,63,o),
(230,63,o),
(212,64,cs),
(176,67,o),
(145,96,o),
(138,137,c)
);
}
);
width = 520;
}
);
unicode = 248;
},
{
color = 4;
glyphname = oe;
kernLeft = so;
kernRight = so;
lastChange = "2023-04-06 11:04:35 +0000";
layers = (
{
anchors = (
{
name = bottom;
pos = (240,0);
},
{
name = center;
pos = (760,250);
},
{
name = ogonek;
pos = (448,10);
},
{
name = top;
pos = (240,520);
},
{
name = topright;
pos = (1010,500);
}
);
layerId = m01;
shapes = (
{
closed = 1;
nodes = (
(318,390,o),
(349,375,o),
(349,339,cs),
(349,164,l),
(349,163,ls),
(349,117,o),
(318,106,o),
(292,104,cs),
(278,103,o),
(223,103,o),
(208,104,cs),
(182,106,o),
(151,118,o),
(151,164,cs),
(151,339,ls),
(151,375,o),
(182,390,o),
(208,392,cs),
(233,394,o),
(268,394,o),
(292,392,cs)
);
},
{
closed = 1;
nodes = (
(33,62,o),
(104,-7,o),
(206,-14,cs),
(221,-15,o),
(280,-15,o),
(294,-14,cs),
(339,-11,o),
(381,6,o),
(407,37,c),
(434,5,o),
(478,-13,o),
(525,-15,cs),
(550,-16,o),
(586,-16,o),
(611,-15,cs),
(699,-11,o),
(777,45,o),
(777,140,c),
(657,140,l),
(657,114,o),
(630,105,o),
(600,103,cs),
(586,102,o),
(541,102,o),
(526,103,cs),
(500,105,o),
(468,116,o),
(468,160,cs),
(468,198,l),
(778,198,l),
(778,271,o),
(778,325,o),
(777,354,cs),
(775,446,o),
(702,506,o),
(603,510,cs),
(578,511,o),
(547,511,o),
(524,510,cs),
(478,508,o),
(425,491,o),
(408,461,c),
(391,491,o),
(339,507,o),
(294,510,cs),
(280,511,o),
(221,511,o),
(206,510,cs),
(105,503,o),
(33,441,o),
(33,359,cs),
(33,144,ls)
);
},
{
closed = 1;
nodes = (
(466,382,o),
(500,390,o),
(526,392,cs),
(547,394,o),
(580,394,o),
(599,392,cs),
(627,389,o),
(659,380,o),
(659,334,cs),
(659,304,l),
(468,304,l),
(467,339,ls)
);
}
);
width = 810;
},
{
anchors = (
{
name = bottom;
pos = (240,0);
},
{
name = center;
pos = (760,250);
},
{
name = ogonek;
pos = (448,10);
},
{
name = top;
pos = (240,520);
},
{
name = topright;
pos = (1010,500);
}
);
layerId = m002;
shapes = (
{
closed = 1;
nodes = (
(354,467,o),
(389,422,o),
(389,349,cs),
(389,154,l),
(389,153,ls),
(389,67,o),
(352,28,o),
(294,23,cs),
(260,20,o),
(241,20,o),
(206,23,cs),
(148,28,o),
(111,67,o),
(111,154,cs),
(111,349,ls),
(111,423,o),
(146,467,o),
(206,472,cs),
(241,475,o),
(260,475,o),
(294,472,cs)
);
},
{
closed = 1;
nodes = (
(73,42,o),
(136,-10,o),
(208,-14,cs),
(243,-16,o),
(258,-16,o),
(292,-14,cs),
(337,-11,o),
(383,13,o),
(409,69,c),
(433,13,o),
(480,-13,o),
(526,-15,cs),
(554,-16,o),
(573,-16,o),
(600,-15,cs),
(674,-12,o),
(737,28,o),
(737,140,c),
(697,140,l),
(697,52,o),
(655,27,o),
(602,22,cs),
(573,19,o),
(554,19,o),
(524,22,cs),
(466,28,o),
(426,67,o),
(427,153,cs),
(428,239,l),
(738,239,l),
(738,312,o),
(738,325,o),
(737,354,cs),
(735,466,o),
(673,503,o),
(599,510,cs),
(567,513,o),
(558,513,o),
(526,510,cs),
(480,506,o),
(425,483,o),
(408,426,c),
(392,483,o),
(338,507,o),
(292,510,cs),
(258,512,o),
(243,512,o),
(208,510,cs),
(135,506,o),
(73,466,o),
(73,359,cs),
(73,144,ls)
);
},
{
closed = 1;
nodes = (
(426,422,o),
(468,467,o),
(524,472,cs),
(558,475,o),
(567,475,o),
(603,472,cs),
(659,467,o),
(699,430,o),
(699,344,cs),
(699,273,l),
(428,273,l),
(427,349,ls)
);
}
);
width = 810;
},
{
anchors = (
{
name = bottom;
pos = (240,0);
},
{
name = center;
pos = (760,250);
},
{
name = ogonek;
pos = (448,10);
},
{
name = top;
pos = (240,520);
},
{
name = topright;
pos = (1010,500);
}
);
layerId = m003;
shapes = (
{
closed = 1;
nodes = (
(334,429,o),
(369,389,o),
(369,349,c),
(369,154,l),
(369,153,l),
(368,103,o),
(334,67,o),
(293,64,cs),
(279,63,o),
(222,63,o),
(207,64,cs),
(166,67,o),
(131,104,o),
(131,154,cs),
(131,349,ls),
(131,389,o),
(166,429,o),
(207,432,cs),
(222,433,o),
(279,433,o),
(293,432,cs)
);
},
{
closed = 1;
nodes = (
(53,58,o),
(121,-8,o),
(207,-14,cs),
(222,-15,o),
(279,-15,o),
(293,-14,cs),
(339,-11,o),
(380,10,o),
(408,41,c),
(436,8,o),
(478,-13,o),
(525,-15,cs),
(550,-16,o),
(576,-16,o),
(601,-15,cs),
(687,-12,o),
(757,44,o),
(757,140,c),
(677,140,l),
(677,90,o),
(642,66,o),
(601,63,cs),
(587,62,o),
(540,62,o),
(525,63,cs),
(485,66,o),
(449,102,o),
(447,150,c),
(448,219,l),
(758,219,l),
(758,292,o),
(758,325,o),
(757,354,cs),
(755,450,o),
(687,504,o),
(601,510,cs),
(564,513,o),
(562,512,o),
(525,510,cs),
(478,507,o),
(436,489,o),
(408,458,c),
(380,488,o),
(339,507,o),
(293,510,cs),
(279,511,o),
(222,511,o),
(207,510,cs),
(121,504,o),
(53,445,o),
(53,359,cs),
(53,144,ls)
);
},
{
closed = 1;
nodes = (
(450,396,o),
(485,429,o),
(525,432,cs),
(562,434,o),
(564,435,o),
(601,432,cs),
(642,429,o),
(679,394,o),
(679,344,cs),
(679,293,l),
(448,293,l),
(447,349,l)
);
}
);
width = 810;
}
);
unicode = 339;
},
{
color = 4;
glyphname = p;
kernLeft = sp;
kernRight = so;
lastChange = "2023-04-08 13:43:57 +0000";
layers = (
{
layerId = m01;
shapes = (
{
closed = 1;
nodes = (
(159,-5,l),
(292,-5,ls),
(404,-5,o),
(464,69,o),
(465,151,cs),
(466,230,o),
(466,268,o),
(465,347,cs),
(464,430,o),
(392,505,o),
(291,505,cs),
(42,505,l),
(42,-200,l),
(159,-200,l)
);
},
{
closed = 1;
nodes = (
(159,388,l),
(198,389,o),
(264,389,o),
(290,388,cs),
(317,387,o),
(346,373,o),
(347,327,cs),
(348,275,o),
(348,223,o),
(347,171,cs),
(346,125,o),
(317,113,o),
(291,113,cs),
(159,113,l)
);
}
);
width = 500;
},
{
layerId = m002;
shapes = (
{
closed = 1;
nodes = (
(119,-5,l),
(270,-5,ls),
(368,-5,o),
(422,49,o),
(425,151,cs),
(427,230,o),
(427,268,o),
(425,347,cs),
(422,449,o),
(368,505,o),
(271,505,cs),
(82,505,l),
(82,-200,l),
(119,-200,l)
);
},
{
closed = 1;
nodes = (
(119,468,l),
(170,469,o),
(240,468,o),
(272,468,cs),
(350,467,o),
(384,424,o),
(387,337,cs),
(389,268,o),
(389,230,o),
(387,161,cs),
(385,75,o),
(349,33,o),
(271,33,cs),
(119,33,l)
);
}
);
width = 500;
},
{
layerId = m003;
shapes = (
{
closed = 1;
nodes = (
(139,-5,l),
(291,-5,ls),
(377,-5,o),
(444,65,o),
(445,151,cs),
(446,230,o),
(446,268,o),
(445,347,cs),
(444,433,o),
(377,505,o),
(291,505,cs),
(62,505,l),
(62,-200,l),
(139,-200,l)
);
},
{
closed = 1;
nodes = (
(139,428,l),
(171,429,o),
(259,429,o),
(291,428,cs),
(332,427,o),
(366,387,o),
(367,337,cs),
(368,278,o),
(368,220,o),
(367,161,cs),
(366,111,o),
(332,73,o),
(291,73,cs),
(139,73,l)
);
}
);
width = 500;
}
);
unicode = 112;
},
{
color = 4;
glyphname = thorn;
kernLeft = sp;
kernRight = so;
lastChange = "2023-04-06 11:04:35 +0000";
layers = (
{
layerId = m01;
shapes = (
{
closed = 1;
nodes = (
(158,-5,l),
(292,-5,ls),
(394,-5,o),
(464,69,o),
(465,151,cs),
(466,230,o),
(466,268,o),
(465,347,cs),
(464,430,o),
(392,505,o),
(291,505,cs),
(158,505,l),
(158,660,l),
(42,660,l),
(42,-160,l),
(158,-160,l)
);
},
{
closed = 1;
nodes = (
(158,388,l),
(197,389,o),
(264,389,o),
(290,388,cs),
(317,387,o),
(346,373,o),
(347,327,cs),
(348,275,o),
(348,223,o),
(347,171,cs),
(346,125,o),
(317,113,o),
(291,113,cs),
(158,113,l)
);
}
);
width = 500;
},
{
layerId = m002;
shapes = (
{
closed = 1;
nodes = (
(118,-5,l),
(270,-5,ls),
(362,-5,o),
(424,49,o),
(425,151,cs),
(426,230,o),
(426,268,o),
(425,347,cs),
(424,449,o),
(362,505,o),
(271,505,cs),
(118,505,l),
(118,660,l),
(82,660,l),
(82,-160,l),
(118,-160,l)
);
},
{
closed = 1;
nodes = (
(118,468,l),
(169,469,o),
(240,468,o),
(272,468,cs),
(350,467,o),
(387,424,o),
(387,337,cs),
(387,278,o),
(387,220,o),
(387,161,cs),
(387,75,o),
(349,33,o),
(271,33,cs),
(118,33,l)
);
}
);
width = 500;
},
{
layerId = m003;
shapes = (
{
closed = 1;
nodes = (
(138,-5,l),
(291,-5,ls),
(377,-5,o),
(444,65,o),
(445,151,cs),
(446,230,o),
(446,268,o),
(445,347,cs),
(444,433,o),
(377,505,o),
(291,505,cs),
(138,505,l),
(138,660,l),
(62,660,l),
(62,-160,l),
(138,-160,l)
);
},
{
closed = 1;
nodes = (
(138,428,l),
(170,429,o),
(259,429,o),
(291,428,cs),
(332,427,o),
(366,387,o),
(367,337,cs),
(368,278,o),
(368,220,o),
(367,161,cs),
(366,111,o),
(332,73,o),
(291,73,cs),
(138,73,l)
);
}
);
width = 500;
}
);
unicode = 254;
},
{
color = 4;
glyphname = q;
kernLeft = so;
kernRight = sq;
lastChange = "2023-04-06 11:04:35 +0000";
layers = (
{
layerId = m01;
shapes = (
{
closed = 1;
nodes = (
(456,-200,l),
(456,505,l),
(207,505,ls),
(106,505,o),
(34,430,o),
(33,347,cs),
(32,282,o),
(32,216,o),
(33,151,cs),
(34,69,o),
(94,-5,o),
(206,-5,cs),
(339,-5,l),
(339,-200,l)
);
},
{
closed = 1;
nodes = (
(150,223,o),
(150,275,o),
(151,327,cs),
(152,373,o),
(181,387,o),
(208,388,cs),
(234,389,o),
(300,389,o),
(339,388,c),
(339,113,l),
(207,113,ls),
(181,113,o),
(152,125,o),
(151,171,cs)
);
}
);
width = 500;
},
{
layerId = m002;
shapes = (
{
closed = 1;
nodes = (
(416,-200,l),
(416,505,l),
(227,505,ls),
(136,505,o),
(74,439,o),
(73,347,cs),
(72,272,o),
(72,226,o),
(73,151,cs),
(74,59,o),
(136,-5,o),
(228,-5,cs),
(379,-5,l),
(379,-200,l)
);
},
{
closed = 1;
nodes = (
(109,230,o),
(109,268,o),
(111,337,cs),
(114,424,o),
(156,466,o),
(226,468,cs),
(255,469,o),
(322,469,o),
(379,468,c),
(379,33,l),
(227,33,ls),
(152,33,o),
(113,75,o),
(111,161,cs)
);
}
);
width = 500;
},
{
layerId = m003;
shapes = (
{
closed = 1;
nodes = (
(436,-200,l),
(436,505,l),
(207,505,ls),
(121,505,o),
(54,433,o),
(53,347,cs),
(52,282,o),
(52,216,o),
(53,151,cs),
(54,65,o),
(121,-5,o),
(207,-5,cs),
(359,-5,l),
(359,-200,l)
);
},
{
closed = 1;
nodes = (
(130,220,o),
(130,278,o),
(131,337,cs),
(132,387,o),
(166,427,o),
(207,428,cs),
(239,429,o),
(327,429,o),
(359,428,c),
(359,73,l),
(207,73,ls),
(166,73,o),
(132,111,o),
(131,161,cs)
);
}
);
width = 500;
}
);
unicode = 113;
},
{
color = 4;
glyphname = r;
kernLeft = so;
kernRight = sf;
lastChange = "2023-04-06 11:04:35 +0000";
layers = (
{
anchors = (
{
name = bottom;
pos = (130,0);
},
{
name = center;
pos = (145,250);
},
{
name = top;
pos = (145,520);
},
{
name = topright;
pos = (592,800);
}
);
layerId = m01;
shapes = (
{
closed = 1;
nodes = (
(115,505,o),
(40,458,o),
(40,337,cs),
(40,0,l),
(156,0,l),
(156,302,ls),
(156,367,o),
(182,382,o),
(212,383,cs),
(236,384,o),
(249,384,o),
(271,381,c),
(271,504,l),
(252,505,o),
(225,505,o),
(201,505,cs)
);
}
);
width = 290;
},
{
anchors = (
{
name = bottom;
pos = (105,0);
},
{
name = center;
pos = (135,250);
},
{
name = top;
pos = (135,520);
},
{
name = topright;
pos = (582,800);
}
);
layerId = m002;
shapes = (
{
closed = 1;
nodes = (
(136,500,o),
(69,471,o),
(69,337,cs),
(69,0,l),
(106,0,l),
(106,322,ls),
(106,433,o),
(143,462,o),
(190,466,cs),
(201,467,o),
(211,467,o),
(221,467,c),
(221,505,l),
(211,506,o),
(202,506,o),
(191,505,cs)
);
}
);
width = 270;
},
{
anchors = (
{
name = bottom;
pos = (115,0);
},
{
name = center;
pos = (135,250);
},
{
name = top;
pos = (135,520);
},
{
name = topright;
pos = (582,800);
}
);
layerId = m003;
shapes = (
{
closed = 1;
nodes = (
(114,505,o),
(50,455,o),
(50,337,c),
(50,0,l),
(126,0,l),
(126,322,l),
(126,391,o),
(157,421,o),
(191,423,cs),
(209,424,o),
(223,424,o),
(241,423,c),
(241,505,l),
(223,505,o),
(209,505,o),
(191,505,cs)
);
}
);
width = 270;
}
);
unicode = 114;
},
{
color = 4;
glyphname = s;
kernLeft = ss;
kernRight = ss;
lastChange = "2023-04-07 03:21:20 +0000";
layers = (
{
anchors = (
{
name = bottom;
pos = (255,0);
},
{
name = top;
pos = (255,520);
}
);
layerId = m01;
shapes = (
{
closed = 1;
nodes = (
(408,-10,o),
(465,44,o),
(467,101,cs),
(468,124,o),
(468,152,o),
(467,176,cs),
(465,243,o),
(422,284,o),
(343,295,cs),
(313,299,o),
(225,311,o),
(195,316,cs),
(183,318,o),
(171,328,o),
(169,344,cs),
(168,355,o),
(168,361,o),
(169,372,cs),
(170,388,o),
(188,399,o),
(206,400,cs),
(236,402,o),
(273,402,o),
(303,400,cs),
(320,399,o),
(342,388,o),
(342,362,cs),
(342,357,l),
(462,357,l),
(462,382,ls),
(462,441,o),
(402,506,o),
(316,510,cs),
(300,511,o),
(214,511,o),
(198,510,cs),
(110,506,o),
(51,445,o),
(49,388,cs),
(48,370,o),
(48,348,o),
(49,330,cs),
(51,273,o),
(100,224,o),
(178,213,cs),
(221,207,o),
(254,202,o),
(308,194,cs),
(334,190,o),
(350,181,o),
(350,162,cs),
(350,153,o),
(350,139,o),
(350,129,cs),
(350,109,o),
(328,99,o),
(309,98,cs),
(258,96,o),
(252,96,o),
(201,98,cs),
(181,99,o),
(162,109,o),
(162,131,cs),
(162,142,l),
(42,142,l),
(42,111,ls),
(42,53,o),
(82,-9,o),
(192,-14,cs),
(222,-15,o),
(290,-15,o),
(320,-14,cs)
);
}
);
width = 510;
},
{
anchors = (
{
name = bottom;
pos = (250,0);
},
{
name = top;
pos = (250,520);
}
);
layerId = m002;
shapes = (
{
closed = 1;
nodes = (
(373,-10,o),
(417,33,o),
(422,101,cs),
(424,126,o),
(424,139,o),
(422,166,cs),
(416,243,o),
(365,263,o),
(315,270,cs),
(272,276,o),
(236,281,o),
(184,289,cs),
(157,293,o),
(127,307,o),
(124,348,cs),
(123,364,o),
(123,368,o),
(124,385,cs),
(127,441,o),
(155,473,o),
(197,476,cs),
(237,479,o),
(262,479,o),
(302,476,cs),
(337,473,o),
(377,441,o),
(377,382,cs),
(377,367,l),
(417,367,l),
(417,392,ls),
(417,466,o),
(368,505,o),
(309,510,cs),
(272,513,o),
(227,513,o),
(195,510,cs),
(132,504,o),
(89,458,o),
(85,388,cs),
(84,372,o),
(84,365,o),
(85,349,cs),
(88,297,o),
(123,261,o),
(179,253,cs),
(231,246,o),
(261,242,o),
(309,234,cs),
(360,226,o),
(380,208,o),
(385,166,cs),
(387,148,o),
(386,135,o),
(385,116,cs),
(382,54,o),
(361,24,o),
(306,21,cs),
(255,18,o),
(245,18,o),
(194,21,cs),
(152,23,o),
(117,46,o),
(117,111,cs),
(117,142,l),
(77,142,l),
(77,111,ls),
(77,44,o),
(112,-9,o),
(189,-14,cs),
(239,-17,o),
(263,-17,o),
(313,-14,cs)
);
}
);
width = 500;
},
{
anchors = (
{
name = bottom;
pos = (250,0);
},
{
name = top;
pos = (250,520);
}
);
layerId = m003;
shapes = (
{
closed = 1;
nodes = (
(387,-11,o),
(439,39,o),
(442,101,cs),
(443,113,o),
(444,154,o),
(442,166,cs),
(438,237,o),
(399,276,o),
(335,285,cs),
(278,293,o),
(233,299,o),
(187,306,cs),
(166,309,o),
(146,321,o),
(144,344,cs),
(143,356,o),
(143,373,o),
(144,385,cs),
(146,408,o),
(169,434,o),
(199,436,cs),
(229,439,o),
(270,439,o),
(300,436,cs),
(329,434,o),
(357,411,o),
(357,382,c),
(357,367,l),
(437,367,l),
(437,392,l),
(437,455,o),
(382,507,o),
(310,510,cs),
(294,511,o),
(210,511,o),
(194,510,cs),
(121,507,o),
(68,450,o),
(64,388,cs),
(63,371,o),
(63,366,o),
(64,349,cs),
(67,282,o),
(107,242,o),
(176,233,cs),
(222,227,o),
(255,222,o),
(306,214,cs),
(344,208,o),
(363,192,o),
(365,166,cs),
(366,149,o),
(366,134,o),
(365,116,cs),
(363,82,o),
(348,66,o),
(305,63,cs),
(254,60,o),
(246,60,o),
(195,63,cs),
(165,65,o),
(137,82,o),
(137,111,c),
(137,142,l),
(57,142,l),
(57,111,l),
(57,49,o),
(95,-10,o),
(188,-14,cs),
(218,-15,o),
(284,-15,o),
(314,-14,cs)
);
}
);
width = 500;
}
);
unicode = 115;
},
{
color = 4;
glyphname = scedilla;
kernLeft = ss;
kernRight = ss;
lastChange = "2023-04-06 11:04:35 +0000";
layers = (
{
anchors = (
{
name = bottom;
pos = (250,0);
},
{
name = top;
pos = (250,520);
}
);
layerId = m002;
shapes = (
{
closed = 1;
nodes = (
(373,-11,o),
(417,33,o),
(422,101,cs),
(424,126,o),
(424,139,o),
(422,166,cs),
(416,243,o),
(365,263,o),
(315,270,cs),
(272,276,o),
(236,281,o),
(184,289,cs),
(157,293,o),
(127,307,o),
(124,348,cs),
(123,364,o),
(123,368,o),
(124,385,cs),
(127,441,o),
(155,473,o),
(197,476,cs),
(237,479,o),
(262,479,o),
(302,476,cs),
(337,473,o),
(377,441,o),
(377,382,cs),
(377,367,l),
(417,367,l),
(417,392,ls),
(417,466,o),
(368,505,o),
(309,510,cs),
(272,513,o),
(227,513,o),
(195,510,cs),
(132,504,o),
(89,458,o),
(85,388,cs),
(84,372,o),
(84,365,o),
(85,349,cs),
(88,297,o),
(123,261,o),
(179,253,cs),
(231,246,o),
(261,242,o),
(309,234,cs),
(360,226,o),
(380,208,o),
(385,166,cs),
(387,148,o),
(386,135,o),
(385,116,cs),
(382,54,o),
(361,24,o),
(306,21,cs),
(255,18,o),
(245,18,o),
(194,21,cs),
(152,23,o),
(117,46,o),
(117,111,cs),
(117,142,l),
(77,142,l),
(77,111,ls),
(77,44,o),
(112,-10,o),
(189,-15,cs),
(205,-16,o),
(219,-16,o),
(231,-16,c),
(204,-120,l),
(250,-120,l),
(269,-16,l),
(282,-16,o),
(296,-16,o),
(313,-15,cs)
);
}
);
width = 500;
},
{
anchors = (
{
name = bottom;
pos = (250,0);
},
{
name = top;
pos = (250,520);
}
);
layerId = m003;
shapes = (
{
closed = 1;
nodes = (
(387,-11,o),
(439,39,o),
(442,101,cs),
(443,113,o),
(444,154,o),
(442,166,c),
(438,237,o),
(399,276,o),
(335,285,cs),
(278,293,o),
(233,299,o),
(187,306,cs),
(166,309,o),
(146,321,o),
(144,344,cs),
(143,356,o),
(143,373,o),
(144,385,cs),
(146,408,o),
(169,434,o),
(199,436,cs),
(229,439,o),
(270,439,o),
(300,436,cs),
(329,434,o),
(357,411,o),
(357,382,cs),
(357,367,l),
(437,367,l),
(437,392,ls),
(437,455,o),
(382,507,o),
(310,510,cs),
(294,511,o),
(210,511,o),
(194,510,cs),
(121,507,o),
(68,450,o),
(64,388,cs),
(63,371,o),
(63,366,o),
(64,349,cs),
(67,282,o),
(107,242,o),
(176,233,cs),
(222,227,o),
(255,222,o),
(306,214,cs),
(344,208,o),
(363,192,o),
(365,166,cs),
(366,149,o),
(366,134,o),
(365,116,cs),
(363,82,o),
(348,66,o),
(305,63,cs),
(254,60,o),
(246,60,o),
(195,63,cs),
(165,65,o),
(137,82,o),
(137,111,cs),
(137,142,l),
(57,142,l),
(57,111,ls),
(57,49,o),
(95,-10,o),
(188,-14,cs),
(194,-14,o),
(203,-14,o),
(212,-15,c),
(184,-120,l),
(270,-120,l),
(298,-14,l),
(303,-14,o),
(309,-14,o),
(314,-14,cs)
);
}
);
width = 500;
},
{
anchors = (
{
name = bottom;
pos = (255,0);
},
{
name = top;
pos = (255,520);
}
);
layerId = m01;
shapes = (
{
closed = 1;
nodes = (
(412,-11,o),
(465,46,o),
(467,101,cs),
(468,124,o),
(468,152,o),
(467,176,cs),
(465,243,o),
(422,284,o),
(343,295,cs),
(313,299,o),
(225,311,o),
(195,316,cs),
(183,318,o),
(171,328,o),
(169,344,cs),
(168,355,o),
(168,361,o),
(169,372,cs),
(170,388,o),
(188,399,o),
(206,400,cs),
(236,402,o),
(273,402,o),
(303,400,cs),
(320,399,o),
(342,388,o),
(342,362,cs),
(342,357,l),
(462,357,l),
(462,382,ls),
(462,441,o),
(402,506,o),
(316,510,cs),
(300,511,o),
(214,511,o),
(198,510,cs),
(110,506,o),
(51,445,o),
(49,388,cs),
(48,370,o),
(48,348,o),
(49,330,cs),
(51,273,o),
(100,224,o),
(178,213,cs),
(221,207,o),
(265,200,o),
(308,194,cs),
(334,190,o),
(350,181,o),
(350,162,cs),
(350,151,o),
(350,140,o),
(350,129,cs),
(350,109,o),
(328,99,o),
(309,98,cs),
(258,96,o),
(252,96,o),
(201,98,cs),
(181,99,o),
(162,109,o),
(162,131,cs),
(162,142,l),
(42,142,l),
(42,111,ls),
(42,53,o),
(82,-9,o),
(192,-14,cs),
(196,-14,o),
(199,-14,o),
(203,-14,c),
(175,-120,l),
(301,-120,l),
(326,-13,l),
(327,-13,o),
(328,-13,o),
(329,-13,cs)
);
}
);
width = 510;
}
);
unicode = 351;
},
{
color = 4;
glyphname = germandbls;
kernLeft = sb;
kernRight = so;
lastChange = "2023-04-06 11:04:35 +0000";
layers = (
{
layerId = m01;
shapes = (
{
closed = 1;
nodes = (
(263,520,o),
(247,520,o),
(230,520,c),
(230,398,l),
(247,398,o),
(263,398,o),
(280,398,cs),
(301,398,o),
(342,367,o),
(343,324,cs),
(344,288,o),
(344,209,o),
(343,183,cs),
(342,134,o),
(307,113,o),
(249,113,cs),
(233,113,o),
(226,113,o),
(216,113,c),
(216,-5,l),
(250,-5,ls),
(379,-5,o),
(459,56,o),
(461,143,cs),
(462,169,o),
(462,308,o),
(461,344,cs),
(460,398,o),
(440,433,o),
(401,463,c),
(428,479,o),
(450,512,o),
(450,571,cs),
(450,638,o),
(397,707,o),
(293,710,cs),
(275,711,o),
(231,711,o),
(213,710,cs),
(124,706,o),
(47,651,o),
(46,554,cs),
(46,506,o),
(46,95,o),
(46,0,c),
(164,0,l),
(164,143,o),
(164,381,o),
(164,524,cs),
(164,573,o),
(196,591,o),
(225,592,cs),
(244,593,o),
(262,593,o),
(281,592,cs),
(308,591,o),
(331,580,o),
(331,558,cs),
(331,531,o),
(311,520,o),
(280,520,cs)
);
}
);
width = 500;
},
{
layerId = m002;
shapes = (
{
closed = 1;
nodes = (
(287,480,o),
(273,480,o),
(270,480,c),
(270,448,l),
(273,448,o),
(287,448,o),
(290,448,cs),
(357,448,o),
(381,414,o),
(383,334,cs),
(385,258,o),
(385,219,o),
(383,153,cs),
(381,76,o),
(334,37,o),
(251,33,cs),
(240,32,o),
(228,32,o),
(216,32,c),
(216,-5,l),
(250,-5,ls),
(352,-5,o),
(419,51,o),
(421,143,cs),
(423,219,o),
(423,258,o),
(421,344,cs),
(419,419,o),
(392,454,o),
(365,463,c),
(385,471,o),
(410,504,o),
(410,571,cs),
(410,650,o),
(366,707,o),
(291,710,cs),
(263,711,o),
(243,712,o),
(215,710,cs),
(151,705,o),
(87,659,o),
(86,554,cs),
(86,506,o),
(86,95,o),
(86,0,c),
(124,0,l),
(124,143,o),
(124,401,o),
(124,544,cs),
(124,633,o),
(166,666,o),
(223,672,cs),
(242,674,o),
(264,674,o),
(283,672,cs),
(337,666,o),
(371,636,o),
(371,568,cs),
(371,515,o),
(357,480,o),
(290,480,cs)
);
}
);
width = 500;
},
{
layerId = m003;
shapes = (
{
closed = 1;
nodes = (
(270,500,o),
(260,500,o),
(250,500,c),
(250,418,l),
(260,418,o),
(270,418,o),
(280,418,cs),
(320,418,o),
(362,394,o),
(363,334,cs),
(364,298,o),
(364,179,o),
(363,153,cs),
(362,111,o),
(320,76,o),
(250,73,cs),
(232,72,o),
(214,72,o),
(196,73,c),
(196,-5,l),
(250,-5,l),
(370,-5,o),
(439,55,o),
(441,143,cs),
(442,169,o),
(442,308,o),
(441,344,cs),
(440,412,o),
(407,449,o),
(373,463,c),
(399,474,o),
(430,515,o),
(430,571,cs),
(430,639,o),
(383,707,o),
(292,710,cs),
(274,711,o),
(232,711,o),
(214,710,cs),
(138,707,o),
(67,653,o),
(66,554,cs),
(66,506,o),
(66,95,o),
(66,0,c),
(144,0,l),
(144,143,o),
(144,401,o),
(144,544,cs),
(144,597,o),
(182,630,o),
(224,632,cs),
(243,633,o),
(263,633,o),
(282,632,cs),
(322,630,o),
(351,604,o),
(351,568,cs),
(351,532,o),
(330,500,o),
(280,500,cs)
);
}
);
width = 500;
}
);
unicode = 223;
},
{
color = 4;
glyphname = t;
kernLeft = st;
kernRight = st;
lastChange = "2023-04-06 16:16:50 +0000";
layers = (
{
anchors = (
{
name = bottom;
pos = (205,0);
},
{
name = center;
pos = (185,250);
},
{
name = top;
pos = (185,500);
},
{
name = topright;
pos = (626,800);
}
);
layerId = m01;
shapes = (
{
closed = 1;
nodes = (
(253,-10,o),
(254,-10,o),
(285,-10,c),
(285,108,l),
(269,107,o),
(255,107,o),
(236,108,cs),
(218,109,o),
(197,121,o),
(197,183,cs),
(197,384,l),
(267,384,l),
(267,500,l),
(197,500,l),
(197,620,l),
(79,620,l),
(79,500,l),
(9,500,l),
(9,384,l),
(79,384,l),
(79,158,ls),
(79,33,o),
(154,-10,o),
(235,-10,cs)
);
}
);
width = 300;
},
{
anchors = (
{
name = bottom;
pos = (221,0);
},
{
name = center;
pos = (221,250);
},
{
name = top;
pos = (221,500);
},
{
name = topright;
pos = (626,800);
}
);
layerId = m002;
shapes = (
{
closed = 1;
nodes = (
(239,-10,o),
(242,-10,o),
(245,-10,c),
(245,27,l),
(242,27,o),
(238,27,o),
(234,27,cs),
(190,30,o),
(157,51,o),
(157,173,cs),
(157,464,l),
(227,464,l),
(227,500,l),
(157,500,l),
(157,600,l),
(119,600,l),
(119,500,l),
(49,500,l),
(49,464,l),
(119,464,l),
(119,158,ls),
(119,34,o),
(168,-10,o),
(235,-10,cs)
);
}
);
width = 300;
},
{
anchors = (
{
name = bottom;
pos = (211,0);
},
{
name = center;
pos = (211,250);
},
{
name = top;
pos = (211,500);
},
{
name = topright;
pos = (626,800);
}
);
layerId = m003;
shapes = (
{
closed = 1;
nodes = (
(248,-10,o),
(252,-10,o),
(265,-10,c),
(265,68,l),
(252,67,o),
(248,67,o),
(235,68,cs),
(203,70,o),
(177,97,o),
(177,173,c),
(177,424,l),
(247,424,l),
(247,500,l),
(177,500,l),
(177,600,l),
(99,600,l),
(99,500,l),
(29,500,l),
(29,424,l),
(99,424,l),
(99,158,l),
(99,40,o),
(160,-10,o),
(235,-10,cs)
);
}
);
width = 300;
}
);
unicode = 116;
},
{
color = 4;
glyphname = tcedilla;
kernLeft = st;
kernRight = st;
lastChange = "2023-04-06 11:04:35 +0000";
layers = (
{
anchors = (
{
name = bottom;
pos = (221,0);
},
{
name = center;
pos = (221,250);
},
{
name = top;
pos = (221,500);
},
{
name = topright;
pos = (626,800);
}
);
layerId = m002;
shapes = (
{
closed = 1;
nodes = (
(245,27,l),
(241,27,o),
(238,27,o),
(234,27,cs),
(190,27,o),
(157,51,o),
(157,173,cs),
(157,464,l),
(227,464,l),
(227,500,l),
(157,500,l),
(157,600,l),
(119,600,l),
(119,500,l),
(49,500,l),
(49,464,l),
(119,464,l),
(119,158,ls),
(119,54,o),
(154,6,o),
(205,-7,c),
(175,-120,l),
(221,-120,l),
(245,14,l)
);
}
);
width = 300;
},
{
anchors = (
{
name = bottom;
pos = (211,0);
},
{
name = center;
pos = (211,250);
},
{
name = top;
pos = (211,500);
},
{
name = topright;
pos = (626,800);
}
);
layerId = m003;
shapes = (
{
closed = 1;
nodes = (
(265,68,l),
(252,67,o),
(248,67,o),
(235,68,cs),
(203,70,o),
(177,97,o),
(177,173,cs),
(177,424,l),
(247,424,l),
(247,500,l),
(177,500,l),
(177,600,l),
(99,600,l),
(99,500,l),
(29,500,l),
(29,424,l),
(99,424,l),
(99,158,ls),
(99,73,o),
(131,23,o),
(177,2,c),
(145,-120,l),
(231,-120,l),
(265,10,l)
);
}
);
width = 300;
},
{
anchors = (
{
name = bottom;
pos = (205,0);
},
{
name = center;
pos = (185,250);
},
{
name = top;
pos = (185,500);
},
{
name = topright;
pos = (626,800);
}
);
layerId = m01;
shapes = (
{
closed = 1;
nodes = (
(285,108,l),
(269,107,o),
(265,107,o),
(246,108,cs),
(218,109,o),
(197,121,o),
(197,183,cs),
(197,384,l),
(267,384,l),
(267,500,l),
(197,500,l),
(197,620,l),
(79,620,l),
(79,500,l),
(9,500,l),
(9,384,l),
(79,384,l),
(79,158,ls),
(79,75,o),
(112,28,o),
(158,6,c),
(125,-120,l),
(251,-120,l),
(285,9,l)
);
}
);
width = 300;
}
);
unicode = 355;
},
{
color = 4;
glyphname = u;
kernLeft = so;
kernRight = so;
lastChange = "2023-04-06 11:04:35 +0000";
layers = (
{
anchors = (
{
name = bottom;
pos = (250,0);
},
{
name = center;
pos = (250,250);
},
{
name = ogonek;
pos = (268,0);
},
{
name = top;
pos = (250,520);
},
{
name = topright;
pos = (510,500);
}
);
layerId = m01;
shapes = (
{
closed = 1;
nodes = (
(349,500,l),
(350,468,o),
(350,216,o),
(349,184,cs),
(347,126,o),
(315,108,o),
(287,106,cs),
(269,105,o),
(231,105,o),
(213,106,cs),
(185,108,o),
(153,126,o),
(151,184,cs),
(150,216,o),
(150,468,o),
(151,500,c),
(33,500,l),
(31,437,o),
(31,225,o),
(33,162,cs),
(36,60,o),
(109,-7,o),
(211,-14,cs),
(229,-15,o),
(271,-15,o),
(289,-14,cs),
(391,-7,o),
(464,60,o),
(467,162,cs),
(469,225,o),
(469,437,o),
(467,500,c)
);
}
);
width = 500;
},
{
anchors = (
{
name = bottom;
pos = (250,0);
},
{
name = center;
pos = (250,250);
},
{
name = ogonek;
pos = (259,0);
},
{
name = top;
pos = (250,520);
},
{
name = topright;
pos = (510,500);
}
);
layerId = m002;
shapes = (
{
closed = 1;
nodes = (
(389,500,l),
(390,368,o),
(390,306,o),
(389,174,cs),
(388,64,o),
(345,31,o),
(289,25,cs),
(261,22,o),
(239,22,o),
(211,25,cs),
(155,31,o),
(112,64,o),
(111,174,cs),
(110,306,o),
(110,368,o),
(111,500,c),
(73,500,l),
(71,377,o),
(71,285,o),
(73,162,cs),
(75,34,o),
(140,-9,o),
(213,-14,cs),
(241,-16,o),
(259,-16,o),
(287,-14,cs),
(360,-9,o),
(425,34,o),
(427,162,cs),
(429,285,o),
(429,377,o),
(427,500,c)
);
}
);
width = 500;
},
{
anchors = (
{
name = bottom;
pos = (250,0);
},
{
name = center;
pos = (250,250);
},
{
name = ogonek;
pos = (258,0);
},
{
name = top;
pos = (250,520);
},
{
name = topright;
pos = (510,500);
}
);
layerId = m003;
shapes = (
{
closed = 1;
nodes = (
(369,500,l),
(370,368,o),
(370,306,o),
(369,174,cs),
(368,102,o),
(329,69,o),
(288,66,cs),
(270,65,o),
(230,65,o),
(212,66,cs),
(171,69,o),
(132,102,o),
(131,174,cs),
(130,306,o),
(130,368,o),
(131,500,c),
(53,500,l),
(51,347,o),
(51,315,o),
(53,162,cs),
(54,56,o),
(126,-8,o),
(212,-14,cs),
(230,-15,o),
(270,-15,o),
(288,-14,cs),
(374,-8,o),
(446,56,o),
(447,162,cs),
(449,315,o),
(449,347,o),
(447,500,c)
);
}
);
width = 500;
}
);
unicode = 117;
},
{
color = 4;
glyphname = uogonek;
kernLeft = so;
kernRight = so;
lastChange = "2023-04-06 11:04:35 +0000";
layers = (
{
anchors = (
{
name = bottom;
pos = (250,0);
},
{
name = center;
pos = (250,250);
},
{
name = ogonek;
pos = (259,0);
},
{
name = top;
pos = (250,520);
},
{
name = topright;
pos = (510,500);
}
);
layerId = m002;
shapes = (
{
closed = 1;
nodes = (
(389,500,l),
(390,368,o),
(390,306,o),
(389,174,cs),
(388,64,o),
(345,31,o),
(289,25,cs),
(261,22,o),
(239,22,o),
(211,25,cs),
(155,31,o),
(112,64,o),
(111,174,cs),
(110,306,o),
(110,368,o),
(111,500,c),
(73,500,l),
(71,377,o),
(71,285,o),
(73,162,cs),
(75,34,o),
(134,-10,o),
(237,-15,c),
(207,-120,l),
(307,-120,l),
(307,-86,l),
(249,-86,l),
(272,-15,l),
(365,-10,o),
(425,34,o),
(427,162,cs),
(429,285,o),
(429,377,o),
(427,500,c)
);
}
);
width = 500;
},
{
anchors = (
{
name = bottom;
pos = (250,0);
},
{
name = center;
pos = (250,250);
},
{
name = ogonek;
pos = (258,0);
},
{
name = top;
pos = (250,520);
},
{
name = topright;
pos = (510,500);
}
);
layerId = m003;
shapes = (
{
closed = 1;
nodes = (
(369,500,l),
(370,368,o),
(370,306,o),
(369,174,cs),
(368,102,o),
(329,69,o),
(288,66,cs),
(270,65,o),
(230,65,o),
(212,66,cs),
(171,69,o),
(132,102,o),
(131,174,cs),
(130,306,o),
(130,368,o),
(131,500,c),
(53,500,l),
(51,347,o),
(51,315,o),
(53,162,cs),
(54,57,o),
(125,-7,o),
(210,-14,c),
(181,-120,l),
(331,-120,l),
(331,-70,l),
(277,-70,l),
(297,-13,l),
(379,-3,o),
(446,60,o),
(447,162,cs),
(449,315,o),
(449,347,o),
(447,500,c)
);
}
);
width = 500;
},
{
anchors = (
{
name = bottom;
pos = (250,0);
},
{
name = center;
pos = (250,250);
},
{
name = ogonek;
pos = (268,0);
},
{
name = top;
pos = (250,520);
},
{
name = topright;
pos = (510,500);
}
);
layerId = m01;
shapes = (
{
closed = 1;
nodes = (
(349,500,l),
(350,468,o),
(350,216,o),
(349,184,cs),
(347,126,o),
(315,108,o),
(287,106,cs),
(269,105,o),
(231,105,o),
(213,106,cs),
(185,108,o),
(153,126,o),
(151,184,cs),
(150,216,o),
(150,468,o),
(151,500,c),
(33,500,l),
(31,437,o),
(31,225,o),
(33,162,cs),
(36,63,o),
(104,-3,o),
(201,-13,c),
(171,-120,l),
(371,-120,l),
(371,-43,l),
(312,-43,l),
(327,-8,l),
(409,11,o),
(464,73,o),
(467,162,cs),
(469,225,o),
(469,437,o),
(467,500,c)
);
}
);
width = 500;
}
);
unicode = 371;
},
{
color = 4;
glyphname = v;
kernLeft = sv;
kernRight = sv;
lastChange = "2023-04-07 03:12:34 +0000";
layers = (
{
layerId = m01;
shapes = (
{
closed = 1;
nodes = (
(369,500,l),
(235,21,l),
(285,21,l),
(151,500,l),
(26,500,l),
(194,0,l),
(326,0,l),
(494,500,l)
);
}
);
width = 520;
},
{
layerId = m002;
shapes = (
{
closed = 1;
nodes = (
(390,500,l),
(237,11,l),
(243,11,l),
(90,500,l),
(48,500,l),
(214,0,l),
(266,0,l),
(432,500,l)
);
}
);
width = 480;
},
{
layerId = m003;
shapes = (
{
closed = 1;
nodes = (
(371,500,l),
(227,41,l),
(253,41,l),
(109,500,l),
(25,500,l),
(193,0,l),
(287,0,l),
(455,500,l)
);
}
);
width = 480;
}
);
unicode = 118;
},
{
color = 4;
glyphname = w;
kernLeft = sv;
kernRight = sv;
lastChange = "2023-04-06 16:17:24 +0000";
layers = (
{
anchors = (
{
name = bottom;
pos = (325,0);
},
{
name = top;
pos = (325,520);
}
);
layerId = m01;
shapes = (
{
closed = 1;
nodes = (
(260,385,l),
(188,30,l),
(239,30,l),
(135,500,l),
(10,500,l),
(150,0,l),
(272,0,l),
(349,345,l),
(301,345,l),
(378,-2,l),
(500,-2,l),
(640,498,l),
(515,498,l),
(413,30,l),
(464,30,l),
(389,385,l)
);
}
);
width = 650;
},
{
anchors = (
{
name = bottom;
pos = (325,0);
},
{
name = top;
pos = (325,500);
}
);
layerId = m002;
shapes = (
{
closed = 1;
nodes = (
(298,385,l),
(206,19,l),
(217,19,l),
(88,500,l),
(48,500,l),
(188,0,l),
(234,0,l),
(329,365,l),
(321,365,l),
(416,-2,l),
(462,-2,l),
(602,498,l),
(562,498,l),
(436,19,l),
(447,19,l),
(351,385,l)
);
}
);
width = 650;
},
{
anchors = (
{
name = bottom;
pos = (324,0);
},
{
name = top;
pos = (324,500);
}
);
layerId = m003;
shapes = (
{
closed = 1;
nodes = (
(278,385,l),
(196,60,l),
(226,60,l),
(112,500,l),
(28,500,l),
(168,0,l),
(252,0,l),
(339,335,l),
(309,335,l),
(396,-2,l),
(480,-2,l),
(620,498,l),
(536,498,l),
(424,60,l),
(454,60,l),
(369,385,l)
);
}
);
width = 648;
}
);
unicode = 119;
},
{
color = 4;
glyphname = x;
kernLeft = sx;
kernRight = sx;
lastChange = "2023-04-06 11:04:35 +0000";
layers = (
{
layerId = m01;
shapes = (
{
closed = 1;
nodes = (
(343,500,l),
(200,269,l),
(299,269,l),
(156,500,l),
(29,500,l),
(182,243,l),
(25,0,l),
(155,0,l),
(298,218,l),
(201,218,l),
(345,0,l),
(475,0,l),
(318,243,l),
(470,500,l)
);
}
);
width = 500;
},
{
layerId = m002;
shapes = (
{
closed = 1;
nodes = (
(385,500,l),
(240,259,l),
(259,259,l),
(114,500,l),
(68,500,l),
(225,243,l),
(67,0,l),
(114,0,l),
(255,220,l),
(245,220,l),
(386,0,l),
(433,0,l),
(275,243,l),
(431,500,l)
);
}
);
width = 500;
},
{
layerId = m003;
shapes = (
{
closed = 1;
nodes = (
(366,500,l),
(227,259,l),
(272,259,l),
(133,500,l),
(49,500,l),
(204,243,l),
(48,0,l),
(132,0,l),
(262,204,l),
(238,204,l),
(368,0,l),
(452,0,l),
(296,243,l),
(450,500,l)
);
}
);
width = 500;
}
);
unicode = 120;
},
{
color = 4;
glyphname = y;
kernLeft = sg;
kernRight = sg;
lastChange = "2023-04-06 11:04:35 +0000";
layers = (
{
anchors = (
{
name = bottom;
pos = (245,0);
},
{
name = center;
pos = (245,250);
},
{
name = ogonek;
pos = (441,10);
},
{
name = top;
pos = (245,520);
},
{
name = topright;
pos = (475,500);
}
);
layerId = m01;
shapes = (
{
closed = 1;
nodes = (
(245,105,o),
(235,105,o),
(213,106,cs),
(185,108,o),
(151,126,o),
(151,184,cs),
(151,316,o),
(151,368,o),
(151,500,c),
(33,500,l),
(32,417,o),
(32,245,o),
(33,162,cs),
(35,58,o),
(111,-11,o),
(211,-14,cs),
(241,-15,o),
(256,-15,o),
(277,-15,c),
(277,105,l)
);
},
{
closed = 1;
nodes = (
(340,377,o),
(339,96,o),
(339,-27,cs),
(339,-73,o),
(308,-85,o),
(282,-87,cs),
(254,-89,o),
(236,-89,o),
(208,-87,cs),
(168,-84,o),
(154,-70,o),
(154,-47,c),
(33,-47,l),
(34,-128,o),
(83,-197,o),
(206,-205,cs),
(224,-206,o),
(266,-206,o),
(284,-205,cs),
(386,-198,o),
(457,-129,o),
(457,-47,cs),
(458,79,o),
(458,374,o),
(457,500,c),
(339,500,l)
);
}
);
width = 490;
},
{
anchors = (
{
name = bottom;
pos = (245,0);
},
{
name = center;
pos = (245,250);
},
{
name = ogonek;
pos = (441,10);
},
{
name = top;
pos = (245,520);
},
{
name = topright;
pos = (475,500);
}
);
layerId = m002;
shapes = (
{
closed = 1;
nodes = (
(279,24,o),
(238,24,o),
(211,26,cs),
(155,30,o),
(111,64,o),
(111,174,cs),
(111,306,o),
(111,368,o),
(111,500,c),
(73,500,l),
(72,417,o),
(72,245,o),
(73,162,cs),
(75,40,o),
(140,-11,o),
(213,-14,cs),
(238,-15,o),
(279,-15,o),
(307,-15,c),
(307,25,l)
);
},
{
closed = 1;
nodes = (
(380,377,o),
(379,86,o),
(379,-37,cs),
(379,-124,o),
(342,-163,o),
(284,-167,cs),
(266,-168,o),
(224,-168,o),
(206,-167,cs),
(141,-162,o),
(114,-124,o),
(114,-67,c),
(73,-67,l),
(74,-144,o),
(117,-199,o),
(208,-205,cs),
(226,-206,o),
(264,-206,o),
(282,-205,cs),
(354,-200,o),
(417,-149,o),
(417,-47,cs),
(417,79,o),
(418,374,o),
(417,500,c),
(379,500,l)
);
}
);
width = 490;
},
{
anchors = (
{
name = bottom;
pos = (245,0);
},
{
name = center;
pos = (245,250);
},
{
name = ogonek;
pos = (441,10);
},
{
name = top;
pos = (245,520);
},
{
name = topright;
pos = (475,500);
}
);
layerId = m003;
shapes = (
{
closed = 1;
nodes = (
(297,65,o),
(234,65,o),
(212,66,cs),
(171,69,o),
(131,102,o),
(131,174,cs),
(131,306,o),
(131,368,o),
(131,500,c),
(53,500,l),
(52,417,o),
(52,245,o),
(53,162,cs),
(55,56,o),
(126,-11,o),
(212,-14,cs),
(244,-15,o),
(287,-15,o),
(319,-15,c),
(319,65,l)
);
},
{
closed = 1;
nodes = (
(360,377,o),
(360,86,o),
(359,-37,cs),
(359,-87,o),
(324,-124,o),
(283,-127,cs),
(265,-128,o),
(225,-128,o),
(207,-127,cs),
(156,-123,o),
(134,-97,o),
(134,-67,c),
(53,-67,l),
(54,-133,o),
(101,-198,o),
(207,-205,cs),
(225,-206,o),
(265,-206,o),
(283,-205,cs),
(369,-199,o),
(437,-133,o),
(437,-47,cs),
(438,79,o),
(438,374,o),
(437,500,c),
(359,500,l)
);
}
);
width = 490;
}
);
unicode = 121;
},
{
color = 4;
glyphname = z;
kernLeft = sb;
kernRight = sd;
lastChange = "2023-04-06 13:08:20 +0000";
layers = (
{
anchors = (
{
name = bottom;
pos = (240,0);
},
{
name = center;
pos = (240,250);
},
{
name = top;
pos = (240,520);
}
);
layerId = m01;
shapes = (
{
closed = 1;
nodes = (
(36,500,l),
(36,382,l),
(361,382,l),
(325,447,l),
(36,92,l),
(36,0,l),
(444,0,l),
(444,118,l),
(120,118,l),
(157,53,l),
(444,418,l),
(444,500,l)
);
}
);
width = 480;
},
{
anchors = (
{
name = bottom;
pos = (240,0);
},
{
name = center;
pos = (240,250);
},
{
name = top;
pos = (240,520);
}
);
layerId = m002;
shapes = (
{
closed = 1;
nodes = (
(76,500,l),
(76,462,l),
(398,462,l),
(377,480,l),
(76,48,l),
(76,0,l),
(404,0,l),
(404,38,l),
(82,38,l),
(94,15,l),
(404,458,l),
(404,500,l)
);
}
);
width = 480;
},
{
anchors = (
{
name = bottom;
pos = (240,0);
},
{
name = center;
pos = (240,250);
},
{
name = top;
pos = (240,520);
}
);
layerId = m003;
shapes = (
{
closed = 1;
nodes = (
(56,500,l),
(56,422,l),
(376,422,l),
(360,457,l),
(56,88,l),
(56,0,l),
(424,0,l),
(424,78,l),
(104,78,l),
(121,43,l),
(424,423,l),
(424,500,l)
);
}
);
width = 480;
}
);
unicode = 122;
},
{
color = 4;
glyphname = a.ss01;
kernLeft = so;
kernRight = st;
lastChange = "2023-04-06 11:04:35 +0000";
layers = (
{
anchors = (
{
name = bottom;
pos = (255,0);
},
{
name = ogonek;
pos = (432,0);
},
{
name = top;
pos = (255,520);
}
);
layerId = m01;
shapes = (
{
closed = 1;
nodes = (
(167,344,l),
(167,370,o),
(184,388,o),
(229,392,cs),
(244,393,o),
(264,393,o),
(278,392,cs),
(319,388,o),
(342,372,o),
(342,344,cs),
(342,306,o),
(326,299,o),
(256,298,cs),
(204,297,ls),
(70,294,o),
(31,228,o),
(32,143,cs),
(33,57,o),
(100,-6,o),
(209,-10,cs),
(236,-11,o),
(263,-11,o),
(290,-10,c),
(290,112,l),
(267,110,o),
(226,110,o),
(194,112,cs),
(160,114,o),
(140,125,o),
(140,148,cs),
(140,171,o),
(160,186,o),
(195,186,cs),
(259,186,ls),
(300,186,o),
(329,192,o),
(342,206,c),
(341,173,o),
(341,140,o),
(342,107,cs),
(344,50,o),
(375,-20,o),
(495,-11,c),
(495,106,l),
(480,105,o),
(460,118,o),
(460,149,cs),
(459,217,o),
(459,286,o),
(460,354,cs),
(461,448,o),
(382,503,o),
(284,510,cs),
(270,511,o),
(238,511,o),
(223,510,cs),
(139,503,o),
(58,447,o),
(51,374,cs),
(50,361,o),
(50,356,o),
(51,344,c)
);
}
);
width = 520;
},
{
anchors = (
{
name = bottom;
pos = (240,0);
},
{
name = ogonek;
pos = (427,0);
},
{
name = top;
pos = (250,520);
}
);
layerId = m002;
shapes = (
{
closed = 1;
nodes = (
(117,364,l),
(117,445,o),
(146,466,o),
(216,472,cs),
(232,473,o),
(256,473,o),
(272,472,cs),
(336,466,o),
(372,447,o),
(372,344,cs),
(372,304,o),
(341,281,o),
(246,279,cs),
(196,278,ls),
(121,277,o),
(63,231,o),
(64,132,cs),
(65,24,o),
(121,-8,o),
(211,-10,cs),
(218,-10,o),
(310,-10,o),
(320,-10,c),
(320,23,l),
(260,22,o),
(250,22,o),
(193,24,cs),
(136,26,o),
(100,50,o),
(100,133,cs),
(100,212,o),
(142,241,o),
(196,242,cs),
(249,243,ls),
(326,244,o),
(365,259,o),
(372,278,c),
(371,232,o),
(372,154,o),
(372,107,cs),
(372,32,o),
(393,-4,o),
(445,-10,c),
(445,27,l),
(420,30,o),
(410,62,o),
(410,109,cs),
(410,177,o),
(410,276,o),
(410,344,cs),
(410,475,o),
(345,505,o),
(272,510,cs),
(258,511,o),
(230,511,o),
(215,510,cs),
(151,505,o),
(85,478,o),
(81,394,cs),
(80,383,o),
(80,375,o),
(80,364,c)
);
}
);
width = 500;
},
{
anchors = (
{
name = bottom;
pos = (240,0);
},
{
name = ogonek;
pos = (421,0);
},
{
name = top;
pos = (246,520);
}
);
layerId = m003;
shapes = (
{
closed = 1;
nodes = (
(139,364,l),
(139,407,o),
(163,427,o),
(217,432,cs),
(233,433,o),
(255,433,o),
(270,432,cs),
(322,427,o),
(352,404,o),
(352,354,cs),
(352,310,o),
(318,280,o),
(246,279,cs),
(185,278,ls),
(98,277,o),
(41,220,o),
(42,132,cs),
(43,48,o),
(89,-10,o),
(190,-10,cs),
(220,-10,o),
(255,-11,o),
(288,-10,c),
(288,64,l),
(255,62,o),
(216,62,o),
(183,64,cs),
(140,67,o),
(114,84,o),
(114,133,cs),
(114,179,o),
(140,209,o),
(185,210,cs),
(249,211,ls),
(305,212,o),
(339,224,o),
(354,245,c),
(353,199,o),
(352,154,o),
(352,107,cs),
(352,50,o),
(376,-11,o),
(465,-12,c),
(465,66,l),
(434,65,o),
(430,94,o),
(430,149,cs),
(430,217,o),
(430,276,o),
(430,344,cs),
(430,444,o),
(359,504,o),
(273,510,cs),
(259,511,o),
(229,511,o),
(214,510,cs),
(132,506,o),
(65,463,o),
(61,394,cs),
(60,382,o),
(60,375,o),
(60,364,c)
);
}
);
width = 500;
}
);
},
{
color = 4;
glyphname = aogonek.ss01;
kernLeft = so;
kernRight = st;
lastChange = "2023-04-06 11:04:35 +0000";
layers = (
{
anchors = (
{
name = bottom;
pos = (240,0);
},
{
name = ogonek;
pos = (427,0);
},
{
name = top;
pos = (250,520);
}
);
layerId = m002;
shapes = (
{
closed = 1;
nodes = (
(117,364,l),
(117,445,o),
(146,466,o),
(216,472,cs),
(232,473,o),
(256,473,o),
(272,472,cs),
(336,466,o),
(372,447,o),
(372,344,cs),
(372,304,o),
(341,281,o),
(246,279,cs),
(196,278,ls),
(121,277,o),
(63,231,o),
(64,132,cs),
(65,24,o),
(121,-10,o),
(211,-10,cs),
(247,-10,o),
(284,-10,o),
(320,-10,c),
(320,23,l),
(260,22,o),
(250,22,o),
(193,24,cs),
(136,26,o),
(100,50,o),
(100,133,cs),
(100,212,o),
(142,241,o),
(196,242,cs),
(249,243,ls),
(326,244,o),
(365,259,o),
(372,278,c),
(371,232,o),
(372,154,o),
(372,107,cs),
(372,53,o),
(383,19,o),
(409,2,c),
(375,-120,l),
(475,-120,l),
(475,-86,l),
(417,-86,l),
(445,-1,l),
(445,27,l),
(420,30,o),
(410,62,o),
(410,109,cs),
(410,187,o),
(410,266,o),
(410,344,cs),
(410,475,o),
(345,505,o),
(272,510,cs),
(258,511,o),
(230,511,o),
(215,510,cs),
(151,505,o),
(85,478,o),
(81,394,cs),
(80,383,o),
(80,375,o),
(80,364,c)
);
}
);
width = 500;
},
{
anchors = (
{
name = bottom;
pos = (240,0);
},
{
name = ogonek;
pos = (421,0);
},
{
name = top;
pos = (246,520);
}
);
layerId = m003;
shapes = (
{
closed = 1;
nodes = (
(139,364,l),
(139,407,o),
(163,427,o),
(217,432,cs),
(233,433,o),
(255,433,o),
(270,432,cs),
(322,427,o),
(352,404,o),
(352,354,cs),
(352,310,o),
(318,280,o),
(246,279,cs),
(185,278,ls),
(98,277,o),
(41,220,o),
(42,132,cs),
(43,48,o),
(89,-10,o),
(190,-10,cs),
(220,-10,o),
(255,-11,o),
(288,-10,c),
(288,64,l),
(255,62,o),
(216,62,o),
(183,64,cs),
(140,67,o),
(114,84,o),
(114,133,cs),
(114,179,o),
(140,209,o),
(185,210,cs),
(249,211,ls),
(305,212,o),
(339,224,o),
(354,245,c),
(353,199,o),
(352,154,o),
(352,107,cs),
(352,75,o),
(360,42,o),
(382,19,c),
(344,-120,l),
(494,-120,l),
(494,-70,l),
(440,-70,l),
(465,-2,l),
(465,66,l),
(434,65,o),
(430,94,o),
(430,149,cs),
(430,214,o),
(430,279,o),
(430,344,cs),
(430,444,o),
(359,504,o),
(273,510,cs),
(259,511,o),
(229,511,o),
(214,510,cs),
(132,506,o),
(65,463,o),
(61,394,cs),
(60,382,o),
(60,375,o),
(60,364,c)
);
}
);
width = 500;
},
{
anchors = (
{
name = bottom;
pos = (255,0);
},
{
name = ogonek;
pos = (432,0);
},
{
name = top;
pos = (255,520);
}
);
layerId = m01;
shapes = (
{
closed = 1;
nodes = (
(167,344,l),
(167,370,o),
(184,388,o),
(229,392,cs),
(244,393,o),
(264,393,o),
(278,392,cs),
(319,388,o),
(342,372,o),
(342,344,cs),
(342,306,o),
(326,299,o),
(256,298,cs),
(204,297,ls),
(70,294,o),
(31,228,o),
(32,143,cs),
(33,57,o),
(100,-6,o),
(209,-10,cs),
(236,-11,o),
(263,-11,o),
(290,-10,c),
(290,112,l),
(267,110,o),
(226,110,o),
(194,112,cs),
(160,114,o),
(140,125,o),
(140,148,cs),
(140,171,o),
(160,186,o),
(195,186,cs),
(259,186,ls),
(300,186,o),
(329,192,o),
(342,206,c),
(341,173,o),
(341,140,o),
(342,107,cs),
(343,78,o),
(351,46,o),
(375,23,c),
(335,-120,l),
(535,-120,l),
(535,-43,l),
(476,-43,l),
(495,0,l),
(495,106,l),
(480,105,o),
(460,118,o),
(460,149,cs),
(459,217,o),
(459,286,o),
(460,354,cs),
(461,448,o),
(382,503,o),
(284,510,cs),
(270,511,o),
(238,511,o),
(223,510,cs),
(139,503,o),
(58,447,o),
(51,374,cs),
(50,361,o),
(50,356,o),
(51,344,c)
);
}
);
width = 520;
}
);
},
{
color = 4;
glyphname = t.ss01;
kernLeft = st;
kernRight = st;
lastChange = "2023-04-06 11:04:35 +0000";
layers = (
{
anchors = (
{
name = bottom;
pos = (138,0);
},
{
name = center;
pos = (138,250);
},
{
name = top;
pos = (138,500);
},
{
name = topright;
pos = (626,800);
}
);
layerId = m01;
shapes = (
{
closed = 1;
nodes = (
(253,-10,o),
(254,-10,o),
(285,-10,c),
(285,108,l),
(269,107,o),
(255,107,o),
(236,108,cs),
(218,109,o),
(197,121,o),
(197,183,cs),
(197,500,l),
(9,500,l),
(9,384,l),
(79,384,l),
(79,158,ls),
(79,33,o),
(154,-10,o),
(235,-10,cs)
);
}
);
width = 300;
},
{
anchors = (
{
name = bottom;
pos = (138,0);
},
{
name = center;
pos = (138,250);
},
{
name = top;
pos = (138,500);
},
{
name = topright;
pos = (626,800);
}
);
layerId = m002;
shapes = (
{
closed = 1;
nodes = (
(239,-10,o),
(242,-10,o),
(245,-10,c),
(245,27,l),
(242,27,o),
(238,27,o),
(234,27,cs),
(190,30,o),
(157,51,o),
(157,173,cs),
(157,500,l),
(49,500,l),
(49,464,l),
(119,464,l),
(119,158,ls),
(119,34,o),
(168,-10,o),
(235,-10,cs)
);
}
);
width = 300;
},
{
anchors = (
{
name = bottom;
pos = (138,0);
},
{
name = center;
pos = (138,250);
},
{
name = top;
pos = (138,500);
},
{
name = topright;
pos = (626,800);
}
);
layerId = m003;
shapes = (
{
closed = 1;
nodes = (
(248,-10,o),
(252,-10,o),
(265,-10,c),
(265,68,l),
(252,67,o),
(248,67,o),
(235,68,cs),
(203,70,o),
(177,97,o),
(177,173,c),
(177,500,l),
(29,500,l),
(29,424,l),
(99,424,l),
(99,158,l),
(99,40,o),
(160,-10,o),
(235,-10,cs)
);
}
);
width = 300;
}
);
},
{
color = 4;
glyphname = f_f.liga;
kernLeft = st;
kernRight = sf;
lastChange = "2023-04-06 11:04:35 +0000";
layers = (
{
layerId = m01;
shapes = (
{
closed = 1;
nodes = (
(410,0,l),
(410,542,ls),
(410,604,o),
(432,615,o),
(450,617,cs),
(458,618,o),
(468,618,o),
(476,617,c),
(476,735,l),
(448,735,ls),
(367,735,o),
(292,692,o),
(292,567,cs),
(292,500,l),
(200,500,l),
(200,542,ls),
(200,604,o),
(222,615,o),
(240,617,cs),
(248,618,o),
(258,618,o),
(266,617,c),
(266,735,l),
(238,735,ls),
(157,735,o),
(82,692,o),
(82,567,cs),
(82,500,l),
(12,500,l),
(12,384,l),
(82,384,l),
(82,0,l),
(200,0,l),
(200,384,l),
(292,384,l),
(292,0,l)
);
}
);
width = 496;
},
{
layerId = m002;
shapes = (
{
closed = 1;
nodes = (
(360,0,l),
(360,552,ls),
(360,667,o),
(386,692,o),
(436,698,cs),
(439,698,o),
(443,698,o),
(448,698,c),
(448,735,l),
(438,735,ls),
(376,735,o),
(322,691,o),
(322,567,cs),
(322,500,l),
(160,500,l),
(160,552,ls),
(160,667,o),
(186,692,o),
(236,698,cs),
(239,698,o),
(243,698,o),
(248,698,c),
(248,735,l),
(238,735,ls),
(176,735,o),
(122,691,o),
(122,567,cs),
(122,500,l),
(52,500,l),
(52,464,l),
(122,464,l),
(122,0,l),
(160,0,l),
(160,464,l),
(322,464,l),
(322,0,l)
);
}
);
width = 490;
},
{
layerId = m003;
shapes = (
{
closed = 1;
nodes = (
(380,0,l),
(380,552,ls),
(380,628,o),
(406,653,o),
(438,657,cs),
(446,658,o),
(460,658,o),
(468,657,c),
(468,735,l),
(438,735,ls),
(363,735,o),
(302,685,o),
(302,567,cs),
(302,495,l),
(180,495,l),
(180,552,ls),
(180,628,o),
(206,653,o),
(238,657,cs),
(246,658,o),
(260,658,o),
(268,657,c),
(268,735,l),
(238,735,ls),
(163,735,o),
(102,685,o),
(102,567,cs),
(102,495,l),
(32,495,l),
(32,419,l),
(102,419,l),
(102,0,l),
(180,0,l),
(180,419,l),
(302,419,l),
(302,0,l)
);
}
);
width = 490;
}
);
metricLeft = f;
metricRight = f;
},
{
color = 4;
glyphname = f_i.liga;
kernLeft = st;
kernRight = sd;
lastChange = "2023-04-06 11:04:35 +0000";
layers = (
{
anchors = (
{
name = bottom;
pos = (349,0);
},
{
name = center;
pos = (349,250);
},
{
name = top;
pos = (349,500);
},
{
name = topright;
pos = (629,800);
}
);
layerId = m01;
shapes = (
{
closed = 1;
nodes = (
(157,735,o),
(82,692,o),
(82,567,cs),
(82,500,l),
(12,500,l),
(12,384,l),
(82,384,l),
(82,0,l),
(200,0,l),
(200,384,l),
(289,384,l),
(289,0,l),
(407,0,l),
(407,500,l),
(200,500,l),
(200,542,ls),
(200,604,o),
(222,615,o),
(240,617,cs),
(248,618,o),
(258,618,o),
(266,617,c),
(266,735,l),
(238,735,ls)
);
}
);
width = 450;
},
{
anchors = (
{
name = bottom;
pos = (349,0);
},
{
name = center;
pos = (349,250);
},
{
name = top;
pos = (349,500);
},
{
name = topright;
pos = (629,800);
}
);
layerId = m002;
shapes = (
{
closed = 1;
nodes = (
(176,735,o),
(122,691,o),
(122,567,cs),
(122,500,l),
(52,500,l),
(52,464,l),
(122,464,l),
(122,0,l),
(160,0,l),
(160,464,l),
(319,464,l),
(319,0,l),
(357,0,l),
(357,500,l),
(160,500,l),
(160,552,ls),
(160,667,o),
(186,692,o),
(236,698,cs),
(239,698,o),
(243,698,o),
(248,698,c),
(248,735,l),
(238,735,ls)
);
}
);
width = 430;
},
{
anchors = (
{
name = bottom;
pos = (349,0);
},
{
name = center;
pos = (349,250);
},
{
name = top;
pos = (349,500);
},
{
name = topright;
pos = (629,800);
}
);
layerId = m003;
shapes = (
{
closed = 1;
nodes = (
(163,735,o),
(102,685,o),
(102,567,cs),
(102,495,l),
(32,495,l),
(32,419,l),
(102,419,l),
(102,0,l),
(180,0,l),
(180,419,l),
(299,419,l),
(299,0,l),
(377,0,l),
(377,495,l),
(180,495,l),
(180,552,ls),
(180,628,o),
(206,653,o),
(238,657,cs),
(246,658,o),
(260,658,o),
(268,657,c),
(268,735,l),
(238,735,ls)
);
}
);
width = 440;
}
);
metricLeft = f;
metricRight = i;
},
{
color = 4;
glyphname = f_l.liga;
kernLeft = st;
kernRight = st;
lastChange = "2023-04-06 11:04:35 +0000";
layers = (
{
anchors = (
{
name = bottom;
pos = (399,0);
},
{
name = center;
pos = (399,400);
},
{
name = top;
pos = (399,800);
},
{
name = topright;
pos = (509,800);
}
);
layerId = m01;
shapes = (
{
closed = 1;
nodes = (
(153,733,o),
(82,688,o),
(82,567,cs),
(82,500,l),
(12,500,l),
(12,384,l),
(82,384,l),
(82,0,l),
(200,0,l),
(200,542,ls),
(200,604,o),
(221,615,o),
(239,616,cs),
(259,617,o),
(280,617,o),
(291,617,c),
(291,158,ls),
(291,33,o),
(366,-10,o),
(447,-10,cs),
(495,-10,l),
(495,108,l),
(467,108,o),
(457,108,o),
(449,109,cs),
(431,111,o),
(405,128,o),
(405,190,cs),
(405,735,l),
(353,736,o),
(270,736,o),
(237,735,cs)
);
}
);
width = 520;
},
{
anchors = (
{
name = bottom;
pos = (399,0);
},
{
name = center;
pos = (399,400);
},
{
name = top;
pos = (399,800);
},
{
name = topright;
pos = (509,800);
}
);
layerId = m002;
shapes = (
{
closed = 1;
nodes = (
(176,733,o),
(122,701,o),
(122,567,cs),
(122,500,l),
(52,500,l),
(52,464,l),
(122,464,l),
(122,0,l),
(160,0,l),
(160,552,ls),
(160,674,o),
(193,695,o),
(237,696,cs),
(277,697,o),
(286,697,o),
(321,695,c),
(321,158,ls),
(321,34,o),
(378,-10,o),
(437,-10,cs),
(445,-10,l),
(445,28,l),
(443,28,o),
(437,28,o),
(435,28,cs),
(390,31,o),
(355,59,o),
(355,180,cs),
(355,735,l),
(319,736,o),
(266,736,o),
(239,735,cs)
);
}
);
width = 490;
},
{
anchors = (
{
name = bottom;
pos = (399,0);
},
{
name = center;
pos = (399,400);
},
{
name = top;
pos = (399,800);
},
{
name = topright;
pos = (509,800);
}
);
layerId = m003;
shapes = (
{
closed = 1;
nodes = (
(163,733,o),
(102,685,o),
(102,567,cs),
(102,495,l),
(32,495,l),
(32,419,l),
(102,419,l),
(102,0,l),
(180,0,l),
(180,552,ls),
(180,628,o),
(206,655,o),
(238,656,cs),
(269,657,o),
(280,657,o),
(301,656,c),
(301,158,ls),
(301,40,o),
(362,-10,o),
(437,-10,cs),
(465,-10,l),
(465,68,l),
(457,68,o),
(445,68,o),
(437,69,cs),
(405,73,o),
(375,104,o),
(375,180,cs),
(375,735,l),
(342,736,o),
(271,736,o),
(238,735,cs)
);
}
);
width = 490;
}
);
metricLeft = f;
metricRight = l;
},
{
color = 4;
glyphname = f_t.liga;
kernLeft = st;
kernRight = st;
lastChange = "2023-04-06 11:04:35 +0000";
layers = (
{
anchors = (
{
name = bottom;
pos = (349,0);
},
{
name = center;
pos = (349,250);
},
{
name = top;
pos = (349,500);
},
{
name = topright;
pos = (629,800);
}
);
layerId = m01;
shapes = (
{
closed = 1;
nodes = (
(157,735,o),
(82,692,o),
(82,567,cs),
(82,500,l),
(12,500,l),
(12,384,l),
(82,384,l),
(82,0,l),
(200,0,l),
(200,384,l),
(279,384,l),
(279,158,ls),
(279,33,o),
(354,-10,o),
(435,-10,cs),
(485,-10,l),
(485,108,l),
(466,107,o),
(455,107,o),
(436,108,cs),
(418,109,o),
(397,121,o),
(397,183,cs),
(397,500,l),
(200,500,l),
(200,542,ls),
(200,604,o),
(222,615,o),
(240,617,cs),
(248,618,o),
(258,618,o),
(266,617,c),
(266,735,l),
(238,735,ls)
);
}
);
width = 500;
},
{
anchors = (
{
name = bottom;
pos = (349,0);
},
{
name = center;
pos = (349,250);
},
{
name = top;
pos = (349,500);
},
{
name = topright;
pos = (629,800);
}
);
layerId = m002;
shapes = (
{
closed = 1;
nodes = (
(176,735,o),
(122,696,o),
(122,567,cs),
(122,500,l),
(52,500,l),
(52,464,l),
(122,464,l),
(122,0,l),
(160,0,l),
(160,464,l),
(309,464,l),
(309,158,ls),
(309,34,o),
(358,-10,o),
(425,-10,cs),
(435,-10,l),
(435,27,l),
(432,27,o),
(428,27,o),
(424,27,cs),
(380,30,o),
(347,51,o),
(347,173,cs),
(347,500,l),
(160,500,l),
(160,552,ls),
(160,667,o),
(186,692,o),
(236,698,cs),
(239,698,o),
(243,698,o),
(248,698,c),
(248,735,l),
(238,735,ls)
);
}
);
width = 490;
},
{
anchors = (
{
name = bottom;
pos = (349,0);
},
{
name = center;
pos = (349,250);
},
{
name = top;
pos = (349,500);
},
{
name = topright;
pos = (629,800);
}
);
layerId = m003;
shapes = (
{
closed = 1;
nodes = (
(163,735,o),
(102,685,o),
(102,567,cs),
(102,495,l),
(32,495,l),
(32,419,l),
(102,419,l),
(102,0,l),
(180,0,l),
(180,419,l),
(289,419,l),
(289,158,ls),
(289,40,o),
(350,-10,o),
(425,-10,cs),
(455,-10,l),
(455,68,l),
(442,67,o),
(438,67,o),
(425,68,cs),
(393,70,o),
(367,97,o),
(367,173,cs),
(367,495,l),
(180,495,l),
(180,552,ls),
(180,628,o),
(206,653,o),
(238,657,cs),
(246,658,o),
(260,658,o),
(268,657,c),
(268,735,l),
(238,735,ls)
);
}
);
width = 490;
}
);
metricLeft = f;
metricRight = t;
},
{
color = 4;
glyphname = ordfeminine;
lastChange = "2023-04-06 11:04:35 +0000";
layers = (
{
anchors = (
{
name = bottom;
pos = (116,0);
},
{
name = ogonek;
pos = (199,4);
},
{
name = top;
pos = (116,208);
}
);
layerId = m01;
shapes = (
{
closed = 1;
nodes = (
(134,541,l),
(122,541,o),
(112,541,o),
(105,541,cs),
(94,541,o),
(85,549,o),
(84,564,cs),
(83,577,o),
(83,616,o),
(84,629,cs),
(85,646,o),
(95,652,o),
(105,653,cs),
(117,654,o),
(118,654,o),
(130,653,cs),
(140,652,o),
(151,646,o),
(151,629,cs),
(151,597,o),
(151,579,o),
(151,542,cs),
(151,516,o),
(166,484,o),
(223,491,c),
(223,540,l),
(214,540,o),
(209,548,o),
(209,561,cs),
(209,593,o),
(209,610,o),
(209,642,cs),
(209,680,o),
(177,706,o),
(133,708,cs),
(122,709,o),
(114,709,o),
(102,708,cs),
(58,706,o),
(26,678,o),
(26,642,cs),
(26,615,o),
(26,586,o),
(26,559,cs),
(26,525,o),
(54,492,o),
(103,492,cs),
(134,492,l)
);
}
);
width = 240;
},
{
anchors = (
{
name = bottom;
pos = (116,0);
},
{
name = ogonek;
pos = (199,4);
},
{
name = top;
pos = (116,208);
}
);
layerId = m002;
shapes = (
{
closed = 1;
nodes = (
(137,519,l),
(126,519,o),
(115,519,o),
(104,519,cs),
(87,519,o),
(64,530,o),
(63,564,cs),
(62,597,o),
(62,604,o),
(63,637,cs),
(64,671,o),
(89,679,o),
(104,680,cs),
(116,681,o),
(119,681,o),
(131,680,cs),
(146,679,o),
(172,671,o),
(172,637,cs),
(172,605,o),
(172,579,o),
(172,542,cs),
(172,515,o),
(183,488,o),
(213,490,c),
(213,518,l),
(202,518,o),
(199,527,o),
(199,558,cs),
(199,590,o),
(199,610,o),
(199,642,cs),
(199,682,o),
(169,706,o),
(132,708,cs),
(121,709,o),
(115,709,o),
(103,708,cs),
(66,706,o),
(36,680,o),
(36,642,cs),
(36,615,o),
(36,586,o),
(36,559,cs),
(36,523,o),
(62,492,o),
(103,492,cs),
(137,492,l)
);
}
);
width = 240;
},
{
anchors = (
{
name = bottom;
pos = (116,0);
},
{
name = ogonek;
pos = (199,4);
},
{
name = top;
pos = (116,208);
}
);
layerId = m003;
shapes = (
{
closed = 1;
nodes = (
(137,531,l),
(126,530,o),
(115,530,o),
(104,531,cs),
(87,532,o),
(76,542,o),
(75,564,cs),
(75,577,o),
(75,624,o),
(75,637,cs),
(76,659,o),
(89,668,o),
(104,669,cs),
(116,670,o),
(119,670,o),
(131,669,cs),
(146,668,o),
(160,659,o),
(160,637,cs),
(160,605,o),
(160,579,o),
(160,542,cs),
(160,515,o),
(173,488,o),
(213,490,c),
(213,530,l),
(202,530,o),
(199,547,o),
(199,558,cs),
(199,590,o),
(199,610,o),
(199,642,cs),
(199,682,o),
(169,706,o),
(132,708,cs),
(121,709,o),
(115,709,o),
(103,708,cs),
(66,706,o),
(36,680,o),
(36,642,cs),
(36,615,o),
(36,586,o),
(36,559,cs),
(36,523,o),
(62,492,o),
(103,492,cs),
(137,492,l)
);
}
);
width = 240;
}
);
unicode = 170;
},
{
color = 4;
glyphname = ordmasculine;
lastChange = "2023-04-06 11:04:35 +0000";
layers = (
{
anchors = (
{
name = bottom;
pos = (122,0);
},
{
name = center;
pos = (122,100);
},
{
name = ogonek;
pos = (208,4);
},
{
name = top;
pos = (122,200);
},
{
name = topright;
pos = (222,200);
}
);
layerId = m01;
shapes = (
{
closed = 1;
nodes = (
(144,653,o),
(154,646,o),
(154,631,cs),
(154,583,o),
(154,622,o),
(154,570,cs),
(154,551,o),
(144,546,o),
(136,545,cs),
(125,544,o),
(115,544,o),
(104,545,cs),
(96,546,o),
(86,551,o),
(86,570,cs),
(86,622,o),
(86,583,o),
(86,631,cs),
(86,646,o),
(96,653,o),
(104,653,cs),
(115,654,o),
(125,654,o),
(136,653,cs)
);
},
{
closed = 1;
nodes = (
(182,494,o),
(212,523,o),
(213,558,cs),
(213,610,o),
(213,591,o),
(213,644,cs),
(212,678,o),
(182,706,o),
(138,708,cs),
(127,709,o),
(113,709,o),
(102,708,cs),
(58,706,o),
(28,678,o),
(27,644,cs),
(27,591,o),
(27,610,o),
(27,558,cs),
(28,523,o),
(58,494,o),
(103,490,cs),
(114,490,o),
(126,490,o),
(137,490,cs)
);
}
);
width = 240;
},
{
anchors = (
{
name = bottom;
pos = (122,0);
},
{
name = center;
pos = (122,100);
},
{
name = ogonek;
pos = (208,4);
},
{
name = top;
pos = (122,200);
},
{
name = topright;
pos = (222,200);
}
);
layerId = m002;
shapes = (
{
closed = 1;
nodes = (
(162,679,o),
(176,665,o),
(176,639,cs),
(176,586,o),
(176,615,o),
(176,563,cs),
(176,533,o),
(162,519,o),
(137,517,cs),
(126,516,o),
(114,516,o),
(103,517,cs),
(78,519,o),
(64,533,o),
(64,563,cs),
(64,615,o),
(64,586,o),
(64,639,cs),
(64,665,o),
(78,679,o),
(103,681,cs),
(114,682,o),
(126,682,o),
(137,681,cs)
);
},
{
closed = 1;
nodes = (
(174,493,o),
(202,517,o),
(203,558,cs),
(204,610,o),
(203,591,o),
(203,644,cs),
(202,680,o),
(174,706,o),
(137,708,cs),
(126,709,o),
(114,709,o),
(103,708,cs),
(66,706,o),
(38,680,o),
(37,644,cs),
(37,591,o),
(36,610,o),
(37,558,cs),
(38,517,o),
(66,493,o),
(103,490,cs),
(114,489,o),
(126,489,o),
(137,490,cs)
);
}
);
width = 240;
},
{
anchors = (
{
name = bottom;
pos = (122,0);
},
{
name = center;
pos = (122,100);
},
{
name = ogonek;
pos = (208,4);
},
{
name = top;
pos = (122,200);
},
{
name = topright;
pos = (222,200);
}
);
layerId = m003;
shapes = (
{
closed = 1;
nodes = (
(152,668,o),
(164,653,o),
(164,639,cs),
(164,586,o),
(164,615,o),
(164,563,cs),
(164,545,o),
(152,531,o),
(137,530,cs),
(126,529,o),
(114,529,o),
(103,530,cs),
(88,531,o),
(76,545,o),
(76,563,cs),
(76,615,o),
(76,586,o),
(76,639,cs),
(76,653,o),
(88,668,o),
(103,669,cs),
(114,670,o),
(126,670,o),
(137,669,cs)
);
},
{
closed = 1;
nodes = (
(174,493,o),
(202,521,o),
(203,558,cs),
(203,610,o),
(203,591,o),
(203,644,cs),
(202,680,o),
(174,706,o),
(137,708,cs),
(126,709,o),
(114,709,o),
(103,708,cs),
(66,706,o),
(38,680,o),
(37,644,cs),
(37,591,o),
(37,610,o),
(37,558,cs),
(38,521,o),
(66,493,o),
(103,490,cs),
(114,490,o),
(126,490,o),
(137,490,cs)
);
}
);
width = 240;
}
);
unicode = 186;
},
{
color = 6;
glyphname = Delta;
kernLeft = A;
kernRight = A;
lastChange = "2023-04-06 11:02:46 +0000";
layers = (
{
anchors = (
{
name = bottom;
pos = (300,0);
},
{
name = ogonek;
pos = (556,10);
},
{
name = top;
pos = (300,700);
}
);
layerId = m01;
shapes = (
{
closed = 1;
nodes = (
(353,700,l),
(247,700,l),
(23,0,l),
(577,0,l)
);
},
{
closed = 1;
nodes = (
(319,537,l),
(281,537,l),
(440,35,l),
(471,118,l),
(129,118,l),
(160,35,l)
);
}
);
width = 600;
},
{
anchors = (
{
name = bottom;
pos = (300,0);
},
{
name = ogonek;
pos = (556,10);
},
{
name = top;
pos = (300,700);
}
);
layerId = m002;
shapes = (
{
closed = 1;
nodes = (
(334,700,l),
(266,700,l),
(42,0,l),
(558,0,l)
);
},
{
closed = 1;
nodes = (
(303,696,l),
(297,696,l),
(512,20,l),
(523,38,l),
(77,38,l),
(88,20,l)
);
}
);
width = 600;
},
{
anchors = (
{
name = bottom;
pos = (300,0);
},
{
name = ogonek;
pos = (556,10);
},
{
name = top;
pos = (300,700);
}
);
layerId = m003;
shapes = (
{
closed = 1;
nodes = (
(334,700,l),
(266,700,l),
(42,0,l),
(558,0,l)
);
},
{
closed = 1;
nodes = (
(314,580,l),
(286,580,l),
(459,35,l),
(490,78,l),
(110,78,l),
(141,35,l)
);
}
);
width = 600;
}
);
unicode = 916;
},
{
color = 6;
glyphname = Theta;
kernLeft = O;
kernRight = O;
lastChange = "2023-04-08 14:07:09 +0000";
layers = (
{
anchors = (
{
name = top;
pos = (280,425);
}
);
layerId = m002;
shapes = (
{
ref = O;
},
{
closed = 1;
nodes = (
(155,329,l),
(405,329,l),
(405,371,l),
(155,371,l)
);
}
);
width = 560;
},
{
anchors = (
{
name = top;
pos = (280,425);
}
);
layerId = m003;
shapes = (
{
ref = O;
},
{
closed = 1;
nodes = (
(185,309,l),
(375,309,l),
(375,391,l),
(185,391,l)
);
}
);
width = 560;
},
{
anchors = (
{
name = top;
pos = (280,425);
}
);
layerId = m01;
shapes = (
{
ref = O;
},
{
closed = 1;
nodes = (
(205,294,l),
(355,294,l),
(355,401,l),
(205,401,l)
);
}
);
width = 560;
}
);
unicode = 920;
},
{
color = 6;
glyphname = Lambda;
kernLeft = A;
kernRight = A;
lastChange = "2023-04-08 14:07:09 +0000";
layers = (
{
anchors = (
{
name = bottom;
pos = (300,0);
},
{
name = ogonek;
pos = (509,0);
},
{
name = top;
pos = (300,700);
}
);
layerId = m002;
shapes = (
{
closed = 1;
nodes = (
(292,700,l),
(73,0,l),
(109,0,l),
(300,610,l),
(491,0,l),
(527,0,l),
(308,700,l)
);
}
);
width = 600;
},
{
anchors = (
{
name = bottom;
pos = (300,0);
},
{
name = ogonek;
pos = (514,0);
},
{
name = top;
pos = (300,700);
}
);
layerId = m003;
shapes = (
{
closed = 1;
nodes = (
(266,700,l),
(42,0,l),
(130,0,l),
(300,529,l),
(470,0,l),
(558,0,l),
(334,700,l)
);
}
);
width = 600;
},
{
anchors = (
{
name = bottom;
pos = (300,0);
},
{
name = ogonek;
pos = (514,0);
},
{
name = top;
pos = (300,700);
}
);
layerId = m01;
shapes = (
{
closed = 1;
nodes = (
(247,700,l),
(23,0,l),
(149,0,l),
(300,470,l),
(451,0,l),
(577,0,l),
(353,700,l)
);
}
);
width = 600;
}
);
unicode = 923;
},
{
color = 6;
glyphname = Xi;
kernLeft = N;
kernRight = E;
lastChange = "2023-04-08 14:07:09 +0000";
layers = (
{
anchors = (
{
name = bottom;
pos = (260,0);
},
{
name = ogonek;
pos = (417,0);
},
{
name = top;
pos = (260,700);
},
{
name = topleft;
pos = (20,700);
}
);
layerId = m002;
shapes = (
{
closed = 1;
nodes = (
(81,662,l),
(429,662,l),
(429,700,l),
(81,700,l)
);
},
{
closed = 1;
nodes = (
(91,343,l),
(419,343,l),
(419,379,l),
(91,379,l)
);
},
{
closed = 1;
nodes = (
(81,0,l),
(429,0,l),
(429,38,l),
(81,38,l)
);
}
);
width = 510;
},
{
anchors = (
{
name = bottom;
pos = (260,0);
},
{
name = ogonek;
pos = (410,0);
},
{
name = top;
pos = (260,700);
},
{
name = topleft;
pos = (20,700);
}
);
layerId = m003;
shapes = (
{
closed = 1;
nodes = (
(61,618,l),
(449,618,l),
(449,700,l),
(61,700,l)
);
},
{
closed = 1;
nodes = (
(71,321,l),
(439,321,l),
(439,401,l),
(71,401,l)
);
},
{
closed = 1;
nodes = (
(61,0,l),
(449,0,l),
(449,82,l),
(61,82,l)
);
}
);
width = 510;
},
{
anchors = (
{
name = bottom;
pos = (260,0);
},
{
name = ogonek;
pos = (411,0);
},
{
name = top;
pos = (260,700);
},
{
name = topleft;
pos = (20,700);
}
);
layerId = m01;
shapes = (
{
closed = 1;
nodes = (
(41,578,l),
(469,578,l),
(469,700,l),
(41,700,l)
);
},
{
closed = 1;
nodes = (
(61,302,l),
(449,302,l),
(449,420,l),
(61,420,l)
);
},
{
closed = 1;
nodes = (
(41,0,l),
(469,0,l),
(469,122,l),
(41,122,l)
);
}
);
width = 510;
}
);
unicode = 926;
},
